 <svg version="1.0" xmlns="http://www.w3.org/2000/svg" width="700.000000pt" height="1110.000000pt" viewBox="0 0 700.000000 1110.000000" preserveAspectRatio="xMidYMid meet">
<metadata>
Created by potrace 1.12, written by Peter Selinger 2001-2015
</metadata>
<g transform="translate(0.000000,1110.000000) scale(0.100000,-0.100000)" fill="#000000" stroke="none">
<path d="M3110 11022 c0 -14 39 -46 47 -39 3 4 -2 16 -12 27 -19 21 -35 26
-35 12z"></path>
<path d="M2167 11014 c-4 -4 -7 -17 -7 -28 0 -19 1 -19 17 -3 12 11 14 20 7
27 -6 6 -13 7 -17 4z"></path>
<path d="M2224 11006 c-8 -22 3 -33 18 -18 9 9 9 15 0 24 -9 9 -13 7 -18 -6z"></path>
<path d="M2814 11006 c-8 -22 3 -33 18 -18 9 9 9 15 0 24 -9 9 -13 7 -18 -6z"></path>
<path d="M2867 11013 c-4 -3 -7 -14 -7 -23 0 -22 36 -55 44 -41 4 5 2 12 -4
16 -5 3 -10 17 -10 31 0 23 -10 31 -23 17z"></path>
<path d="M2308 10989 c-19 -10 -38 -67 -38 -112 0 -60 72 -113 120 -87 28 15
16 31 -20 24 -68 -14 -108 89 -55 141 27 28 37 30 67 14 27 -14 38 -1 14 17
-23 16 -63 18 -88 3z"></path>
<path d="M2460 10980 c-19 -19 -27 -40 -14 -40 3 0 17 9 31 20 29 23 54 25 71
8 17 -17 28 -2 12 17 -18 22 -76 19 -100 -5z"></path>
<path d="M2626 10979 c-26 -20 -35 -49 -16 -49 6 0 10 4 10 10 0 5 11 17 25
26 21 14 31 15 51 5 22 -10 25 -16 22 -54 -2 -35 -7 -43 -26 -45 -27 -4 -40
23 -23 49 13 21 2 26 -17 7 -16 -16 -15 -53 1 -66 23 -18 77 -20 86 -3 11 20
-2 105 -19 125 -18 22 -62 20 -94 -5z"></path>
<path d="M2004 10955 c-7 -18 3 -35 21 -35 21 0 28 19 15 35 -16 19 -29 19
-36 0z"></path>
<path d="M2125 10961 c-6 -11 9 -23 19 -14 9 9 7 23 -3 23 -6 0 -12 -4 -16 -9z"></path>
<path d="M2767 10964 c-8 -8 1 -24 14 -24 5 0 9 7 9 15 0 15 -12 20 -23 9z"></path>
<path d="M2973 10954 c-8 -21 13 -42 28 -27 13 13 5 43 -11 43 -6 0 -13 -7
-17 -16z"></path>
<path d="M2337 10932 c-20 -22 -22 -53 -5 -70 14 -14 68 -16 68 -2 0 6 -11 10
-25 10 -31 0 -43 25 -26 52 17 27 8 33 -12 10z"></path>
<path d="M2484 10905 c-8 -34 11 -55 52 -55 43 0 44 18 2 22 -29 3 -33 7 -33
31 1 34 -13 35 -21 2z"></path>
<path d="M2106 10891 c-3 -5 1 -14 10 -21 8 -7 13 -19 10 -26 -3 -7 -1 -16 5
-19 15 -10 23 24 11 51 -12 25 -27 31 -36 15z"></path>
<path d="M2846 10870 c-35 -42 -22 -59 14 -20 32 34 36 43 22 48 -5 1 -21 -11
-36 -28z"></path>
<path d="M2220 10880 c0 -5 5 -10 10 -10 6 0 10 5 10 10 0 6 -4 10 -10 10 -5
0 -10 -4 -10 -10z"></path>
<path d="M2760 10880 c0 -5 5 -10 11 -10 5 0 7 5 4 10 -3 6 -8 10 -11 10 -2 0
-4 -4 -4 -10z"></path>
<path d="M2003 10854 c-8 -21 13 -42 28 -27 13 13 5 43 -11 43 -6 0 -13 -7
-17 -16z"></path>
<path d="M2974 10855 c-4 -8 -1 -22 6 -30 10 -13 10 -19 -4 -34 -10 -11 -13
-21 -7 -25 12 -8 51 41 51 63 0 18 -18 41 -32 41 -5 0 -11 -7 -14 -15z"></path>
<path d="M2185 10850 c-4 -6 -3 -16 3 -22 6 -6 12 -6 17 2 4 6 3 16 -3 22 -6
6 -12 6 -17 -2z"></path>
<path d="M2600 10847 c0 -16 37 -51 63 -61 25 -8 67 3 67 19 0 8 -14 12 -41
11 -31 0 -45 5 -59 22 -21 25 -30 28 -30 9z"></path>
<path d="M2773 10845 c-3 -9 -3 -18 0 -21 9 -9 27 6 27 22 0 19 -19 18 -27 -1z"></path>
<path d="M2440 10842 c0 -15 45 -50 73 -57 16 -5 33 -2 42 5 21 17 8 31 -21
24 -18 -5 -34 0 -54 15 -32 23 -40 26 -40 13z"></path>
<path d="M3624 10677 c-9 -25 0 -62 16 -62 10 0 15 10 15 34 0 36 -21 54 -31
28z"></path>
<path d="M1485 10645 c-20 -19 -25 -34 -25 -75 0 -30 7 -61 16 -75 21 -32 83
-52 113 -36 30 17 17 31 -28 31 -40 0 -63 18 -76 58 -17 55 48 123 84 87 14
-13 13 -15 -10 -15 -32 0 -49 -17 -49 -51 0 -39 22 -53 75 -46 34 5 45 3 45
-6 0 -19 41 -54 72 -62 29 -7 72 10 63 26 -4 5 -23 9 -44 9 -43 0 -68 21 -77
66 -7 38 27 84 62 84 30 0 32 -17 3 -22 -32 -4 -45 -31 -33 -65 8 -23 16 -29
47 -31 26 -2 39 1 43 12 9 24 24 19 24 -7 0 -47 77 -90 119 -67 30 16 17 30
-28 30 -24 0 -44 7 -54 18 -23 26 -22 94 1 115 20 18 72 23 72 7 0 -5 -11 -10
-25 -10 -34 0 -53 -39 -37 -76 10 -21 18 -25 50 -22 l37 3 3 52 c4 72 -9 93
-57 93 -40 0 -81 -32 -81 -63 0 -9 -4 -17 -10 -17 -5 0 -10 9 -10 21 0 41 -18
59 -60 59 -42 0 -80 -26 -80 -55 0 -8 -4 -15 -10 -15 -5 0 -10 8 -10 18 0 52
-83 70 -125 27z m95 -61 c11 -12 11 -18 -2 -31 -19 -18 -38 -10 -38 16 0 33
20 40 40 15z m166 -5 c10 -17 -23 -46 -37 -32 -7 7 -9 19 -6 27 7 18 33 21 43
5z m162 -12 c4 -20 -25 -34 -40 -19 -15 15 -1 44 19 40 10 -2 19 -11 21 -21z"></path>
<path d="M1971 10644 c-15 -20 -21 -41 -21 -81 0 -47 4 -59 29 -84 32 -31 80
-39 100 -16 15 19 4 27 -40 27 -28 0 -42 6 -53 22 -22 31 -20 91 2 111 20 18
72 23 72 7 0 -5 -11 -10 -25 -10 -32 0 -49 -38 -35 -76 9 -22 15 -25 47 -22
l38 3 3 58 c4 71 -7 87 -58 87 -30 0 -43 -6 -59 -26z m97 -77 c4 -20 -25 -34
-40 -19 -15 15 -1 44 19 40 10 -2 19 -11 21 -21z"></path>
<path d="M2131 10644 c-29 -37 -29 -121 -1 -157 32 -40 120 -49 120 -11 0 10
-13 14 -44 14 -35 0 -48 5 -60 22 -36 51 -9 128 45 128 37 0 38 -18 2 -22 -26
-3 -28 -6 -28 -48 l0 -45 40 0 40 0 3 58 c4 71 -7 87 -58 87 -30 0 -43 -6 -59
-26z m97 -77 c4 -20 -25 -34 -40 -19 -15 15 -1 44 19 40 10 -2 19 -11 21 -21z"></path>
<path d="M2294 10649 c-27 -30 -27 -138 0 -167 32 -36 116 -41 116 -6 0 10
-13 14 -44 14 -35 0 -48 5 -60 22 -36 51 -9 128 45 128 16 0 29 -4 29 -10 0
-5 -8 -10 -18 -10 -25 0 -42 -20 -42 -50 0 -35 17 -50 57 -50 l33 0 0 63 c0
36 -5 68 -12 75 -20 20 -83 15 -104 -9z m94 -82 c4 -20 -25 -34 -40 -19 -15
15 -1 44 19 40 10 -2 19 -11 21 -21z"></path>
<path d="M2455 10650 c-22 -24 -31 -105 -16 -143 19 -49 131 -76 131 -32 0 11
-11 15 -39 15 -52 0 -86 38 -77 88 3 19 10 40 17 48 13 16 69 19 69 4 0 -5 -8
-10 -18 -10 -26 0 -42 -20 -42 -51 0 -38 23 -53 70 -46 37 5 42 3 55 -23 24
-46 125 -66 125 -24 0 10 -12 14 -39 14 -31 0 -44 6 -60 26 -25 31 -26 55 -6
93 14 27 49 46 67 35 14 -9 8 -24 -10 -24 -26 0 -42 -20 -42 -51 0 -38 23 -53
70 -46 37 5 42 3 55 -24 19 -36 81 -57 114 -40 30 17 17 31 -28 31 -63 0 -97
60 -67 119 13 24 23 31 46 31 16 0 32 -4 35 -10 3 -6 -4 -10 -17 -10 -31 0
-48 -18 -48 -51 0 -39 22 -53 75 -46 34 5 45 3 45 -6 0 -19 41 -54 72 -62 29
-7 72 10 63 26 -4 5 -23 9 -44 9 -49 0 -71 24 -71 77 0 44 23 73 58 73 28 0
29 -18 1 -22 -32 -4 -45 -31 -33 -65 8 -23 16 -29 47 -31 26 -2 39 1 43 12 9
24 24 19 24 -7 0 -47 77 -90 119 -67 30 16 17 30 -28 30 -24 0 -44 7 -54 18
-23 26 -22 94 1 115 20 18 72 23 72 7 0 -5 -11 -10 -25 -10 -34 0 -53 -39 -37
-76 10 -21 18 -25 50 -22 l37 3 3 58 c4 70 -7 87 -57 87 -40 0 -81 -32 -81
-63 0 -9 -4 -17 -10 -17 -5 0 -10 9 -10 21 0 40 -18 59 -59 59 -38 0 -81 -31
-81 -58 0 -7 -4 -12 -10 -12 -5 0 -10 8 -10 18 0 28 -32 52 -68 52 -34 0 -72
-29 -72 -55 0 -8 -4 -15 -10 -15 -5 0 -10 8 -10 18 0 48 -82 70 -120 32 -11
-11 -20 -24 -20 -30 0 -19 -15 -10 -32 20 -14 25 -23 30 -56 30 -26 0 -45 -7
-57 -20z m93 -74 c6 -29 -15 -43 -35 -24 -14 14 -14 20 -3 33 16 19 34 15 38
-9z m162 8 c11 -12 10 -18 -3 -32 -16 -15 -18 -15 -34 0 -13 14 -14 20 -3 32
7 9 16 16 20 16 4 0 13 -7 20 -16z m160 0 c11 -12 11 -18 -2 -31 -19 -18 -38
-10 -38 16 0 33 20 40 40 15z m166 -5 c10 -17 -23 -46 -37 -32 -7 7 -9 19 -6
27 7 18 33 21 43 5z m162 -12 c4 -20 -25 -34 -40 -19 -15 15 -1 44 19 40 10
-2 19 -11 21 -21z"></path>
<path d="M3261 10644 c-29 -37 -29 -121 -1 -157 24 -31 83 -46 105 -27 22 18
9 30 -35 30 -49 0 -73 30 -68 86 3 42 42 79 71 68 26 -9 20 -22 -10 -26 -26
-3 -28 -6 -28 -48 l0 -45 40 0 40 0 3 58 c4 71 -7 87 -58 87 -30 0 -43 -6 -59
-26z m97 -77 c4 -20 -25 -34 -40 -19 -15 15 -1 44 19 40 10 -2 19 -11 21 -21z"></path>
<path d="M3421 10644 c-29 -37 -29 -121 -1 -157 32 -40 120 -49 120 -11 0 10
-13 14 -44 14 -51 0 -76 24 -76 73 0 52 39 94 74 81 22 -8 20 -24 -3 -24 -27
0 -43 -24 -39 -62 3 -32 4 -33 48 -33 l45 0 3 48 c4 68 -16 97 -68 97 -30 0
-43 -6 -59 -26z m94 -75 c0 -15 -7 -25 -18 -27 -22 -4 -33 24 -17 43 18 21 35
13 35 -16z"></path>
<path d="M1355 10520 c-4 -6 -1 -17 5 -25 10 -12 10 -18 0 -30 -17 -20 -4 -32
18 -19 23 15 23 78 0 82 -9 2 -19 -2 -23 -8z"></path>
<path d="M1034 10347 c-9 -25 0 -62 16 -62 10 0 15 10 15 34 0 36 -21 54 -31
28z"></path>
<path d="M1184 10331 c-87 -53 -48 -208 50 -199 47 4 47 22 -1 24 -44 1 -73
32 -73 79 0 61 63 108 98 73 6 -6 15 -8 19 -4 9 9 -33 46 -51 46 -6 0 -25 -9
-42 -19z"></path>
<path d="M1362 10343 c-23 -4 -60 -49 -49 -59 3 -3 15 4 26 15 25 25 58 27 83
4 10 -9 21 -14 24 -10 7 7 -41 58 -53 56 -4 -1 -18 -4 -31 -6z"></path>
<path d="M1498 10321 c-39 -34 -32 -53 8 -22 30 24 54 27 72 9 6 -6 15 -8 19
-4 9 9 -33 46 -53 46 -8 0 -28 -13 -46 -29z"></path>
<path d="M1661 10324 c-38 -32 -31 -52 9 -23 21 16 37 20 59 16 38 -8 42 10 5
23 -36 14 -39 13 -73 -16z"></path>
<path d="M1850 10343 c-24 -9 -50 -35 -50 -50 0 -11 7 -9 27 7 21 16 35 20 60
15 40 -7 45 11 7 25 -14 6 -26 10 -27 9 -1 0 -9 -3 -17 -6z"></path>
<path d="M2160 10337 c-32 -16 -50 -52 -50 -100 0 -75 38 -113 104 -105 37 4
28 23 -10 23 -48 0 -74 29 -74 82 0 30 6 49 20 63 22 22 60 26 78 8 6 -6 15
-8 19 -4 9 9 -33 46 -51 46 -6 0 -22 -6 -36 -13z"></path>
<path d="M2323 10340 c-22 -9 -49 -47 -40 -57 3 -2 15 5 26 16 23 23 61 27 79
9 6 -6 15 -8 19 -4 9 9 -33 46 -51 45 -6 0 -21 -4 -33 -9z"></path>
<path d="M2483 10340 c-23 -9 -49 -48 -39 -58 3 -3 16 4 29 16 26 24 57 28 75
10 6 -6 15 -8 19 -4 9 9 -33 46 -51 45 -6 0 -21 -4 -33 -9z"></path>
<path d="M2638 10335 c-25 -14 -46 -50 -35 -61 3 -3 16 6 30 20 30 30 53 33
78 10 10 -9 19 -11 23 -5 7 10 -40 51 -58 51 -6 -1 -23 -7 -38 -15z"></path>
<path d="M2788 10321 c-39 -34 -32 -53 8 -22 30 24 54 27 72 9 6 -6 15 -8 19
-4 9 9 -33 46 -53 46 -8 0 -28 -13 -46 -29z"></path>
<path d="M2952 10325 c-38 -32 -33 -55 5 -25 30 23 46 25 73 8 24 -15 39 -3
19 17 -29 28 -64 28 -97 0z"></path>
<path d="M3134 10340 c-22 -9 -57 -50 -49 -58 2 -2 16 5 31 17 30 23 64 27 82
9 9 -9 12 -8 12 5 0 13 -40 41 -53 36 -1 0 -12 -4 -23 -9z"></path>
<path d="M3300 10343 c-24 -9 -50 -35 -50 -50 0 -11 7 -9 26 6 31 25 72 27 80
6 7 -17 24 -20 24 -5 0 15 -38 50 -52 49 -7 0 -20 -3 -28 -6z"></path>
<path d="M3450 10337 c-37 -19 -51 -54 -47 -116 5 -67 31 -92 92 -89 52 4 52
23 1 24 -28 1 -45 8 -58 24 -20 24 -24 80 -8 110 13 24 66 36 86 19 8 -6 18
-9 22 -5 8 9 -34 46 -52 46 -6 0 -22 -6 -36 -13z"></path>
<path d="M3613 10335 c-17 -7 -34 -23 -38 -35 -10 -32 0 -34 28 -6 27 27 61
34 72 16 3 -5 14 -10 23 -10 13 1 10 6 -11 25 -32 29 -32 29 -74 10z"></path>
<path d="M3784 10340 c-22 -9 -57 -50 -49 -58 2 -2 16 5 31 17 32 25 51 26 76
4 27 -24 32 -10 7 20 -22 29 -31 31 -65 17z"></path>
<path d="M3944 10340 c-24 -9 -54 -47 -54 -67 0 -20 17 -15 23 7 7 27 53 47
75 33 24 -15 24 -96 -1 -101 -22 -4 -34 25 -18 49 9 15 8 19 -2 19 -18 0 -37
-21 -37 -40 0 -27 35 -52 67 -48 27 3 28 5 31 64 3 63 -3 76 -43 87 -11 3 -30
2 -41 -3z"></path>
<path d="M1979 10323 c-16 -18 -32 -53 -24 -53 2 0 15 11 29 25 27 27 64 32
85 13 10 -11 12 -9 9 7 -5 28 -77 34 -99 8z"></path>
<path d="M1202 10268 c-15 -15 -15 -51 0 -66 14 -14 64 -16 73 -3 3 5 -9 11
-27 13 -30 3 -33 6 -32 36 2 36 2 36 -14 20z"></path>
<path d="M1353 10264 c-3 -9 -2 -28 3 -43 8 -22 16 -26 47 -26 20 0 36 5 35
10 -2 6 -16 10 -33 10 -27 0 -30 3 -29 33 2 34 -12 44 -23 16z"></path>
<path d="M1513 10264 c-3 -9 -2 -28 3 -43 8 -21 17 -27 47 -29 21 -2 37 1 37
7 0 6 -14 11 -30 11 -35 0 -49 23 -31 51 9 16 8 19 -4 19 -9 0 -18 -7 -22 -16z"></path>
<path d="M1680 10260 c-6 -11 -7 -20 -3 -20 5 0 14 9 21 20 7 11 8 20 2 20 -5
0 -14 -9 -20 -20z"></path>
<path d="M2007 10273 c-12 -12 -7 -60 7 -72 17 -14 68 -11 64 3 -2 6 -14 10
-28 10 -22 1 -25 5 -24 34 2 31 -5 40 -19 25z"></path>
<path d="M2167 10273 c-12 -12 -7 -60 7 -72 18 -15 68 -11 73 6 3 7 -8 11 -29
10 -31 -2 -33 0 -33 31 0 31 -5 39 -18 25z"></path>
<path d="M2330 10264 c-32 -37 20 -89 68 -68 13 6 8 9 -18 13 -32 6 -35 9 -34
39 2 37 1 38 -16 16z"></path>
<path d="M2647 10273 c-12 -12 -7 -60 7 -72 17 -14 83 -11 76 4 -3 6 -17 9
-33 7 -32 -4 -46 21 -28 49 9 15 8 19 -2 19 -8 0 -17 -3 -20 -7z"></path>
<path d="M2804 10265 c-4 -9 -3 -29 2 -44 8 -21 17 -27 47 -29 20 -2 37 1 37
7 0 5 -15 11 -32 13 -28 3 -33 7 -33 30 -1 34 -12 47 -21 23z"></path>
<path d="M2975 10270 c-3 -5 -1 -10 4 -10 6 0 11 5 11 10 0 6 -2 10 -4 10 -3
0 -8 -4 -11 -10z"></path>
<path d="M3297 10273 c-11 -11 -8 -58 5 -71 14 -14 68 -16 68 -3 0 5 -12 11
-27 13 -25 3 -28 7 -27 36 2 31 -5 40 -19 25z"></path>
<path d="M3457 10273 c-12 -12 -7 -60 7 -72 17 -14 68 -11 64 3 -2 6 -14 10
-28 10 -22 1 -25 5 -24 34 2 31 -5 40 -19 25z"></path>
<path d="M3785 10269 c-4 -6 -5 -13 -2 -16 7 -7 27 6 27 18 0 12 -17 12 -25
-2z"></path>
<path d="M3130 10260 c0 -5 5 -10 10 -10 6 0 10 5 10 10 0 6 -4 10 -10 10 -5
0 -10 -4 -10 -10z"></path>
<path d="M1681 10215 c3 -15 14 -21 43 -23 28 -3 37 0 34 10 -3 7 -15 12 -27
10 -12 -2 -29 2 -38 9 -13 11 -15 10 -12 -6z"></path>
<path d="M1840 10222 c0 -27 71 -45 85 -22 4 6 -6 10 -24 10 -16 0 -33 5 -36
10 -7 12 -25 13 -25 2z"></path>
<path d="M2970 10224 c0 -18 24 -34 52 -34 15 0 28 5 28 10 0 6 -13 10 -28 10
-15 0 -33 5 -40 12 -7 7 -12 8 -12 2z"></path>
<path d="M3130 10222 c0 -4 5 -13 12 -20 14 -14 68 -16 68 -2 0 6 -11 10 -24
10 -14 0 -28 5 -31 10 -7 12 -25 13 -25 2z"></path>
<path d="M3780 10221 c0 -5 6 -14 14 -20 17 -14 68 -11 64 4 -2 6 -13 9 -25 7
-12 -1 -24 2 -28 8 -8 12 -25 13 -25 1z"></path>
<path d="M2492 10209 c5 -16 78 -25 78 -10 0 6 -11 11 -24 11 -13 0 -32 3 -42
7 -12 4 -15 2 -12 -8z"></path>
<path d="M3622 10209 c5 -16 78 -25 78 -10 0 6 -11 11 -24 11 -13 0 -32 3 -42
7 -12 4 -15 2 -12 -8z"></path>
<path d="M3890 10200 c0 -12 11 -32 25 -46 20 -20 33 -25 68 -22 48 3 49 23 1
23 -33 0 -74 28 -74 52 0 7 -4 13 -10 13 -5 0 -10 -9 -10 -20z"></path>
<path d="M1310 10191 c0 -31 48 -62 89 -59 19 2 37 9 39 17 3 10 -2 12 -21 7
-34 -8 -78 9 -84 34 -7 26 -23 26 -23 1z"></path>
<path d="M1790 10195 c0 -9 11 -27 25 -41 20 -20 33 -25 68 -22 49 4 48 23 -1
23 -24 0 -40 8 -57 28 -27 31 -35 34 -35 12z"></path>
<path d="M1950 10195 c0 -9 11 -27 25 -41 20 -20 33 -25 68 -22 23 2 41 8 39
13 -2 6 -16 9 -33 7 -22 -3 -37 4 -60 27 -35 35 -39 37 -39 16z"></path>
<path d="M3240 10195 c0 -9 11 -27 25 -41 20 -20 33 -25 68 -22 49 4 48 23 -1
23 -24 0 -40 8 -57 28 -27 31 -35 34 -35 12z"></path>
<path d="M3730 10195 c0 -9 11 -27 25 -41 20 -19 34 -24 62 -22 20 2 38 9 41
17 3 10 -3 12 -27 6 -26 -6 -36 -2 -62 24 -35 35 -39 37 -39 16z"></path>
<path d="M1470 10186 c0 -8 12 -24 27 -36 30 -24 93 -25 101 -1 3 10 -3 12
-25 7 -24 -6 -37 -1 -61 19 -34 29 -42 31 -42 11z"></path>
<path d="M1630 10190 c0 -6 11 -22 25 -36 20 -20 33 -25 68 -22 48 3 49 23 0
23 -19 0 -41 9 -55 23 -26 24 -38 28 -38 12z"></path>
<path d="M2280 10186 c0 -27 51 -57 89 -54 45 4 38 22 -8 24 -22 0 -41 9 -52
22 -20 26 -29 28 -29 8z"></path>
<path d="M2440 10186 c0 -26 51 -57 89 -54 51 4 51 26 0 24 -31 0 -45 5 -59
22 -21 25 -30 28 -30 8z"></path>
<path d="M2600 10186 c0 -26 51 -57 89 -54 51 4 51 26 0 24 -31 0 -45 5 -59
22 -21 25 -30 28 -30 8z"></path>
<path d="M2760 10186 c0 -26 51 -57 89 -54 19 2 36 9 39 15 2 9 -5 11 -25 7
-22 -4 -37 0 -60 20 -35 30 -43 32 -43 12z"></path>
<path d="M2920 10186 c0 -28 51 -57 94 -54 23 2 39 7 36 13 -3 6 -17 9 -31 7
-17 -2 -37 6 -57 23 -34 29 -42 31 -42 11z"></path>
<path d="M3080 10190 c0 -6 11 -22 25 -36 20 -20 33 -25 68 -22 24 2 40 7 37
13 -3 6 -17 9 -31 7 -17 -2 -37 6 -57 23 -33 27 -42 31 -42 15z"></path>
<path d="M3570 10190 c0 -6 11 -22 25 -36 20 -19 34 -24 62 -22 52 4 54 26 2
24 -33 0 -45 4 -57 22 -15 23 -32 29 -32 12z"></path>
<path d="M4260 10015 c-5 -14 -16 -25 -25 -25 -20 0 -19 -14 1 -31 15 -12 14
-15 -6 -31 -14 -11 -19 -22 -13 -30 4 -7 8 -21 8 -30 0 -26 19 -23 25 3 9 36
30 35 30 -1 0 -36 23 -37 28 -2 2 12 10 22 17 22 23 0 28 20 10 40 -17 19 -16
20 10 30 25 10 26 12 13 28 -9 9 -13 22 -11 29 9 24 -17 23 -33 -2 -18 -28
-35 -25 -27 5 8 29 -16 25 -27 -5z m36 -81 c-5 -13 -10 -14 -18 -6 -6 6 -8 18
-4 28 5 13 10 14 18 6 6 -6 8 -18 4 -28z"></path>
<path d="M845 10007 c-51 -43 -41 -157 16 -187 29 -16 94 -9 94 10 0 11 -9 14
-34 12 -47 -5 -81 29 -81 80 0 25 7 45 20 58 21 21 55 26 65 10 3 -5 -2 -10
-13 -10 -24 0 -52 -30 -52 -57 0 -46 86 -76 97 -33 8 28 23 25 23 -5 0 -14 11
-37 25 -51 20 -20 33 -25 68 -22 29 2 42 8 42 18 0 11 -9 14 -34 12 -47 -5
-81 29 -81 80 0 25 7 45 20 58 21 21 55 26 65 10 3 -5 -2 -10 -13 -10 -24 0
-52 -30 -52 -57 0 -29 33 -55 67 -51 27 3 28 6 31 62 4 68 -14 96 -60 96 -34
0 -78 -39 -78 -70 0 -11 -4 -20 -10 -20 -5 0 -10 13 -10 28 0 59 -66 81 -115
39z m92 -73 c7 -19 -20 -49 -36 -40 -12 8 -15 39 -4 49 12 12 33 7 40 -9z
m160 0 c7 -19 -20 -49 -36 -40 -12 8 -15 39 -4 49 12 12 33 7 40 -9z"></path>
<path d="M1166 9999 c-20 -24 -26 -41 -26 -81 0 -42 5 -54 30 -79 25 -26 36
-30 72 -27 30 2 43 7 43 18 0 11 -9 14 -37 12 -73 -7 -114 73 -67 132 20 25
69 37 69 16 0 -5 -8 -10 -18 -10 -27 0 -42 -20 -42 -56 0 -41 21 -57 67 -52
32 4 42 0 69 -29 24 -25 40 -33 66 -33 33 0 65 20 52 33 -3 3 -20 3 -38 0 -67
-11 -110 74 -66 130 13 16 31 27 46 27 33 0 30 -13 -6 -27 -25 -10 -30 -17
-30 -46 0 -47 20 -61 75 -54 34 5 45 3 45 -6 0 -8 11 -24 24 -36 18 -17 33
-22 67 -19 31 2 44 7 44 18 0 10 -8 14 -25 12 -43 -5 -69 7 -85 39 -20 38 -12
83 18 104 24 17 57 20 57 5 0 -5 -6 -10 -13 -10 -22 0 -47 -34 -47 -62 0 -38
23 -52 75 -45 35 5 45 3 45 -7 0 -8 12 -24 27 -36 32 -25 108 -25 108 0 0 10
-8 14 -25 12 -46 -5 -71 7 -86 43 -17 42 -10 80 19 100 24 17 57 20 57 5 0 -5
-6 -10 -13 -10 -20 0 -47 -33 -47 -57 0 -42 82 -75 96 -38 9 22 24 18 24 -5 0
-12 11 -32 25 -46 20 -20 33 -25 68 -22 29 2 42 8 42 18 0 11 -9 14 -34 12
-47 -5 -81 29 -81 80 0 25 7 45 20 58 21 21 55 26 65 10 3 -5 -2 -10 -13 -10
-10 0 -26 -8 -35 -18 -38 -42 -5 -96 55 -90 l33 3 -3 60 c-4 69 -22 95 -64 95
-34 0 -78 -39 -78 -70 0 -11 -4 -20 -10 -20 -5 0 -10 13 -10 28 0 35 -27 62
-62 62 -29 0 -78 -35 -78 -56 0 -8 -4 -14 -10 -14 -5 0 -10 8 -10 18 0 27 -32
52 -67 52 -30 0 -73 -34 -73 -58 0 -22 -15 -12 -30 21 -12 26 -22 33 -51 35
-31 3 -41 -2 -64 -30 -20 -23 -30 -29 -33 -19 -19 56 -87 67 -126 20z m92 -73
c6 -29 -15 -43 -35 -24 -14 14 -14 20 -3 33 16 19 34 15 38 -9z m162 8 c11
-12 10 -18 -3 -32 -16 -15 -18 -15 -34 0 -13 14 -14 20 -3 32 7 9 16 16 20 16
4 0 13 -7 20 -16z m160 0 c11 -12 10 -18 -3 -32 -16 -15 -18 -15 -34 0 -13 14
-14 20 -3 32 7 9 16 16 20 16 4 0 13 -7 20 -16z m160 0 c11 -12 11 -18 -2 -31
-19 -18 -38 -10 -38 16 0 33 20 40 40 15z m167 0 c7 -19 -20 -49 -36 -40 -12
8 -15 39 -4 49 12 12 33 7 40 -9z"></path>
<path d="M3277 10019 c-11 -6 -25 -26 -33 -45 -12 -28 -20 -34 -44 -34 -25 0
-29 4 -32 33 -4 44 -32 44 -36 -1 -3 -27 -7 -33 -25 -30 -14 2 -22 -2 -22 -12
0 -8 10 -16 22 -18 14 -2 23 -11 25 -25 4 -29 32 -28 36 1 3 19 9 23 35 20 25
-2 32 -9 39 -35 5 -18 19 -40 33 -49 30 -20 100 -16 100 6 0 11 -9 14 -34 12
-47 -5 -81 29 -81 80 0 25 7 45 20 58 21 21 70 28 70 10 0 -5 -8 -10 -18 -10
-27 0 -42 -20 -42 -56 0 -39 20 -57 57 -52 27 3 28 6 31 62 2 44 -1 63 -14 77
-19 21 -59 24 -87 8z m78 -99 c0 -16 -6 -26 -18 -28 -19 -4 -32 20 -23 44 9
25 41 13 41 -16z"></path>
<path d="M3442 10023 c-22 -9 -42 -61 -42 -111 0 -69 33 -104 93 -100 29 2 42
8 42 18 0 11 -9 14 -32 12 -69 -7 -112 89 -62 139 20 20 71 24 69 4 -1 -5 -8
-9 -16 -7 -25 5 -44 -18 -44 -53 0 -39 19 -58 57 -53 27 3 28 5 31 68 2 52 0
67 -14 77 -18 13 -58 16 -82 6z m76 -97 c2 -10 -1 -23 -7 -29 -15 -15 -46 16
-37 38 8 21 40 15 44 -9z"></path>
<path d="M3589 10004 c-20 -21 -24 -36 -24 -86 0 -54 3 -63 29 -85 22 -19 37
-23 70 -21 28 2 41 8 41 18 0 11 -9 14 -36 12 -53 -5 -84 24 -84 78 0 45 29
80 66 80 25 0 24 -13 -3 -25 -33 -15 -44 -39 -32 -72 8 -23 16 -29 47 -31 26
-2 39 1 43 12 9 23 24 20 24 -4 0 -12 11 -32 25 -46 20 -20 33 -25 68 -22 29
2 42 8 42 18 0 11 -9 14 -37 12 -54 -5 -80 24 -76 86 2 38 8 49 29 61 16 9 33
11 45 6 18 -8 18 -8 -1 -13 -47 -10 -67 -51 -45 -93 13 -24 78 -27 86 -4 9 22
24 18 24 -5 0 -12 11 -32 25 -46 20 -20 33 -25 68 -22 29 2 42 8 42 18 0 11
-9 14 -37 12 -27 -3 -42 2 -57 17 -28 28 -29 93 -1 121 21 21 55 26 65 10 3
-5 -2 -10 -13 -10 -24 0 -52 -30 -52 -57 0 -42 82 -75 96 -38 9 22 24 18 24
-5 0 -12 11 -32 25 -46 20 -20 33 -25 68 -22 29 2 42 8 42 18 0 11 -9 14 -34
12 -47 -5 -81 29 -81 80 0 25 7 45 20 58 21 21 60 27 60 10 0 -5 -6 -10 -13
-10 -20 0 -47 -33 -47 -57 0 -44 78 -73 98 -37 13 23 3 105 -16 127 -22 25
-68 21 -97 -8 -14 -13 -25 -31 -25 -40 0 -8 -4 -15 -10 -15 -5 0 -10 11 -10
23 0 31 -29 57 -64 57 -32 0 -76 -40 -76 -70 0 -11 -4 -20 -10 -20 -5 0 -10
13 -10 28 0 60 -70 82 -115 37 -14 -13 -25 -31 -25 -40 0 -8 -4 -15 -10 -15
-5 0 -10 8 -10 18 0 60 -76 84 -121 36z m91 -70 c11 -12 11 -18 -2 -31 -19
-18 -38 -10 -38 16 0 33 20 40 40 15z m167 0 c7 -19 -20 -49 -36 -40 -12 8
-15 39 -4 49 12 12 33 7 40 -9z m160 0 c7 -19 -20 -49 -36 -40 -12 8 -15 39
-4 49 12 12 33 7 40 -9z m160 0 c7 -19 -20 -49 -36 -40 -12 8 -15 39 -4 49 12
12 33 7 40 -9z"></path>
<path d="M2004 9975 c-4 -9 -2 -21 4 -27 15 -15 44 -1 40 19 -4 23 -36 29 -44
8z"></path>
<path d="M2004 9885 c-7 -18 3 -35 21 -35 21 0 28 19 15 35 -16 19 -29 19 -36
0z"></path>
<path d="M2970 9884 c-11 -12 -10 -18 3 -32 16 -15 18 -15 34 0 13 14 14 20 3
32 -7 9 -16 16 -20 16 -4 0 -13 -7 -20 -16z"></path>
<path d="M710 9866 c0 -8 5 -18 11 -21 7 -5 4 -14 -7 -26 -21 -23 -13 -34 14
-20 26 14 37 48 22 66 -16 19 -40 19 -40 1z"></path>
<path d="M3624 9697 c-7 -20 -2 -47 11 -50 14 -3 19 43 6 56 -7 7 -12 6 -17
-6z"></path>
<path d="M523 9676 c-25 -22 -28 -31 -28 -86 0 -56 3 -64 29 -86 33 -29 101
-31 101 -4 0 11 -9 14 -32 12 -39 -4 -83 34 -83 72 0 66 46 110 90 86 28 -15
41 -3 16 16 -29 21 -61 17 -93 -10z"></path>
<path d="M683 9674 c-32 -32 -23 -43 13 -15 30 24 54 27 72 9 17 -17 28 -2 12
17 -20 24 -67 18 -97 -11z"></path>
<path d="M845 9675 c-22 -22 -34 -55 -19 -55 3 0 17 14 31 30 29 35 46 37 73
10 23 -23 30 -25 30 -7 0 22 -34 47 -64 47 -15 0 -37 -11 -51 -25z"></path>
<path d="M1012 9684 c-12 -8 -22 -24 -22 -35 0 -20 2 -19 31 5 36 30 46 32 71
9 25 -22 36 -8 13 17 -22 24 -62 26 -93 4z"></path>
<path d="M1172 9677 c-23 -25 -29 -47 -12 -47 6 0 10 4 10 10 0 5 11 17 25 26
21 14 30 15 52 5 32 -15 45 -4 19 15 -29 21 -70 17 -94 -9z"></path>
<path d="M1332 9677 c-20 -21 -29 -47 -18 -47 3 0 17 11 32 25 30 28 43 31 66
13 12 -10 14 -23 9 -58 -6 -47 -25 -59 -44 -28 -9 13 -7 22 8 37 24 27 11 40
-15 16 -41 -37 -10 -100 47 -93 27 3 28 6 31 60 2 47 -1 61 -18 78 -27 27 -71
26 -98 -3z"></path>
<path d="M3767 9689 c-25 -15 -47 -63 -47 -105 0 -69 101 -136 139 -91 15 19
4 27 -29 21 -38 -8 -66 10 -80 51 -14 42 2 82 42 104 24 14 28 14 47 -3 17
-15 21 -16 21 -5 0 35 -53 51 -93 28z"></path>
<path d="M3922 9683 c-20 -18 -39 -63 -27 -63 4 0 16 11 26 24 27 34 56 42 80
20 25 -23 37 -10 14 16 -22 25 -66 26 -93 3z"></path>
<path d="M4080 9680 c-19 -19 -27 -40 -15 -40 3 0 19 10 36 22 25 19 33 20 49
10 31 -19 45 -14 25 8 -10 11 -31 20 -47 20 -15 0 -37 -9 -48 -20z"></path>
<path d="M4240 9675 c-32 -34 -19 -42 20 -14 26 20 34 21 50 11 31 -19 45 -14
25 8 -25 28 -66 25 -95 -5z"></path>
<path d="M4396 9669 c-24 -28 -33 -49 -22 -49 3 0 18 14 34 30 51 51 85 33 80
-42 -2 -35 -7 -43 -23 -43 -27 0 -33 44 -9 62 10 7 15 16 11 20 -13 12 -47
-30 -47 -58 0 -33 27 -52 68 -47 25 3 27 7 30 57 3 44 -1 58 -19 77 -32 34
-71 31 -103 -7z"></path>
<path d="M556 9628 c-21 -30 -20 -51 3 -72 13 -12 27 -15 45 -10 14 3 24 10
21 14 -3 5 -13 6 -23 3 -10 -2 -24 3 -32 12 -11 13 -11 20 0 40 17 33 7 43
-14 13z"></path>
<path d="M882 9638 c-16 -16 -15 -73 1 -86 19 -16 71 -8 75 12 4 19 -9 21 -25
5 -7 -7 -19 -9 -27 -6 -18 7 -21 48 -5 64 6 6 7 13 1 16 -5 4 -14 1 -20 -5z"></path>
<path d="M1043 9638 c-20 -27 -23 -51 -8 -74 12 -18 23 -23 47 -20 18 2 34 9
36 16 3 9 -4 10 -26 5 -39 -8 -60 21 -37 51 8 11 15 22 15 27 0 11 -17 8 -27
-5z"></path>
<path d="M1210 9635 c-8 -9 -8 -15 -2 -15 12 0 26 19 19 26 -2 2 -10 -2 -17
-11z"></path>
<path d="M3786 9628 c-21 -29 -20 -51 2 -71 19 -17 74 -17 80 1 5 17 -18 25
-35 11 -13 -11 -17 -10 -29 6 -18 24 -18 30 1 45 8 7 15 16 15 21 0 16 -19 9
-34 -13z"></path>
<path d="M3947 9632 c-35 -38 -7 -94 43 -88 34 3 36 21 2 21 -21 0 -28 5 -30
24 -2 13 1 28 7 34 6 6 11 15 11 19 0 14 -16 9 -33 -10z"></path>
<path d="M4116 9634 c-11 -7 -16 -17 -13 -21 4 -4 15 1 24 10 22 21 14 30 -11
11z"></path>
<path d="M720 9630 c-8 -5 -11 -12 -7 -16 4 -4 13 -2 19 4 15 15 7 24 -12 12z"></path>
<path d="M4272 9628 c-7 -7 -12 -24 -12 -40 0 -29 22 -47 55 -44 31 3 28 21
-3 21 -25 0 -27 3 -26 38 1 42 2 41 -14 25z"></path>
<path d="M710 9578 c0 -24 25 -40 54 -32 14 3 23 10 20 16 -3 5 -13 7 -21 3
-9 -3 -24 2 -34 11 -16 15 -19 15 -19 2z"></path>
<path d="M980 9561 c0 -57 97 -106 130 -66 11 13 7 15 -29 15 -46 0 -81 26
-81 60 0 11 -4 20 -10 20 -5 0 -10 -13 -10 -29z"></path>
<path d="M1190 9582 c0 -5 8 -16 18 -25 18 -17 62 -13 62 5 0 5 -8 7 -19 3
-10 -3 -24 1 -31 10 -14 16 -30 20 -30 7z"></path>
<path d="M4100 9571 c0 -16 26 -30 50 -27 14 1 25 6 25 12 0 5 -10 8 -22 6
-12 -1 -24 2 -28 8 -8 12 -25 13 -25 1z"></path>
<path d="M820 9551 c0 -47 101 -92 129 -58 15 19 4 27 -30 20 -33 -6 -79 18
-79 42 0 8 -4 15 -10 15 -5 0 -10 -9 -10 -19z"></path>
<path d="M3890 9554 c0 -8 13 -29 29 -45 32 -31 80 -39 100 -16 15 19 4 27
-29 21 -33 -7 -66 9 -75 36 -8 24 -25 27 -25 4z"></path>
<path d="M1310 9541 c0 -25 45 -61 76 -61 32 0 54 10 54 25 0 10 -10 12 -34 8
-28 -4 -39 -1 -61 21 -31 31 -35 32 -35 7z"></path>
<path d="M4054 9549 c-11 -19 51 -69 85 -69 28 0 57 21 45 33 -4 3 -19 4 -33
1 -20 -4 -36 1 -58 20 -22 19 -34 23 -39 15z"></path>
<path d="M4370 9549 c0 -6 13 -24 30 -40 24 -25 37 -30 67 -27 26 2 38 8 38
18 0 11 -9 14 -31 12 -22 -2 -40 5 -62 23 -33 27 -42 31 -42 14z"></path>
<path d="M660 9540 c0 -5 9 -19 20 -30 35 -35 102 -40 108 -7 3 14 -2 16 -28
11 -23 -5 -39 -1 -60 15 -33 23 -40 26 -40 11z"></path>
<path d="M1150 9536 c0 -40 93 -73 119 -43 15 19 3 28 -26 21 -17 -5 -34 0
-53 15 -34 25 -40 26 -40 7z"></path>
<path d="M4220 9536 c0 -40 93 -73 119 -43 15 19 3 28 -26 21 -17 -5 -34 0
-53 15 -34 25 -40 26 -40 7z"></path>
<path d="M203 9355 c-52 -37 -52 -137 0 -181 35 -29 100 -31 105 -3 2 13 -5
16 -39 15 -32 0 -45 5 -60 23 -40 49 -14 131 42 131 16 0 29 -4 29 -10 0 -5
-8 -10 -18 -10 -27 0 -42 -20 -42 -57 0 -36 21 -53 64 -53 19 0 26 5 26 20 0
11 5 20 10 20 6 0 10 -9 10 -21 0 -11 13 -34 30 -50 24 -25 37 -30 67 -27 25
2 39 8 41 19 2 13 -5 16 -39 15 -56 -1 -83 31 -76 88 3 22 14 46 23 53 21 15
64 17 64 3 0 -5 -8 -10 -18 -10 -27 0 -42 -20 -42 -57 0 -36 21 -53 64 -53 25
0 26 2 26 68 0 76 -9 92 -55 92 -41 0 -72 -23 -80 -60 -9 -40 -25 -38 -25 3 0
18 -5 38 -12 45 -17 17 -69 15 -95 -3z m85 -88 c4 -20 -25 -34 -40 -19 -15 15
-1 44 19 40 10 -2 19 -11 21 -21z m160 0 c4 -20 -25 -34 -40 -19 -15 15 -1 44
19 40 10 -2 19 -11 21 -21z"></path>
<path d="M521 9351 c-42 -42 -39 -146 6 -181 30 -23 85 -27 102 -6 15 18 -1
30 -29 21 -10 -3 -33 1 -49 10 -41 21 -52 75 -24 113 22 29 59 40 76 23 8 -8
4 -11 -14 -11 -32 0 -49 -17 -49 -50 0 -35 31 -62 66 -58 26 3 28 6 29 58 2
72 -14 100 -60 100 -21 0 -43 -8 -54 -19z m86 -77 c8 -21 -13 -42 -28 -27 -13
13 -5 43 11 43 6 0 13 -7 17 -16z"></path>
<path d="M683 9348 c-42 -46 -37 -150 10 -183 27 -19 81 -20 96 -1 16 19 0 29
-32 21 -60 -16 -107 85 -62 135 19 21 65 28 65 10 0 -5 -8 -10 -18 -10 -26 0
-42 -20 -42 -50 0 -36 31 -62 67 -58 27 3 28 6 31 62 2 44 -1 63 -14 77 -24
26 -75 25 -101 -3z m84 -74 c8 -21 -13 -42 -28 -27 -13 13 -5 43 11 43 6 0 13
-7 17 -16z"></path>
<path d="M4069 9341 c-24 -24 -29 -38 -29 -76 0 -40 5 -52 35 -82 29 -29 40
-34 72 -31 54 4 53 33 -1 34 -67 2 -100 75 -60 132 15 22 74 32 74 12 0 -5 -8
-10 -18 -10 -22 0 -52 -30 -52 -51 0 -8 7 -24 15 -37 19 -26 78 -25 83 2 5 25
22 19 22 -8 0 -37 54 -78 99 -74 24 2 37 8 39 20 3 14 -4 17 -39 15 -32 -1
-45 4 -60 22 -40 49 -14 131 42 131 16 0 29 -4 29 -10 0 -5 -8 -10 -18 -10
-27 0 -42 -20 -42 -57 0 -36 21 -53 64 -53 25 0 26 2 26 68 0 77 -9 92 -57 92
-39 0 -83 -37 -83 -70 0 -11 -4 -20 -10 -20 -5 0 -10 16 -10 35 0 61 -71 76
-121 26z m99 -74 c4 -20 -25 -34 -40 -19 -15 15 -1 44 19 40 10 -2 19 -11 21
-21z m160 0 c4 -20 -25 -34 -40 -19 -15 15 -1 44 19 40 10 -2 19 -11 21 -21z"></path>
<path d="M4395 9345 c-21 -20 -25 -34 -25 -80 0 -49 4 -60 30 -86 24 -25 37
-30 67 -27 25 2 39 8 41 19 2 13 -5 16 -39 15 -32 0 -45 5 -60 23 -40 49 -14
131 42 131 16 0 29 -4 29 -10 0 -5 -8 -10 -18 -10 -27 0 -42 -20 -42 -57 0
-36 21 -53 64 -53 25 0 26 2 26 68 0 40 -5 73 -12 80 -21 21 -77 14 -103 -13z
m93 -78 c4 -20 -25 -34 -40 -19 -15 15 -1 44 19 40 10 -2 19 -11 21 -21z"></path>
<path d="M4559 9351 c-18 -14 -23 -31 -27 -79 -4 -58 -3 -63 27 -92 25 -26 37
-31 68 -28 25 2 39 8 41 19 2 13 -5 16 -39 15 -56 -1 -83 31 -76 88 3 22 14
46 23 53 21 15 64 17 64 3 0 -5 -8 -10 -18 -10 -27 0 -42 -20 -42 -57 0 -36
21 -53 64 -53 25 0 26 2 26 68 0 40 -5 73 -12 80 -18 18 -73 14 -99 -7z m89
-84 c4 -20 -25 -34 -40 -19 -15 15 -1 44 19 40 10 -2 19 -11 21 -21z"></path>
<path d="M4721 9351 c-42 -42 -39 -146 6 -181 30 -23 85 -27 102 -6 15 18 -1
30 -29 21 -10 -3 -33 1 -49 10 -41 21 -52 75 -24 113 20 27 73 43 73 23 0 -6
-8 -11 -18 -11 -26 0 -42 -20 -42 -50 0 -36 31 -62 67 -58 26 3 28 6 31 56 4
71 -15 102 -63 102 -21 0 -43 -8 -54 -19z m86 -77 c8 -21 -13 -42 -28 -27 -13
13 -5 43 11 43 6 0 13 -7 17 -16z"></path>
<path d="M4904 9225 c-8 -20 4 -35 26 -35 25 0 35 17 20 35 -16 19 -39 19 -46
0z"></path>
<path d="M865 9220 c-4 -6 1 -20 10 -30 16 -18 16 -20 1 -26 -18 -7 -22 -38
-4 -32 6 2 21 17 32 31 16 22 18 32 10 45 -13 21 -40 27 -49 12z"></path>
<path d="M3110 9072 c0 -14 39 -46 47 -39 3 4 -2 16 -12 27 -19 21 -35 26 -35
12z"></path>
<path d="M235 9057 c-9 -22 -2 -62 10 -60 6 1 11 14 13 29 4 32 -14 56 -23 31z"></path>
<path d="M382 9045 c-39 -17 -52 -42 -52 -100 0 -38 5 -52 30 -76 24 -24 37
-30 65 -27 45 4 41 22 -4 24 -43 1 -71 33 -71 81 0 57 64 105 98 71 16 -16 28
-2 13 16 -18 21 -45 25 -79 11z"></path>
<path d="M531 9034 c-37 -31 -31 -53 6 -24 29 22 58 26 69 8 4 -6 8 -30 8 -52
1 -35 -2 -41 -22 -44 -27 -4 -40 23 -23 49 6 11 7 19 1 19 -19 0 -30 -38 -20
-65 9 -23 15 -26 47 -23 l38 3 3 52 c3 45 -1 56 -22 78 -32 32 -47 31 -85 -1z"></path>
<path d="M2321 9047 c-29 -14 -48 -43 -37 -54 4 -4 12 0 17 9 12 22 66 33 85
17 8 -6 18 -9 22 -5 8 9 -34 46 -52 46 -6 0 -22 -6 -35 -13z"></path>
<path d="M2483 9045 c-28 -12 -50 -42 -38 -53 3 -3 15 4 28 16 26 24 57 28 75
10 16 -16 28 -2 13 16 -18 21 -45 25 -78 11z"></path>
<path d="M2644 9046 c-29 -13 -51 -43 -39 -54 3 -3 15 4 28 16 26 24 57 28 75
10 6 -6 15 -8 19 -4 8 7 -32 46 -46 46 -3 -1 -20 -7 -37 -14z"></path>
<path d="M2791 9034 c-17 -14 -31 -32 -31 -40 0 -19 5 -18 34 11 46 46 82 29
81 -40 0 -36 -3 -40 -25 -40 -22 0 -25 4 -23 33 1 21 -3 32 -10 29 -17 -5 -20
-42 -7 -67 9 -17 19 -20 48 -18 l37 3 3 56 c3 51 0 59 -24 78 -35 27 -46 26
-83 -5z"></path>
<path d="M4433 9053 c-39 -7 -63 -49 -63 -109 0 -40 5 -59 20 -74 22 -22 57
-33 91 -28 35 5 20 22 -20 24 -44 1 -71 33 -71 83 0 60 63 104 98 69 6 -6 15
-8 19 -4 8 8 -33 47 -46 45 -3 -1 -16 -4 -28 -6z"></path>
<path d="M4573 9040 c-18 -11 -33 -27 -33 -35 0 -21 13 -19 35 5 20 22 55 26
73 8 9 -9 12 -8 12 5 0 15 -28 37 -47 37 -4 0 -23 -9 -40 -20z"></path>
<path d="M4739 9045 c-26 -14 -45 -43 -35 -53 3 -2 17 5 32 17 30 24 59 27 71
9 13 -21 11 -78 -3 -89 -31 -26 -61 20 -32 49 9 9 9 12 0 12 -21 0 -35 -40
-23 -67 9 -20 17 -24 49 -21 l37 3 3 56 c3 51 0 59 -24 78 -31 24 -40 25 -75
6z"></path>
<path d="M2137 9032 c-29 -32 -38 -71 -27 -114 16 -57 43 -80 91 -76 22 2 39
8 39 13 -1 6 -14 9 -30 7 -67 -7 -109 99 -60 148 22 22 60 26 78 8 17 -17 28
-2 12 17 -17 21 -83 19 -103 -3z"></path>
<path d="M2977 9024 c-4 -4 -7 -16 -7 -26 0 -11 -11 -23 -26 -28 -14 -6 -22
-14 -19 -20 9 -15 31 -12 45 5 7 8 16 15 21 15 14 0 10 -22 -7 -41 -18 -20
-12 -53 9 -47 6 3 13 15 15 27 2 12 14 26 28 31 13 5 24 12 24 15 0 3 -11 10
-24 15 -14 5 -26 19 -28 31 -3 23 -19 35 -31 23z"></path>
<path d="M2003 9004 c-8 -21 13 -42 28 -27 13 13 5 43 -11 43 -6 0 -13 -7 -17
-16z"></path>
<path d="M387 8983 c-12 -12 -7 -60 7 -72 18 -15 68 -11 74 6 2 9 -5 11 -27 7
-36 -7 -52 16 -32 47 9 15 8 19 -2 19 -8 0 -17 -3 -20 -7z"></path>
<path d="M2167 8983 c-12 -12 -7 -60 7 -72 17 -14 67 -11 66 4 -1 6 -12 9 -25
7 -30 -4 -44 22 -26 49 9 15 8 19 -2 19 -8 0 -17 -3 -20 -7z"></path>
<path d="M2329 8969 c-18 -34 3 -69 41 -69 38 0 40 18 3 22 -25 3 -28 7 -27
36 2 38 -1 40 -17 11z"></path>
<path d="M2489 8969 c-19 -36 3 -69 46 -69 44 0 46 18 3 22 -30 3 -33 6 -32
36 2 38 -1 40 -17 11z"></path>
<path d="M2644 8963 c-10 -38 7 -58 50 -58 20 0 35 5 34 10 -2 6 -16 10 -33
10 -27 0 -30 3 -29 33 2 39 -13 43 -22 5z"></path>
<path d="M4427 8983 c-11 -11 -8 -58 5 -71 7 -7 27 -12 45 -12 26 0 33 4 33
20 0 22 -10 26 -27 9 -7 -7 -19 -9 -27 -6 -19 7 -21 38 -4 55 9 9 9 12 -3 12
-9 0 -19 -3 -22 -7z"></path>
<path d="M4583 8974 c-3 -9 -2 -28 3 -43 8 -21 16 -26 42 -26 17 0 32 5 32 10
-1 6 -12 9 -25 7 -30 -4 -44 22 -26 49 9 16 8 19 -4 19 -9 0 -18 -7 -22 -16z"></path>
<path d="M4535 8913 c12 -49 44 -74 90 -71 50 4 49 22 -2 24 -37 1 -73 31 -73
60 0 8 -5 14 -11 14 -7 0 -9 -10 -4 -27z"></path>
<path d="M2004 8905 c-4 -8 -1 -22 6 -30 10 -12 10 -18 0 -30 -7 -9 -10 -19
-6 -23 10 -9 46 36 46 57 0 18 -18 41 -32 41 -5 0 -11 -7 -14 -15z"></path>
<path d="M2600 8901 c0 -31 48 -62 89 -59 19 2 37 9 39 17 3 10 -2 12 -21 7
-34 -8 -74 8 -82 33 -8 26 -25 27 -25 2z"></path>
<path d="M500 8896 c0 -8 12 -24 26 -35 33 -26 104 -29 104 -6 0 13 -7 15 -34
9 -29 -5 -39 -2 -61 20 -30 30 -35 32 -35 12z"></path>
<path d="M2280 8897 c0 -8 11 -24 24 -36 18 -17 33 -22 62 -19 22 2 37 7 34
13 -3 6 -17 9 -32 7 -19 -2 -36 5 -53 22 -29 29 -35 31 -35 13z"></path>
<path d="M2440 8896 c0 -27 51 -57 89 -54 45 4 38 22 -8 24 -22 0 -41 9 -52
22 -20 26 -29 28 -29 8z"></path>
<path d="M2760 8896 c0 -8 12 -24 26 -35 31 -25 104 -29 104 -7 0 9 -12 13
-41 12 -33 0 -45 4 -57 22 -16 25 -32 29 -32 8z"></path>
<path d="M4700 8896 c0 -26 51 -57 89 -54 51 4 51 26 0 24 -31 0 -45 5 -59 22
-21 25 -30 28 -30 8z"></path>
<path d="M4581 8717 c-5 -13 -17 -27 -27 -31 -16 -6 -16 -8 1 -26 20 -22 13
-40 -16 -40 -22 0 -24 -11 -7 -28 7 -7 13 -20 13 -30 0 -25 29 -21 33 6 4 27
22 30 22 3 0 -31 19 -35 30 -7 5 14 16 26 25 26 18 0 20 21 3 39 -11 10 -8 16
10 30 20 15 22 19 9 29 -8 7 -13 22 -10 32 8 29 -16 24 -27 -5 -12 -31 -32
-33 -28 -3 4 30 -20 35 -31 5z m49 -66 c0 -5 -6 -14 -14 -20 -16 -13 -32 2
-21 19 8 12 35 13 35 1z"></path>
<path d="M1649 8701 c-24 -25 -29 -38 -29 -79 0 -40 6 -57 26 -82 24 -28 32
-31 72 -28 62 4 69 28 8 28 -54 0 -76 24 -76 82 0 45 30 81 63 76 28 -4 25
-21 -4 -28 -32 -8 -45 -33 -33 -67 8 -23 16 -29 47 -31 26 -2 39 1 43 12 9 24
24 19 24 -8 0 -37 45 -68 94 -64 55 4 61 28 7 28 -54 0 -81 26 -81 80 0 46 29
83 62 78 32 -5 35 -28 4 -28 -35 0 -54 -39 -38 -76 10 -21 18 -25 50 -22 l37
3 3 59 c4 68 -14 96 -60 96 -34 0 -78 -39 -78 -70 0 -11 -4 -20 -10 -20 -5 0
-10 13 -10 28 0 63 -71 82 -121 33z m91 -67 c11 -12 11 -18 -2 -31 -19 -18
-38 -10 -38 16 0 33 20 40 40 15z m167 0 c7 -19 -20 -49 -36 -40 -12 8 -15 39
-4 49 12 12 33 7 40 -9z"></path>
<path d="M1976 8705 c-23 -21 -26 -32 -26 -85 0 -52 4 -65 25 -86 20 -20 33
-25 67 -22 56 4 64 28 9 28 -54 0 -81 26 -81 79 0 31 6 44 27 61 28 22 54 23
61 3 2 -8 -6 -13 -22 -13 -33 0 -50 -37 -36 -76 9 -22 15 -25 47 -22 l38 3 3
59 c2 44 -1 63 -14 77 -24 26 -66 24 -98 -6z m89 -85 c0 -29 -32 -41 -41 -16
-9 24 4 48 23 44 12 -2 18 -12 18 -28z"></path>
<path d="M2139 8701 c-25 -26 -29 -37 -29 -86 0 -46 4 -60 25 -81 20 -20 33
-25 67 -22 56 4 64 28 9 28 -54 0 -81 26 -81 79 0 31 6 44 27 61 29 23 54 23
61 1 3 -8 0 -11 -6 -7 -23 14 -52 -13 -52 -48 0 -40 19 -59 57 -54 27 3 28 6
31 62 2 44 -1 63 -14 77 -25 27 -61 23 -95 -10z m86 -81 c0 -29 -32 -41 -41
-16 -9 24 4 48 23 44 12 -2 18 -12 18 -28z"></path>
<path d="M2305 8707 c-44 -38 -47 -135 -5 -177 25 -25 110 -29 110 -5 0 11
-11 15 -39 15 -73 0 -108 84 -56 136 27 27 55 29 63 5 3 -8 0 -11 -6 -7 -23
14 -52 -13 -52 -47 0 -42 15 -57 57 -57 l33 0 0 70 c0 58 -3 71 -19 80 -31 16
-58 12 -86 -13z m83 -81 c6 -29 -15 -43 -35 -24 -14 14 -14 20 -3 33 16 19 34
15 38 -9z"></path>
<path d="M2465 8707 c-44 -38 -47 -135 -5 -177 25 -25 110 -29 110 -5 0 11
-11 15 -39 15 -53 0 -85 38 -77 90 9 55 70 92 84 51 3 -8 0 -11 -6 -7 -23 14
-52 -13 -52 -48 0 -44 20 -60 69 -53 34 4 41 1 65 -30 25 -31 32 -34 74 -31
58 4 62 22 6 26 -54 4 -79 30 -79 84 0 30 6 45 24 59 27 22 52 22 59 0 3 -9 0
-11 -7 -6 -18 11 -51 -25 -51 -55 0 -38 22 -54 69 -47 34 4 41 1 65 -30 25
-31 32 -34 74 -31 61 4 70 28 9 28 -69 0 -104 57 -73 118 21 41 76 56 76 21 0
-6 -5 -7 -11 -4 -17 11 -49 -26 -49 -55 0 -40 22 -54 75 -47 34 5 45 3 45 -6
0 -8 11 -24 24 -36 18 -17 33 -22 67 -19 57 4 66 28 10 28 -54 0 -81 26 -81
80 0 47 29 83 63 78 28 -4 25 -21 -4 -28 -32 -8 -45 -33 -33 -67 8 -23 16 -29
47 -31 26 -2 39 1 43 12 9 24 24 19 24 -8 0 -37 45 -68 94 -64 55 4 61 28 7
28 -54 0 -81 26 -81 80 0 46 29 83 62 78 32 -5 35 -28 4 -28 -35 0 -54 -39
-38 -76 10 -21 18 -25 50 -22 l37 3 3 59 c4 68 -14 96 -60 96 -34 0 -78 -39
-78 -70 0 -11 -4 -20 -10 -20 -5 0 -10 13 -10 28 0 60 -70 82 -115 37 -14 -13
-25 -31 -25 -40 0 -8 -4 -15 -10 -15 -5 0 -10 11 -10 23 0 30 -29 57 -62 57
-29 0 -78 -35 -78 -56 0 -24 -15 -15 -27 16 -20 54 -103 49 -128 -8 -11 -25
-25 -29 -25 -7 0 23 -37 55 -64 55 -14 0 -37 -10 -51 -23z m83 -81 c6 -29 -15
-43 -35 -24 -14 14 -14 20 -3 33 16 19 34 15 38 -9z m162 8 c11 -12 10 -18 -3
-32 -16 -15 -18 -15 -34 0 -13 14 -14 20 -3 32 7 9 16 16 20 16 4 0 13 -7 20
-16z m160 0 c11 -12 11 -18 -2 -31 -19 -18 -38 -10 -38 16 0 33 20 40 40 15z
m160 0 c11 -12 11 -18 -2 -31 -19 -18 -38 -10 -38 16 0 33 20 40 40 15z m165
-14 c0 -16 -6 -26 -18 -28 -19 -4 -32 20 -23 44 9 25 41 13 41 -16z"></path>
<path d="M3266 8705 c-23 -21 -26 -32 -26 -85 0 -52 4 -65 25 -86 20 -20 33
-25 67 -22 56 4 64 28 9 28 -54 0 -81 26 -81 79 0 31 6 44 27 61 28 22 54 23
60 3 3 -7 -8 -13 -24 -15 -26 -3 -28 -6 -28 -48 l0 -45 45 0 45 0 -4 60 c-2
36 -9 67 -19 78 -22 24 -65 21 -96 -8z m89 -85 c0 -16 -6 -26 -18 -28 -19 -4
-32 20 -23 44 9 25 41 13 41 -16z"></path>
<path d="M384 8675 c-4 -9 -2 -21 4 -27 15 -15 44 -1 40 19 -4 23 -36 29 -44
8z"></path>
<path d="M384 8575 c-4 -9 -2 -21 4 -27 15 -15 44 -1 40 19 -4 23 -36 29 -44
8z"></path>
<path d="M1514 8579 c-10 -17 23 -46 37 -32 7 7 9 19 6 27 -7 18 -33 21 -43 5z"></path>
<path d="M1329 8371 c-25 -25 -29 -37 -29 -81 0 -44 4 -56 30 -81 24 -25 37
-30 67 -27 26 2 38 8 38 18 0 11 -9 14 -35 12 -66 -6 -103 76 -60 131 21 27
63 37 75 17 9 -15 25 -12 25 5 0 17 -30 35 -60 35 -12 0 -35 -13 -51 -29z"></path>
<path d="M1496 8379 c-25 -19 -35 -49 -18 -49 5 0 17 9 27 20 19 21 60 27 70
10 9 -15 25 -12 25 5 0 17 -30 35 -58 35 -11 0 -31 -9 -46 -21z"></path>
<path d="M1654 8375 c-32 -32 -21 -55 12 -24 18 17 31 21 59 16 38 -6 47 6 16
23 -32 16 -60 12 -87 -15z"></path>
<path d="M1830 8387 c-14 -7 -26 -20 -28 -30 -3 -15 0 -15 32 4 28 16 39 18
56 9 28 -15 41 -2 16 16 -24 17 -43 18 -76 1z"></path>
<path d="M1986 8379 c-14 -11 -26 -27 -26 -35 0 -12 5 -11 26 5 30 23 64 27
82 9 6 -6 15 -8 19 -4 10 10 -34 46 -57 46 -9 0 -29 -9 -44 -21z"></path>
<path d="M2144 8377 c-22 -19 -28 -34 -32 -80 -4 -52 -2 -58 26 -87 34 -33 81
-40 102 -15 11 13 7 15 -29 15 -56 0 -81 26 -81 84 0 35 5 48 22 60 27 19 59
21 76 4 20 -20 26 1 7 22 -24 27 -58 25 -91 -3z"></path>
<path d="M2306 8379 c-14 -11 -26 -27 -26 -35 0 -19 6 -18 30 6 22 22 60 26
78 8 9 -9 12 -9 12 3 0 41 -52 51 -94 18z"></path>
<path d="M2466 8379 c-14 -11 -26 -27 -26 -35 0 -19 6 -18 31 7 17 17 29 20
60 15 42 -7 52 6 20 24 -30 15 -56 12 -85 -11z"></path>
<path d="M2625 8375 c-23 -22 -34 -55 -19 -55 3 0 15 11 26 25 21 27 65 34 86
13 6 -6 14 -9 18 -6 11 12 -36 48 -61 48 -14 0 -37 -11 -50 -25z"></path>
<path d="M2786 8379 c-25 -19 -35 -49 -18 -49 5 0 17 9 27 20 20 22 55 26 72
9 8 -8 13 -7 18 2 10 15 -21 39 -51 39 -12 0 -33 -9 -48 -21z"></path>
<path d="M2944 8375 c-31 -31 -22 -56 10 -26 24 23 65 28 83 10 7 -7 13 -7 17
-1 9 14 -33 42 -62 42 -12 0 -34 -11 -48 -25z"></path>
<path d="M3108 8371 c-42 -37 -30 -53 12 -17 37 30 39 31 67 11 13 -9 24 -11
28 -6 7 12 -33 41 -57 41 -10 0 -32 -13 -50 -29z"></path>
<path d="M3276 8379 c-14 -11 -26 -27 -26 -35 0 -12 5 -11 26 5 30 23 64 27
82 9 20 -20 26 1 7 22 -23 26 -55 25 -89 -1z"></path>
<path d="M3434 8377 c-22 -19 -28 -34 -32 -80 -4 -52 -2 -58 26 -87 34 -33 81
-40 102 -15 11 13 7 15 -29 15 -56 0 -81 26 -81 84 0 38 4 48 30 66 29 21 32
21 56 5 32 -21 43 -12 19 15 -24 27 -58 25 -91 -3z"></path>
<path d="M3595 8375 c-25 -24 -33 -55 -16 -55 5 0 11 9 14 20 6 22 53 37 76
23 21 -13 26 -92 6 -99 -9 -4 -22 -1 -30 6 -20 17 -31 5 -15 -15 8 -10 25 -15
44 -13 30 3 31 4 34 60 2 47 -1 61 -18 78 -27 27 -66 25 -95 -5z"></path>
<path d="M3784 8359 c-10 -17 13 -36 27 -22 12 12 4 33 -11 33 -5 0 -12 -5
-16 -11z"></path>
<path d="M1366 8331 c-20 -22 -21 -64 -2 -80 17 -14 82 -11 78 4 -1 6 -14 10
-28 10 -38 0 -53 28 -30 53 9 11 13 23 8 26 -5 3 -17 -3 -26 -13z"></path>
<path d="M1522 8328 c-18 -18 -15 -53 6 -71 22 -20 76 -23 69 -4 -2 7 -15 11
-30 9 -32 -4 -46 21 -29 49 19 30 9 42 -16 17z"></path>
<path d="M1681 8318 c-10 -26 -4 -53 15 -68 15 -14 61 -9 54 5 -3 5 -12 8 -21
7 -26 -4 -45 26 -31 49 15 23 15 29 2 29 -6 0 -14 -10 -19 -22z"></path>
<path d="M2007 8333 c-13 -12 -7 -70 7 -82 17 -14 68 -11 64 3 -2 6 -14 10
-28 10 -22 1 -25 5 -24 39 1 35 -5 45 -19 30z"></path>
<path d="M2331 8326 c-7 -8 -11 -27 -9 -43 3 -31 43 -52 74 -38 16 7 13 9 -16
14 -36 6 -52 33 -31 54 6 6 11 15 11 19 0 13 -17 9 -29 -6z"></path>
<path d="M2652 8328 c-16 -16 -15 -50 1 -72 9 -12 23 -17 47 -14 19 2 33 8 30
13 -3 6 -17 9 -33 7 -32 -4 -46 21 -29 49 19 30 9 42 -16 17z"></path>
<path d="M2812 8328 c-18 -18 -14 -53 7 -72 20 -18 74 -19 69 -1 -2 6 -13 9
-24 7 -31 -3 -51 24 -36 48 13 22 1 35 -16 18z"></path>
<path d="M1845 8320 c-3 -5 -1 -10 4 -10 6 0 11 5 11 10 0 6 -2 10 -4 10 -3 0
-8 -4 -11 -10z"></path>
<path d="M2167 8323 c-11 -11 -8 -58 5 -71 17 -17 67 -15 75 3 8 22 -4 30 -22
15 -25 -20 -48 -4 -43 30 4 29 -1 37 -15 23z"></path>
<path d="M2975 8320 c-3 -5 -2 -10 4 -10 5 0 13 5 16 10 3 6 2 10 -4 10 -5 0
-13 -4 -16 -10z"></path>
<path d="M3136 8321 c-4 -7 -5 -15 -2 -18 9 -9 19 4 14 18 -4 11 -6 11 -12 0z"></path>
<path d="M3297 8323 c-11 -11 -8 -58 5 -71 14 -14 68 -16 68 -3 0 5 -12 11
-27 13 -25 3 -28 7 -27 36 2 31 -5 40 -19 25z"></path>
<path d="M3457 8323 c-12 -12 -7 -60 7 -72 18 -15 68 -11 73 6 3 7 -8 11 -29
10 -31 -2 -33 0 -33 31 0 31 -5 39 -18 25z"></path>
<path d="M3620 8315 c0 -8 5 -15 10 -15 6 0 10 7 10 15 0 8 -4 15 -10 15 -5 0
-10 -7 -10 -15z"></path>
<path d="M3735 8300 c-3 -5 3 -10 14 -10 12 0 21 5 21 10 0 6 -6 10 -14 10 -8
0 -18 -4 -21 -10z"></path>
<path d="M3825 8300 c-8 -12 20 -24 35 -15 6 3 8 11 5 16 -8 12 -32 12 -40 -1z"></path>
<path d="M2970 8278 c0 -9 6 -20 13 -26 15 -13 74 -9 69 4 -2 5 -13 8 -24 6
-12 -1 -29 5 -40 14 -16 15 -18 15 -18 2z"></path>
<path d="M1840 8272 c0 -4 5 -13 12 -20 14 -14 68 -16 68 -2 0 6 -11 10 -24
10 -14 0 -28 5 -31 10 -7 12 -25 13 -25 2z"></path>
<path d="M3130 8272 c0 -27 71 -45 85 -22 4 6 -6 10 -24 10 -16 0 -33 5 -36
10 -7 12 -25 13 -25 2z"></path>
<path d="M2492 8259 c5 -16 78 -25 78 -10 0 6 -11 11 -24 11 -13 0 -32 3 -42
7 -12 4 -15 2 -12 -8z"></path>
<path d="M3784 8259 c-8 -14 11 -33 25 -25 11 7 4 36 -9 36 -5 0 -12 -5 -16
-11z"></path>
<path d="M1195 8250 c-4 -7 -3 -16 3 -22 14 -14 45 -2 40 15 -6 16 -34 21 -43
7z"></path>
<path d="M1630 8245 c0 -9 11 -27 25 -40 28 -29 85 -34 105 -10 11 13 7 15
-29 15 -31 0 -48 6 -67 25 -29 29 -34 31 -34 10z"></path>
<path d="M1790 8246 c0 -47 100 -87 129 -52 12 14 9 16 -28 16 -31 0 -48 6
-67 25 -29 29 -34 30 -34 11z"></path>
<path d="M1955 8238 c11 -35 29 -49 72 -55 28 -4 42 -1 52 11 12 14 9 16 -33
16 -38 0 -48 4 -62 25 -20 31 -38 33 -29 3z"></path>
<path d="M2600 8245 c0 -9 11 -27 25 -41 20 -20 34 -25 63 -22 25 2 37 8 37
18 0 11 -9 14 -36 12 -29 -3 -40 2 -57 22 -23 30 -32 33 -32 11z"></path>
<path d="M2760 8242 c0 -42 91 -80 125 -52 22 19 9 29 -30 23 -28 -4 -38 -1
-58 21 -29 31 -37 33 -37 8z"></path>
<path d="M2920 8245 c0 -9 11 -27 25 -40 28 -29 85 -34 105 -10 11 13 7 15
-29 15 -31 0 -48 6 -67 25 -29 29 -34 31 -34 10z"></path>
<path d="M3240 8249 c0 -6 13 -24 29 -40 33 -32 80 -39 101 -14 11 13 7 15
-29 15 -31 0 -48 6 -67 25 -27 28 -34 30 -34 14z"></path>
<path d="M3570 8245 c0 -42 68 -77 114 -59 29 11 17 24 -23 24 -30 0 -44 6
-59 25 -23 29 -32 32 -32 10z"></path>
<path d="M1470 8236 c0 -26 51 -57 89 -54 47 4 54 28 8 28 -19 0 -45 9 -60 20
-30 24 -37 25 -37 6z"></path>
<path d="M2280 8236 c0 -22 49 -56 80 -56 15 0 33 7 40 15 14 16 10 18 -37 15
-20 -1 -39 6 -52 19 -25 25 -31 26 -31 7z"></path>
<path d="M2440 8236 c0 -8 12 -24 27 -36 32 -25 98 -25 98 0 0 11 -9 14 -37
12 -27 -3 -42 2 -57 17 -25 25 -31 26 -31 7z"></path>
<path d="M3080 8241 c0 -43 102 -80 129 -47 12 14 9 16 -26 16 -25 0 -50 8
-66 20 -28 22 -37 25 -37 11z"></path>
<path d="M1028 8076 c-6 -14 -17 -26 -24 -26 -22 0 -27 -21 -8 -36 18 -13 18
-14 -4 -32 -20 -16 -22 -20 -9 -30 8 -7 13 -22 10 -32 -8 -29 16 -24 27 6 10
26 33 24 28 -3 -5 -26 21 -26 31 0 5 13 17 27 27 31 16 6 15 8 -2 27 -17 19
-17 22 -2 33 20 15 19 81 -2 81 -8 0 -17 -10 -20 -23 -6 -26 -26 -26 -22 0 5
28 -17 31 -30 4z m42 -81 c0 -19 -20 -29 -32 -17 -8 8 -7 16 2 26 14 17 30 12
30 -9z"></path>
<path d="M1182 8073 c-22 -9 -42 -61 -42 -112 0 -43 4 -53 31 -76 37 -31 101
-33 107 -3 3 14 -4 17 -37 15 -55 -2 -76 20 -76 79 0 34 5 49 19 60 23 16 66
19 66 4 0 -5 -8 -10 -18 -10 -27 0 -42 -20 -42 -57 0 -39 27 -57 73 -50 25 3
37 -2 63 -29 24 -26 40 -34 66 -34 40 0 71 25 45 36 -9 3 -21 3 -26 0 -20 -13
-62 7 -76 35 -20 38 -19 62 6 93 20 25 69 37 69 16 0 -5 -8 -10 -18 -10 -27 0
-42 -20 -42 -57 0 -41 28 -58 81 -49 30 5 39 3 39 -8 0 -41 102 -74 129 -42
16 19 -1 29 -33 20 -20 -5 -32 1 -56 24 -35 36 -38 69 -9 106 20 25 69 37 69
16 0 -5 -8 -10 -18 -10 -42 0 -58 -63 -24 -93 21 -20 63 -22 80 -5 8 8 14 5
21 -14 5 -14 20 -33 33 -42 28 -20 82 -21 97 -2 16 19 0 29 -32 21 -17 -5 -32
1 -53 18 -34 29 -39 84 -9 117 19 21 59 27 70 10 3 -6 -5 -10 -19 -10 -27 0
-46 -24 -46 -58 0 -46 86 -74 97 -32 8 28 23 25 23 -5 0 -14 11 -37 25 -51 20
-20 33 -25 68 -22 29 2 42 8 42 18 0 11 -9 14 -31 12 -49 -5 -84 30 -84 82 0
29 6 48 18 59 20 19 62 23 62 7 0 -5 -9 -10 -20 -10 -31 0 -48 -45 -29 -78 12
-22 22 -27 54 -27 l40 0 -4 60 c-4 70 -21 95 -66 95 -34 0 -75 -34 -75 -63 0
-9 -4 -17 -10 -17 -5 0 -10 11 -10 23 0 55 -78 77 -118 34 -12 -13 -22 -29
-22 -35 0 -7 -4 -12 -10 -12 -5 0 -10 8 -10 18 0 27 -32 52 -67 52 -30 0 -73
-34 -73 -58 0 -22 -15 -12 -30 21 -23 49 -100 51 -122 2 -14 -32 -19 -31 -40
5 -14 24 -23 30 -50 29 -18 0 -39 -3 -46 -6z m76 -96 c4 -20 -25 -34 -40 -19
-15 15 -1 44 19 40 10 -2 19 -11 21 -21z m160 0 c4 -21 -25 -34 -40 -19 -8 8
-8 16 2 27 16 19 34 15 38 -8z m159 7 c8 -21 -13 -42 -28 -27 -13 13 -5 43 11
43 6 0 13 -7 17 -16z m171 -7 c4 -20 -25 -34 -40 -19 -15 15 -1 44 19 40 10
-2 19 -11 21 -21z m160 0 c4 -20 -25 -34 -40 -19 -15 15 -1 44 19 40 10 -2 19
-11 21 -21z"></path>
<path d="M3101 8056 c-46 -49 -35 -157 20 -186 29 -16 94 -9 94 10 0 11 -11
15 -36 15 -50 0 -79 28 -79 74 0 20 7 47 16 59 16 23 58 30 69 12 3 -5 -2 -10
-13 -10 -22 0 -52 -30 -52 -51 0 -8 7 -24 15 -37 12 -16 24 -21 48 -18 31 3
32 4 35 61 2 43 -1 62 -14 76 -25 27 -75 25 -103 -5z m97 -79 c4 -20 -25 -34
-40 -19 -15 15 -1 44 19 40 10 -2 19 -11 21 -21z"></path>
<path d="M3265 8055 c-21 -20 -25 -34 -25 -83 0 -51 3 -62 29 -86 23 -22 36
-27 67 -24 27 2 39 8 39 18 0 11 -9 14 -31 12 -46 -4 -84 30 -84 77 0 49 23
81 61 81 16 0 29 -4 29 -10 0 -5 -8 -10 -18 -10 -27 0 -42 -20 -42 -56 0 -39
20 -57 57 -52 27 3 28 6 31 62 2 44 -1 63 -14 77 -24 27 -70 24 -99 -6z m93
-78 c4 -20 -25 -34 -40 -19 -15 15 -1 44 19 40 10 -2 19 -11 21 -21z"></path>
<path d="M3425 8055 c-21 -20 -25 -34 -25 -80 0 -49 4 -60 30 -86 24 -25 37
-30 67 -27 26 2 39 8 41 20 3 14 -4 17 -39 15 -32 -1 -45 4 -60 22 -40 49 -14
131 42 131 16 0 29 -4 29 -10 0 -5 -8 -10 -18 -10 -27 0 -42 -20 -42 -56 0
-39 20 -57 57 -52 27 3 28 5 31 66 2 38 -2 69 -9 78 -19 23 -77 17 -104 -11z
m93 -78 c4 -20 -25 -34 -40 -19 -15 15 -1 44 19 40 10 -2 19 -11 21 -21z"></path>
<path d="M3589 8054 c-20 -21 -24 -36 -24 -86 1 -53 4 -63 28 -84 32 -27 88
-32 106 -10 16 19 -1 29 -33 20 -20 -5 -32 1 -56 24 -35 36 -38 69 -9 106 20
25 69 37 69 16 0 -5 -8 -10 -18 -10 -42 0 -58 -63 -24 -93 22 -20 76 -16 80 7
5 26 22 19 22 -9 0 -38 42 -75 83 -75 19 0 40 6 46 14 15 18 0 29 -31 21 -16
-4 -33 1 -51 15 -51 41 -30 140 31 140 11 0 24 -4 27 -10 3 -6 -4 -10 -17 -10
-13 0 -29 -5 -36 -12 -18 -18 -15 -63 6 -81 19 -18 74 -17 80 2 6 18 22 13 22
-7 0 -10 13 -31 29 -46 23 -22 36 -27 67 -24 53 4 55 33 3 33 -50 0 -79 28
-79 74 0 20 7 47 16 59 16 23 58 30 69 12 3 -5 -2 -10 -13 -10 -10 0 -26 -8
-35 -18 -37 -40 -8 -90 51 -89 l32 0 0 62 c0 71 -17 95 -68 95 -31 0 -72 -37
-72 -66 0 -8 -4 -14 -10 -14 -5 0 -10 11 -10 23 0 55 -78 77 -118 34 -12 -13
-22 -31 -22 -40 0 -9 -4 -17 -10 -17 -5 0 -10 8 -10 18 0 61 -76 84 -121 36z
m99 -77 c4 -20 -25 -34 -40 -19 -15 15 -1 44 19 40 10 -2 19 -11 21 -21z m160
0 c4 -20 -25 -34 -40 -19 -15 15 -1 44 19 40 10 -2 19 -11 21 -21z m160 0 c4
-20 -25 -34 -40 -19 -15 15 -1 44 19 40 10 -2 19 -11 21 -21z"></path>
<path d="M2004 8035 c-7 -18 3 -35 21 -35 21 0 28 19 15 35 -16 19 -29 19 -36
0z"></path>
<path d="M2004 7935 c-4 -9 -2 -21 4 -27 15 -15 44 -1 40 19 -4 23 -36 29 -44
8z"></path>
<path d="M2970 7935 c-15 -18 -5 -35 20 -35 10 0 22 5 25 10 7 11 -12 40 -25
40 -4 0 -13 -7 -20 -15z"></path>
<path d="M841 7723 c-27 -34 -35 -64 -27 -106 10 -54 70 -97 116 -82 36 11 23
30 -21 30 -51 0 -69 22 -69 82 0 48 26 83 60 83 11 0 25 -9 32 -20 15 -23 28
-26 28 -7 0 23 -35 47 -68 47 -21 0 -37 -8 -51 -27z"></path>
<path d="M1012 7734 c-12 -8 -22 -25 -22 -36 0 -20 1 -19 25 6 28 30 51 33 77
9 25 -22 36 -8 13 17 -22 24 -62 26 -93 4z"></path>
<path d="M1170 7730 c-19 -19 -27 -40 -14 -40 3 0 17 9 31 20 29 23 54 25 71
8 17 -17 28 -2 12 17 -18 22 -76 19 -100 -5z"></path>
<path d="M1330 7725 c-30 -32 -19 -44 16 -16 32 25 51 26 76 4 24 -22 32 -13
12 15 -22 31 -73 30 -104 -3z"></path>
<path d="M1492 7727 c-21 -22 -29 -47 -16 -47 4 0 17 11 30 25 44 47 83 28 80
-40 -1 -33 -6 -41 -24 -43 -30 -5 -39 23 -17 48 24 26 11 38 -15 15 -22 -20
-26 -55 -8 -73 7 -7 29 -12 50 -12 l38 0 0 58 c0 44 -5 63 -18 75 -27 24 -74
21 -100 -6z"></path>
<path d="M3596 7729 c-14 -11 -26 -30 -26 -41 0 -18 3 -17 29 11 30 32 59 39
79 19 17 -17 28 -2 12 17 -18 21 -63 19 -94 -6z"></path>
<path d="M3751 7724 c-36 -46 -27 -59 13 -19 29 29 52 32 78 8 25 -22 36 -8
13 17 -27 30 -78 27 -104 -6z"></path>
<path d="M3918 7733 c-19 -22 -32 -63 -20 -63 5 0 14 11 20 25 13 28 57 44 75
26 6 -6 18 -11 26 -11 11 0 10 4 -4 20 -23 25 -76 26 -97 3z"></path>
<path d="M4082 7734 c-12 -8 -22 -22 -22 -30 0 -19 6 -18 30 6 23 23 53 26 67
8 6 -7 11 -30 11 -51 2 -42 -18 -58 -43 -37 -18 15 -30 7 -22 -15 4 -10 20
-15 47 -15 l40 0 0 65 c0 53 -3 66 -19 75 -28 14 -63 12 -89 -6z"></path>
<path d="M3466 7723 c-3 -3 -6 -17 -6 -29 0 -17 -7 -23 -25 -26 -32 -4 -37
-22 -7 -26 13 -2 25 3 28 12 8 20 21 20 41 1 16 -17 35 -16 34 0 0 6 -9 11
-21 13 -13 2 -20 11 -20 27 0 25 -12 39 -24 28z"></path>
<path d="M874 7675 c-26 -39 -6 -75 41 -75 23 0 38 6 42 15 8 22 -4 30 -22 15
-8 -7 -22 -9 -31 -6 -13 5 -15 14 -10 41 8 42 2 44 -20 10z"></path>
<path d="M1043 7688 c-36 -47 -19 -91 33 -86 19 2 35 8 35 13 1 6 -13 9 -30 7
-37 -4 -51 20 -27 47 9 10 16 21 16 24 0 11 -17 8 -27 -5z"></path>
<path d="M3631 7686 c-8 -9 -11 -19 -7 -23 9 -9 29 13 24 27 -2 8 -8 7 -17 -4z"></path>
<path d="M3790 7685 c-18 -21 -3 -32 16 -13 10 9 12 18 6 22 -5 3 -15 -1 -22
-9z"></path>
<path d="M3945 7680 c-15 -16 -17 -26 -9 -48 8 -22 16 -28 47 -30 21 -2 37 1
37 7 0 6 -11 11 -25 11 -30 0 -43 25 -27 51 22 35 6 41 -23 9z"></path>
<path d="M4110 7685 c-7 -9 -10 -18 -7 -21 6 -7 47 18 47 28 0 14 -27 9 -40
-7z"></path>
<path d="M1362 7678 c-7 -7 -12 -21 -12 -33 0 -12 5 -26 12 -33 16 -16 81 -16
75 1 -2 7 -15 11 -30 9 -32 -4 -46 21 -28 49 13 21 2 26 -17 7z"></path>
<path d="M3560 7626 c0 -52 73 -106 121 -91 35 11 22 33 -20 31 -46 -1 -67 15
-76 55 -8 35 -25 39 -25 5z"></path>
<path d="M980 7616 c0 -54 73 -101 120 -76 28 15 16 31 -18 24 -33 -7 -82 27
-82 57 0 10 -4 19 -10 19 -5 0 -10 -11 -10 -24z"></path>
<path d="M1190 7632 c0 -27 71 -45 85 -22 4 6 -6 10 -24 10 -16 0 -33 5 -36
10 -7 12 -25 13 -25 2z"></path>
<path d="M3890 7614 c0 -31 50 -84 80 -84 29 0 62 19 55 31 -4 5 -16 7 -29 3
-37 -9 -76 12 -82 46 -8 37 -24 40 -24 4z"></path>
<path d="M3462 7609 c1 -13 8 -23 13 -21 15 3 12 35 -3 40 -9 3 -13 -3 -10
-19z"></path>
<path d="M3622 7619 c5 -16 78 -25 78 -10 0 6 -11 11 -24 11 -13 0 -32 3 -42
7 -12 4 -15 2 -12 -8z"></path>
<path d="M3783 7616 c5 -14 78 -15 75 -1 -2 5 -20 10 -41 10 -22 1 -36 -3 -34
-9z"></path>
<path d="M1310 7599 c0 -39 60 -76 105 -65 42 11 31 34 -16 32 -31 0 -45 5
-59 22 -20 24 -30 28 -30 11z"></path>
<path d="M1470 7599 c0 -38 67 -78 110 -64 37 12 23 33 -21 31 -33 0 -45 4
-57 22 -15 23 -32 29 -32 11z"></path>
<path d="M3730 7597 c0 -18 39 -53 68 -62 28 -8 62 2 62 20 0 10 -9 12 -34 8
-29 -4 -39 -1 -59 21 -27 29 -37 32 -37 13z"></path>
<path d="M4056 7602 c-9 -14 21 -48 54 -62 24 -10 37 -10 56 -1 32 14 22 32
-15 25 -20 -4 -35 1 -58 20 -18 15 -34 23 -37 18z"></path>
<path d="M1150 7590 c0 -32 79 -72 107 -54 22 13 11 29 -16 26 -13 -2 -37 6
-52 17 -32 23 -39 26 -39 11z"></path>
<path d="M874 7427 c-9 -25 0 -62 16 -62 10 0 15 10 15 34 0 36 -21 54 -31 28z"></path>
<path d="M1034 7420 c-64 -25 -85 -123 -39 -178 27 -33 76 -47 106 -31 29 15
14 29 -31 29 -45 0 -70 26 -70 73 0 52 39 94 74 81 24 -9 19 -22 -10 -26 -36
-4 -51 -29 -38 -65 8 -24 15 -28 49 -28 l40 0 3 61 c3 63 -3 76 -43 87 -11 3
-30 2 -41 -3z m64 -103 c4 -20 -25 -34 -40 -19 -15 15 -1 44 19 40 10 -2 19
-11 21 -21z"></path>
<path d="M1190 7417 c-13 -7 -30 -24 -37 -37 -16 -31 -17 -104 -2 -132 22 -42
129 -60 129 -22 0 10 -12 14 -39 14 -53 0 -85 38 -77 90 6 37 39 73 64 68 23
-4 27 -28 5 -28 -27 0 -43 -19 -43 -51 0 -35 21 -51 62 -47 33 3 33 4 36 59 3
51 0 59 -24 78 -31 24 -40 25 -74 8z m68 -91 c6 -29 -15 -43 -35 -24 -14 14
-14 20 -3 33 16 19 34 15 38 -9z"></path>
<path d="M4113 7422 c-24 -4 -63 -46 -63 -68 0 -8 -4 -14 -10 -14 -5 0 -10 13
-10 28 0 38 -17 52 -60 52 -39 0 -80 -32 -80 -63 0 -9 -4 -17 -10 -17 -5 0
-10 9 -10 21 0 39 -19 59 -55 59 -47 0 -64 -8 -80 -41 -23 -44 -19 -103 10
-137 27 -33 76 -47 106 -31 28 15 14 29 -30 29 -49 0 -71 24 -71 78 0 32 6 45
27 62 27 21 44 22 51 2 2 -7 -5 -12 -15 -12 -26 0 -43 -19 -43 -50 0 -14 5
-31 12 -38 17 -17 77 -15 84 3 9 23 24 18 24 -8 0 -46 78 -89 120 -67 30 16
15 30 -30 30 -49 0 -73 30 -68 86 3 42 42 79 71 68 25 -9 21 -22 -9 -26 -36
-4 -51 -29 -38 -65 7 -22 17 -29 43 -31 18 -2 38 1 44 7 15 15 27 14 27 -3 0
-7 9 -25 20 -39 31 -39 120 -47 120 -11 0 10 -13 14 -44 14 -51 0 -76 24 -76
73 0 52 39 94 74 81 25 -9 19 -24 -9 -24 -34 0 -53 -39 -37 -76 11 -22 17 -25
55 -22 l42 3 3 48 c5 74 -25 109 -85 99z m-273 -87 c15 -18 6 -45 -15 -45 -18
0 -30 24 -21 45 7 19 20 19 36 0z m160 0 c15 -18 6 -45 -15 -45 -18 0 -30 24
-21 45 7 19 20 19 36 0z m168 -18 c4 -20 -25 -34 -40 -19 -15 15 -1 44 19 40
10 -2 19 -11 21 -21z"></path>
<path d="M1354 7375 c-4 -9 -2 -21 4 -27 15 -15 44 -1 40 19 -4 23 -36 29 -44
8z"></path>
<path d="M1354 7275 c-4 -9 -2 -21 4 -27 15 -15 44 -1 40 19 -4 23 -36 29 -44
8z"></path>
<path d="M2151 7094 c-83 -59 -40 -210 57 -202 52 4 54 28 3 28 -54 0 -81 26
-81 80 0 63 61 105 98 68 20 -20 26 1 7 22 -22 24 -53 26 -84 4z"></path>
<path d="M2306 7089 c-14 -11 -26 -27 -26 -35 0 -19 6 -18 30 6 22 22 60 26
78 8 9 -9 12 -9 12 3 0 41 -52 51 -94 18z"></path>
<path d="M2466 7089 c-25 -19 -35 -49 -18 -49 5 0 17 9 27 20 20 22 55 26 72
9 8 -8 13 -7 18 2 10 15 -21 39 -51 39 -12 0 -33 -9 -48 -21z"></path>
<path d="M2625 7085 c-25 -24 -32 -45 -17 -45 5 0 17 9 27 20 20 22 55 26 72
9 6 -6 17 -9 24 -7 21 7 -27 48 -56 48 -14 0 -37 -11 -50 -25z"></path>
<path d="M2786 7089 c-14 -11 -26 -27 -26 -35 0 -19 7 -18 37 6 29 22 58 26
69 9 13 -21 11 -79 -3 -91 -22 -18 -52 16 -36 41 14 23 5 35 -14 20 -36 -30 3
-93 54 -87 27 3 28 6 31 60 2 47 -1 61 -18 78 -26 26 -60 26 -94 -1z"></path>
<path d="M3909 7081 c-25 -25 -29 -37 -29 -81 0 -44 4 -56 30 -81 25 -26 36
-30 72 -27 30 2 43 7 43 18 0 11 -9 14 -37 12 -27 -3 -42 2 -57 17 -28 28 -29
93 -1 121 21 21 60 27 60 10 0 -5 -6 -10 -13 -10 -20 0 -47 -33 -47 -57 0 -31
33 -55 71 -51 l33 3 -3 60 c-2 37 -9 67 -18 78 -25 27 -70 21 -104 -12z m98
-67 c7 -19 -20 -49 -36 -40 -12 8 -15 39 -4 49 12 12 33 7 40 -9z"></path>
<path d="M1024 7059 c-3 -6 1 -18 10 -27 15 -15 17 -15 32 0 19 19 11 38 -16
38 -10 0 -22 -5 -26 -11z"></path>
<path d="M2973 7054 c-8 -21 13 -42 28 -27 13 13 5 43 -11 43 -6 0 -13 -7 -17
-16z"></path>
<path d="M2172 7038 c-17 -17 -15 -63 2 -77 17 -14 67 -11 66 4 -1 6 -12 9
-25 7 -30 -4 -44 22 -27 49 13 21 1 34 -16 17z"></path>
<path d="M2651 7031 c-15 -27 -14 -56 3 -70 17 -14 83 -11 76 4 -3 6 -17 9
-33 7 -32 -4 -46 21 -29 49 7 11 8 20 2 24 -5 3 -14 -3 -19 -14z"></path>
<path d="M2490 7024 c-10 -11 -11 -23 -4 -42 8 -22 17 -28 47 -30 20 -2 37 1
37 7 0 5 -15 11 -32 13 -30 3 -33 6 -32 36 2 37 1 38 -16 16z"></path>
<path d="M2320 6997 c0 -33 69 -63 85 -37 4 6 -7 10 -25 10 -23 0 -33 5 -37
20 -6 22 -23 27 -23 7z"></path>
<path d="M1030 6964 c-11 -12 -10 -18 3 -32 16 -15 18 -15 34 0 13 14 14 20 3
32 -7 9 -16 16 -20 16 -4 0 -13 -7 -20 -16z"></path>
<path d="M1194 6966 c-9 -24 4 -48 23 -44 12 2 18 12 18 28 0 29 -32 41 -41
16z"></path>
<path d="M2005 6961 c-8 -15 3 -31 21 -31 9 0 14 7 12 17 -4 20 -24 28 -33 14z"></path>
<path d="M2600 6955 c0 -9 11 -27 25 -41 20 -19 34 -24 62 -22 52 4 56 28 5
28 -31 0 -45 6 -60 25 -23 29 -32 32 -32 10z"></path>
<path d="M2760 6952 c0 -31 36 -55 83 -56 31 -1 42 3 42 14 0 11 -9 14 -36 12
-29 -3 -40 2 -57 22 -24 31 -32 33 -32 8z"></path>
<path d="M2975 6960 c-3 -5 -1 -19 5 -31 9 -15 9 -24 1 -32 -14 -14 -14 -27
-1 -27 19 0 42 49 36 75 -6 25 -29 34 -41 15z"></path>
<path d="M2280 6946 c0 -22 49 -56 80 -56 15 0 33 7 40 15 14 16 10 18 -37 15
-20 -1 -39 6 -52 19 -25 25 -31 26 -31 7z"></path>
<path d="M2440 6946 c0 -22 49 -56 80 -56 15 0 33 7 40 15 14 16 10 18 -35 15
-20 -1 -38 6 -49 19 -22 24 -36 27 -36 7z"></path>
<path d="M1650 6802 c0 -16 49 -54 60 -47 8 5 5 15 -11 31 -22 23 -49 32 -49
16z"></path>
<path d="M3294 6776 c-9 -23 0 -51 16 -51 10 0 15 10 15 29 0 32 -21 47 -31
22z"></path>
<path d="M1815 6757 c-51 -43 -41 -157 16 -187 29 -16 94 -9 94 10 0 11 -9 14
-31 12 -19 -2 -40 5 -57 18 -50 40 -26 140 33 140 11 0 20 -4 20 -10 0 -5 -6
-10 -13 -10 -20 0 -47 -33 -47 -57 0 -29 33 -55 67 -51 27 3 28 6 31 62 2 44
-1 63 -14 77 -23 26 -67 24 -99 -4z m93 -80 c4 -20 -25 -34 -40 -19 -15 15 -1
44 19 40 10 -2 19 -11 21 -21z"></path>
<path d="M1975 6755 c-21 -20 -25 -34 -25 -85 0 -52 4 -65 25 -86 20 -20 33
-25 68 -22 29 2 42 8 42 18 0 11 -9 14 -31 12 -19 -2 -40 5 -57 18 -53 42 -26
140 38 140 31 0 33 -17 3 -22 -13 -2 -29 -15 -36 -31 -12 -24 -11 -31 3 -53
13 -20 23 -25 48 -22 32 3 32 4 35 62 2 44 -1 63 -14 77 -24 27 -70 24 -99 -6z
m93 -78 c4 -20 -25 -34 -40 -19 -15 15 -1 44 19 40 10 -2 19 -11 21 -21z"></path>
<path d="M2139 6761 c-18 -15 -24 -30 -27 -82 -4 -58 -2 -67 22 -92 22 -24 33
-28 69 -25 29 2 42 8 42 18 0 11 -9 14 -32 12 -69 -7 -112 89 -62 139 20 20
71 24 69 4 -1 -5 -8 -9 -16 -7 -25 5 -44 -18 -44 -53 0 -39 19 -58 57 -53 27
3 28 5 31 68 2 52 0 67 -14 77 -25 19 -68 16 -95 -6z m89 -84 c4 -20 -25 -34
-40 -19 -15 15 -1 44 19 40 10 -2 19 -11 21 -21z"></path>
<path d="M2312 6773 c-22 -8 -42 -60 -42 -107 0 -33 6 -52 26 -76 23 -27 32
-31 68 -28 28 2 41 8 41 18 0 11 -9 14 -32 12 -25 -2 -39 3 -59 23 -23 23 -26
32 -21 68 3 23 14 47 23 54 21 15 64 17 64 3 0 -5 -8 -10 -18 -10 -27 0 -42
-20 -42 -56 0 -41 21 -57 67 -52 33 4 42 0 70 -29 28 -30 37 -34 75 -31 30 2
43 7 43 18 0 11 -9 14 -36 12 -71 -6 -114 74 -69 131 21 26 70 38 70 17 0 -5
-8 -10 -18 -10 -27 0 -42 -20 -42 -56 0 -41 21 -57 67 -52 33 4 42 0 70 -29
28 -30 37 -34 75 -31 30 2 43 7 43 18 0 10 -8 14 -25 12 -43 -5 -69 7 -86 39
-26 52 3 119 53 119 32 0 29 -13 -7 -27 -25 -10 -30 -17 -30 -46 0 -47 20 -61
75 -54 35 5 45 3 45 -7 0 -8 12 -24 27 -36 32 -25 108 -25 108 0 0 10 -8 14
-25 12 -46 -5 -71 7 -86 44 -23 54 5 114 53 114 29 0 30 -12 1 -25 -33 -15
-44 -39 -32 -72 9 -26 13 -28 62 -27 37 1 52 -2 52 -11 0 -8 12 -23 27 -35 32
-25 108 -25 108 0 0 11 -9 14 -35 12 -27 -2 -41 3 -59 22 -31 33 -32 93 -1
118 24 19 60 24 60 8 0 -5 -6 -10 -13 -10 -20 0 -47 -33 -47 -57 0 -42 82 -75
96 -38 9 22 24 18 24 -5 0 -12 11 -32 25 -46 20 -20 33 -25 68 -22 29 2 42 8
42 18 0 11 -9 14 -31 12 -19 -2 -40 5 -57 18 -50 40 -26 140 33 140 11 0 20
-4 20 -10 0 -5 -6 -10 -13 -10 -20 0 -47 -33 -47 -57 0 -31 33 -55 72 -51 l33
3 -4 60 c-4 69 -21 95 -63 95 -34 0 -78 -39 -78 -70 0 -11 -4 -20 -10 -20 -5
0 -10 13 -10 28 0 35 -27 62 -62 62 -29 0 -78 -35 -78 -56 0 -8 -4 -14 -10
-14 -5 0 -10 8 -10 18 0 27 -32 52 -67 52 -30 0 -73 -34 -73 -58 0 -22 -15
-12 -30 21 -12 25 -22 33 -49 35 -35 4 -81 -28 -81 -55 0 -7 -4 -13 -10 -13
-5 0 -10 7 -10 15 0 25 -38 55 -69 55 -42 0 -81 -49 -81 -101 0 -21 -4 -39
-10 -39 -6 0 -10 26 -10 58 0 32 -5 63 -12 70 -12 12 -62 15 -86 5z m76 -96
c4 -20 -25 -34 -40 -19 -15 15 -1 44 19 40 10 -2 19 -11 21 -21z m160 -1 c6
-29 -15 -43 -35 -24 -14 14 -14 20 -3 33 16 19 34 15 38 -9z m162 8 c11 -12
11 -18 -2 -31 -19 -18 -38 -10 -38 16 0 33 20 40 40 15z m160 0 c11 -12 11
-18 -2 -31 -19 -18 -38 -10 -38 16 0 33 20 40 40 15z m167 0 c7 -19 -20 -49
-36 -40 -12 8 -15 39 -4 49 12 12 33 7 40 -9z m160 0 c7 -19 -20 -49 -36 -40
-12 8 -15 39 -4 49 12 12 33 7 40 -9z"></path>
<path d="M5077 6634 c-14 -14 -7 -35 11 -32 9 2 17 10 17 17 0 16 -18 25 -28
15z"></path>
<path d="M4910 6615 c0 -10 7 -15 18 -13 21 4 19 22 -2 26 -10 2 -16 -3 -16
-13z"></path>
<path d="M5235 6621 c-7 -12 12 -24 25 -16 11 7 4 25 -10 25 -5 0 -11 -4 -15
-9z"></path>
<path d="M5397 6624 c-9 -10 2 -24 19 -24 8 0 14 7 14 15 0 15 -21 21 -33 9z"></path>
<path d="M4752 6428 c2 -18 8 -33 13 -33 6 0 11 15 13 33 3 24 -1 32 -13 32
-12 0 -16 -8 -13 -32z"></path>
<path d="M4920 6430 c0 -16 5 -30 10 -30 6 0 10 14 10 30 0 17 -4 30 -10 30
-5 0 -10 -13 -10 -30z"></path>
<path d="M5404 6447 c-7 -20 -2 -47 11 -50 14 -3 19 43 6 56 -7 7 -12 6 -17
-6z"></path>
<path d="M5564 6447 c-7 -20 -2 -47 11 -50 14 -3 19 43 6 56 -7 7 -12 6 -17
-6z"></path>
<path d="M5724 6447 c-7 -20 -2 -47 11 -50 14 -3 19 43 6 56 -7 7 -12 6 -17
-6z"></path>
<path d="M1657 6430 c-13 -11 -28 -31 -31 -45 -5 -21 -11 -24 -31 -19 -19 5
-25 2 -25 -11 0 -11 7 -15 22 -13 17 2 23 -4 30 -29 14 -55 77 -94 122 -77 28
11 19 34 -11 28 -64 -11 -109 53 -83 117 16 36 52 54 82 38 27 -14 38 -1 14
17 -27 20 -59 18 -89 -6z"></path>
<path d="M1822 6434 c-12 -8 -22 -22 -22 -30 0 -12 7 -11 32 7 29 21 33 22 59
7 33 -19 45 -12 22 14 -20 22 -61 23 -91 2z"></path>
<path d="M1983 6435 c-18 -13 -39 -55 -26 -55 3 0 18 11 35 25 34 29 50 31 68
10 11 -14 7 -19 -13 -16 -24 4 -47 -22 -47 -53 0 -41 16 -56 55 -52 29 3 30 5
33 61 2 43 -1 62 -14 76 -20 23 -62 25 -91 4z m82 -85 c0 -29 -32 -41 -41 -16
-9 24 4 48 23 44 12 -2 18 -12 18 -28z"></path>
<path d="M2943 6426 c-25 -21 -28 -31 -28 -81 0 -51 3 -59 33 -86 36 -32 68
-37 98 -14 22 17 23 16 -35 19 -45 2 -66 19 -77 61 -7 30 11 71 41 91 23 15
27 15 49 0 31 -20 44 -3 14 18 -32 23 -62 20 -95 -8z"></path>
<path d="M3105 6425 c-22 -21 -33 -45 -21 -45 3 0 17 11 32 25 31 28 56 32 74
10 7 -8 17 -12 22 -9 5 3 2 14 -8 25 -24 27 -70 24 -99 -6z"></path>
<path d="M3272 6434 c-12 -8 -22 -24 -22 -35 0 -20 2 -19 31 5 36 30 46 32 71
9 25 -22 36 -8 13 17 -22 24 -62 26 -93 4z"></path>
<path d="M3444 6440 c-45 -18 -57 -138 -18 -181 22 -24 79 -35 99 -19 21 18 9
30 -23 24 -19 -4 -36 1 -55 16 -24 19 -28 28 -25 68 2 36 9 49 31 66 40 29 62
13 62 -45 0 -34 -4 -44 -18 -47 -22 -4 -34 25 -19 49 18 28 14 34 -8 14 -39
-36 -13 -95 40 -90 23 1 25 6 28 59 4 84 -28 113 -94 86z"></path>
<path d="M1527 6423 c-4 -3 -7 -17 -7 -29 0 -16 -7 -24 -22 -26 -27 -4 -37
-28 -11 -28 25 1 77 55 70 75 -7 16 -19 19 -30 8z"></path>
<path d="M3142 6388 c-13 -13 -16 -38 -4 -38 4 0 13 9 19 20 14 22 2 35 -15
18z"></path>
<path d="M1682 6378 c-17 -17 -15 -42 6 -68 13 -17 24 -20 45 -15 15 4 24 11
22 16 -3 4 -11 6 -18 3 -7 -2 -21 2 -32 10 -17 13 -18 18 -7 35 6 12 12 23 12
26 0 9 -16 5 -28 -7z"></path>
<path d="M2972 6378 c-16 -16 -15 -39 3 -66 12 -16 24 -21 48 -18 42 4 41 20
-1 24 -35 4 -52 26 -33 45 6 6 11 15 11 19 0 12 -14 10 -28 -4z"></path>
<path d="M3297 6383 c-13 -12 -7 -70 7 -82 17 -14 68 -11 64 4 -2 6 -14 10
-28 10 -18 0 -26 6 -28 23 -2 13 2 30 8 38 10 11 9 14 -2 14 -8 0 -18 -3 -21
-7z"></path>
<path d="M1840 6370 c0 -5 5 -10 10 -10 6 0 10 5 10 10 0 6 -4 10 -10 10 -5 0
-10 -4 -10 -10z"></path>
<path d="M1524 6316 c-9 -24 12 -44 28 -28 10 10 8 16 -5 29 -15 15 -17 15
-23 -1z"></path>
<path d="M1842 6318 c6 -17 36 -34 44 -25 4 4 -1 14 -12 22 -23 18 -37 19 -32
3z"></path>
<path d="M3130 6321 c0 -16 26 -30 50 -27 14 1 25 6 25 12 0 5 -10 8 -22 6
-12 -1 -24 2 -28 8 -8 12 -25 13 -25 1z"></path>
<path d="M2170 6304 c-9 -10 -10 -18 -2 -26 12 -12 32 -2 32 17 0 21 -16 26
-30 9z"></path>
<path d="M1790 6297 c0 -19 41 -54 72 -62 26 -7 75 11 63 23 -3 3 -24 7 -47 7
-29 1 -46 7 -58 23 -21 25 -30 28 -30 9z"></path>
<path d="M1905 6300 c4 -6 11 -8 16 -5 14 9 11 15 -7 15 -8 0 -12 -5 -9 -10z"></path>
<path d="M1950 6299 c0 -6 13 -24 29 -40 33 -32 80 -39 101 -14 15 18 17 16
-39 19 -33 2 -48 8 -59 24 -15 23 -32 29 -32 11z"></path>
<path d="M3240 6301 c0 -4 9 -20 20 -34 24 -31 83 -46 105 -27 21 18 9 30 -24
24 -20 -4 -35 1 -58 20 -33 27 -43 32 -43 17z"></path>
<path d="M4585 6300 c-4 -7 -3 -16 3 -22 14 -14 45 -2 40 15 -6 16 -34 21 -43
7z"></path>
<path d="M5234 6299 c-10 -17 13 -36 27 -22 12 12 4 33 -11 33 -5 0 -12 -5
-16 -11z"></path>
<path d="M3080 6292 c0 -15 44 -50 72 -57 26 -7 75 11 63 23 -3 3 -23 7 -45 7
-21 1 -48 9 -58 18 -20 19 -32 22 -32 9z"></path>
<path d="M1841 6127 c-5 -13 -20 -27 -32 -30 -23 -6 -23 -6 -4 -27 19 -21 19
-22 -4 -39 -16 -12 -20 -21 -12 -25 6 -4 11 -18 11 -32 0 -32 18 -31 30 2 10
26 33 24 28 -3 -5 -26 21 -26 31 0 5 13 17 27 27 31 16 6 16 8 -1 26 -20 22
-13 40 16 40 23 0 25 13 4 30 -8 7 -14 19 -13 26 5 21 -16 18 -27 -5 -12 -27
-39 -29 -30 -2 9 29 -14 36 -24 8z m32 -88 c-17 -17 -37 -1 -22 17 8 10 15 12
23 4 7 -7 7 -13 -1 -21z"></path>
<path d="M4435 6137 c-9 -22 -2 -62 10 -60 6 1 11 14 13 29 4 32 -14 56 -23
31z"></path>
<path d="M5122 6137 c-19 -23 -92 -177 -92 -193 0 -8 5 -14 12 -12 15 5 109
206 98 213 -4 3 -12 -1 -18 -8z"></path>
<path d="M3259 6104 c-34 -36 -34 -121 0 -158 37 -40 121 -47 121 -10 0 10
-13 14 -44 14 -51 0 -76 24 -76 73 0 52 39 94 74 81 25 -9 19 -24 -9 -24 -32
0 -49 -38 -35 -75 8 -21 16 -25 54 -25 l44 0 -5 63 c-3 34 -10 68 -16 75 -18
22 -81 15 -108 -14z m99 -77 c4 -20 -25 -34 -40 -19 -15 15 -1 44 19 40 10 -2
19 -11 21 -21z"></path>
<path d="M1684 6085 c-4 -9 -2 -21 4 -27 15 -15 44 -1 40 19 -4 23 -36 29 -44
8z"></path>
<path d="M1675 5990 c-10 -17 20 -44 40 -36 9 3 15 14 13 23 -4 21 -43 30 -53
13z"></path>
<path d="M3134 5985 c-4 -9 -2 -21 4 -27 15 -15 44 -1 40 19 -4 23 -36 29 -44
8z"></path>
<path d="M4264 5985 c-4 -9 -2 -21 4 -27 15 -15 44 -1 40 19 -4 23 -36 29 -44
8z"></path>
<path d="M4153 5808 c-14 -18 -93 -186 -93 -198 0 -6 5 -10 10 -10 10 0 110
194 110 213 0 11 -17 8 -27 -5z"></path>
<path d="M4906 5792 c-26 -50 -30 -99 -12 -147 10 -24 24 -49 33 -57 15 -12
15 -10 9 17 -17 64 -18 144 -3 174 14 29 13 41 -4 41 -5 0 -15 -13 -23 -28z"></path>
<path d="M3735 5600 c-3 -5 0 -13 8 -16 23 -9 122 0 122 11 0 14 -122 19 -130
5z"></path>
<path d="M3895 5600 c-9 -15 17 -21 75 -18 32 2 55 8 58 16 5 15 -123 17 -133
2z"></path>
<path d="M4215 5600 c-3 -5 0 -12 7 -15 24 -8 133 0 133 10 0 14 -132 19 -140
5z"></path>
<path d="M4375 5600 c-3 -5 0 -13 8 -16 23 -8 127 0 130 11 3 14 -129 19 -138
5z"></path>
<path d="M4540 5595 c0 -13 11 -15 65 -13 87 4 88 22 3 26 -57 2 -68 0 -68
-13z"></path>
<path d="M4702 5598 c3 -9 25 -13 66 -13 85 0 84 19 -1 23 -53 2 -68 0 -65
-10z"></path>
<path d="M5025 5600 c-3 -5 0 -13 8 -16 23 -9 122 0 122 11 0 14 -122 19 -130
5z"></path>
<path d="M3930 5481 c13 -25 27 -34 41 -26 13 9 -18 45 -38 45 -10 0 -11 -5
-3 -19z"></path>
<path d="M2128 5484 c-5 -5 83 -198 96 -212 3 -2 9 -1 15 2 6 4 -10 47 -40
109 -48 99 -59 114 -71 101z"></path>
<path d="M3022 5477 c-27 -34 -101 -197 -91 -203 6 -3 12 -4 15 -2 15 16 101
208 95 213 -5 2 -13 -1 -19 -8z"></path>
<path d="M4115 5479 c-10 -25 -1 -239 10 -242 14 -3 19 233 6 246 -7 7 -12 5
-16 -4z"></path>
<path d="M4264 5476 c-10 -25 0 -61 19 -64 14 -3 17 4 17 37 0 30 -4 41 -15
41 -9 0 -18 -6 -21 -14z"></path>
<path d="M4395 5477 c-3 -7 -5 -52 -3 -98 l3 -84 60 0 c47 0 60 3 60 15 0 10
-13 17 -40 20 l-40 5 -5 74 c-3 47 -10 76 -17 79 -7 2 -15 -3 -18 -11z"></path>
<path d="M4594 5477 c-9 -25 0 -62 16 -62 10 0 15 10 15 34 0 36 -21 54 -31
28z"></path>
<path d="M4759 5487 c-4 -62 1 -248 7 -249 13 -4 17 233 4 246 -5 5 -10 7 -11
3z"></path>
<path d="M5080 5360 c0 -80 4 -130 10 -130 6 0 10 50 10 130 0 80 -4 130 -10
130 -6 0 -10 -50 -10 -130z"></path>
<path d="M2484 5470 c-35 -14 -54 -50 -54 -103 0 -40 5 -53 29 -78 29 -29 91
-42 91 -19 0 6 -13 10 -29 10 -79 0 -99 142 -24 171 19 7 32 6 49 -6 21 -14
24 -14 24 -1 0 16 -30 36 -52 35 -7 0 -23 -4 -34 -9z"></path>
<path d="M2643 5470 c-24 -10 -49 -48 -38 -58 4 -4 11 1 17 11 14 26 55 39 79
27 28 -16 23 -30 -11 -30 -31 0 -50 -22 -50 -58 0 -28 31 -52 65 -48 29 3 30
4 33 67 3 56 0 66 -19 81 -23 20 -42 21 -76 8z m72 -105 c0 -23 -5 -30 -19
-30 -24 0 -41 27 -33 49 4 11 15 16 29 14 18 -2 23 -9 23 -33z"></path>
<path d="M2492 5408 c-18 -18 -15 -63 6 -81 22 -20 76 -16 80 7 4 19 -2 20
-27 4 -28 -17 -53 -3 -49 29 3 25 6 28 40 26 26 -2 36 1 32 10 -6 17 -66 21
-82 5z"></path>
<path d="M2600 5327 c0 -29 45 -67 80 -67 16 0 30 5 30 10 0 6 -13 10 -29 10
-21 0 -37 9 -55 33 -19 24 -26 28 -26 14z"></path>
<path d="M2324 5319 c-8 -14 11 -33 25 -25 6 4 11 14 11 22 0 16 -26 19 -36 3z"></path>
<path d="M2810 5318 c0 -8 5 -19 12 -26 8 -8 8 -15 -2 -27 -17 -20 -5 -32 15
-15 22 18 16 74 -7 78 -10 2 -18 -3 -18 -10z"></path>
<path d="M5040 5081 l0 -101 60 0 c33 0 60 4 60 10 0 6 -20 10 -45 10 l-44 0
-3 87 c-2 58 -7 88 -15 91 -10 3 -13 -21 -13 -97z"></path>
<path d="M4110 5045 c0 -104 2 -125 15 -125 13 0 15 21 15 125 0 104 -2 125
-15 125 -13 0 -15 -21 -15 -125z"></path>
<path d="M4755 5045 c0 -93 3 -125 13 -125 9 0 12 32 12 125 0 93 -3 125 -12
125 -10 0 -13 -32 -13 -125z"></path>
<path d="M2459 5131 c-24 -24 -29 -38 -29 -78 0 -62 29 -101 83 -110 47 -7 50
12 2 21 -19 4 -41 17 -50 29 -35 50 -3 147 50 147 27 0 47 -22 43 -46 -2 -9 3
-19 9 -21 15 -5 7 53 -10 75 -18 22 -67 14 -98 -17z"></path>
<path d="M2625 5135 c-23 -23 -33 -45 -19 -45 3 0 15 11 26 25 20 26 62 34 74
13 12 -19 15 -96 4 -103 -17 -10 -11 -25 10 -25 18 0 20 7 20 63 0 49 -4 68
-18 80 -27 24 -69 21 -97 -8z"></path>
<path d="M2115 5090 c-4 -6 20 -10 64 -10 41 0 71 4 71 10 0 6 -28 10 -64 10
-36 0 -68 -4 -71 -10z"></path>
<path d="M2492 5088 c-16 -16 -15 -63 1 -76 21 -17 78 -20 84 -5 8 21 -3 26
-27 13 -41 -22 -67 25 -33 62 13 15 14 18 2 18 -8 0 -20 -5 -27 -12z"></path>
<path d="M2652 5088 c-17 -17 -15 -63 3 -78 19 -16 34 -5 17 12 -17 17 -15 38
5 60 13 15 14 18 2 18 -8 0 -20 -5 -27 -12z"></path>
<path d="M2920 5090 c0 -6 30 -10 70 -10 40 0 70 4 70 10 0 6 -30 10 -70 10
-40 0 -70 -4 -70 -10z"></path>
<path d="M4395 5060 c-3 -5 0 -13 8 -16 23 -8 92 0 92 11 0 14 -92 19 -100 5z"></path>
<path d="M2115 5040 c-8 -13 -12 -12 68 -14 48 -1 67 2 67 11 0 16 -125 18
-135 3z"></path>
<path d="M2922 5039 c5 -15 127 -19 130 -4 2 6 -27 11 -65 13 -51 2 -68 0 -65
-9z"></path>
<path d="M2600 5016 c0 -28 13 -47 41 -61 32 -17 69 -20 69 -5 0 6 -7 10 -15
10 -26 0 -75 29 -75 45 0 7 -4 17 -10 20 -5 3 -10 0 -10 -9z"></path>
<path d="M4594 5005 c-4 -9 -2 -21 5 -28 8 -8 7 -15 -5 -28 -8 -9 -11 -20 -6
-23 16 -10 44 31 40 60 -3 32 -25 44 -34 19z"></path>
<path d="M5056 4852 c-7 -11 31 -48 41 -38 4 3 -2 16 -14 27 -11 12 -23 17
-27 11z"></path>
<path d="M2168 4747 c-40 -82 -50 -109 -40 -119 9 -9 23 13 62 97 33 70 47
112 41 118 -6 6 -29 -28 -63 -96z"></path>
<path d="M2495 4839 c-10 -25 -1 -239 10 -242 14 -3 19 233 6 246 -7 7 -12 5
-16 -4z"></path>
<path d="M2929 4845 c-7 -6 99 -219 111 -223 19 -7 9 24 -40 126 -45 93 -58
111 -71 97z"></path>
<path d="M4117 4844 c-4 -4 -7 -23 -7 -41 0 -42 23 -41 28 1 4 29 -9 52 -21
40z"></path>
<path d="M4226 4842 c-8 -13 93 -207 110 -210 9 -2 15 0 12 5 -42 89 -102 204
-108 208 -5 3 -11 2 -14 -3z"></path>
<path d="M4410 4821 c0 -17 0 -34 -1 -38 0 -4 4 -9 10 -11 14 -5 15 65 1 73
-6 4 -10 -7 -10 -24z"></path>
<path d="M4591 4743 c-35 -72 -48 -110 -42 -116 7 -7 27 23 61 94 27 57 50
110 50 117 0 33 -22 3 -69 -95z"></path>
<path d="M2652 4720 c4 -161 22 -163 26 -2 2 105 0 122 -13 122 -13 0 -15 -17
-13 -120z"></path>
<path d="M4460 4805 c0 -19 5 -35 10 -35 6 0 10 16 10 35 0 19 -4 35 -10 35
-5 0 -10 -16 -10 -35z"></path>
<path d="M4920 4805 c0 -19 5 -35 10 -35 6 0 10 16 10 35 0 19 -4 35 -10 35
-5 0 -10 -16 -10 -35z"></path>
<path d="M3903 4727 c-7 -12 22 -18 68 -15 24 2 42 7 39 12 -6 12 -100 14
-107 3z"></path>
<path d="M3784 4675 c-4 -9 -2 -21 5 -28 8 -8 7 -15 -5 -28 -8 -9 -11 -20 -6
-23 16 -10 44 31 40 60 -3 32 -25 44 -34 19z"></path>
<path d="M4754 4675 c-4 -9 -2 -21 5 -28 8 -8 7 -15 -5 -28 -8 -9 -11 -20 -6
-23 16 -10 44 31 40 60 -3 32 -25 44 -34 19z"></path>
<path d="M5235 4681 c-8 -15 3 -31 21 -31 9 0 14 7 12 17 -4 20 -24 28 -33 14z"></path>
<path d="M4412 4514 c4 -20 34 -41 44 -31 8 8 -24 47 -38 47 -5 0 -8 -7 -6
-16z"></path>
<path d="M5216 4521 c-7 -10 32 -47 40 -38 7 7 -14 47 -26 47 -5 0 -11 -4 -14
-9z"></path>
<path d="M2495 4509 c-10 -25 -1 -239 10 -242 14 -3 19 233 6 246 -7 7 -12 5
-16 -4z"></path>
<path d="M2654 4507 c-2 -7 -3 -64 -2 -127 2 -80 7 -115 16 -118 9 -3 12 27
12 127 0 83 -4 131 -10 131 -6 0 -13 -6 -16 -13z"></path>
<path d="M3790 4491 c0 -17 0 -34 -1 -38 0 -4 4 -9 10 -11 14 -5 15 65 1 73
-6 4 -10 -7 -10 -24z"></path>
<path d="M3625 4351 c-3 -6 -1 -19 4 -30 8 -14 7 -22 -4 -31 -8 -7 -12 -17 -9
-22 12 -19 45 25 42 56 -3 30 -21 45 -33 27z"></path>
<path d="M4594 4346 c-3 -8 -3 -20 1 -25 3 -6 1 -20 -5 -31 -8 -16 -8 -20 3
-20 23 0 39 26 35 56 -3 31 -25 44 -34 20z"></path>
<path d="M4754 4345 c-4 -9 -2 -21 5 -28 8 -8 6 -15 -6 -29 -14 -16 -14 -18
-1 -18 23 0 40 26 36 56 -3 32 -25 43 -34 19z"></path>
<path d="M4905 4350 c-4 -7 -3 -16 3 -22 14 -14 45 -2 40 15 -6 16 -34 21 -43
7z"></path>
<path d="M5395 4351 c-8 -15 3 -31 21 -31 9 0 14 7 12 17 -4 20 -24 28 -33 14z"></path>
<path d="M2660 4070 c0 -85 4 -129 10 -125 6 4 10 57 10 125 0 68 -4 121 -10
125 -6 4 -10 -40 -10 -125z"></path>
<path d="M3630 4165 c0 -19 5 -35 10 -35 6 0 10 16 10 35 0 19 -4 35 -10 35
-5 0 -10 -16 -10 -35z"></path>
<path d="M4595 4187 c-9 -22 -2 -62 10 -60 6 1 11 14 13 29 4 32 -14 56 -23
31z"></path>
<path d="M4870 4190 c0 -6 23 -56 51 -111 34 -68 54 -98 60 -92 7 7 -6 44 -40
112 -45 89 -71 122 -71 91z"></path>
<path d="M5080 4070 c0 -80 4 -130 10 -130 6 0 10 50 10 130 0 80 -4 130 -10
130 -6 0 -10 -50 -10 -130z"></path>
<path d="M5405 4189 c-10 -25 -1 -239 10 -242 14 -3 19 233 6 246 -7 7 -12 5
-16 -4z"></path>
<path d="M4424 4125 c-4 -9 -2 -21 4 -27 15 -15 44 -1 40 19 -4 23 -36 29 -44
8z"></path>
<path d="M2488 4034 c-4 -3 -2 -14 4 -24 9 -14 9 -22 -1 -33 -9 -12 -9 -17 0
-23 17 -10 40 26 37 56 -3 24 -27 38 -40 24z"></path>
<path d="M3455 4030 c-4 -6 -1 -17 5 -25 10 -12 10 -18 0 -30 -19 -23 -3 -31
20 -10 13 12 20 29 18 44 -3 27 -31 40 -43 21z"></path>
<path d="M3945 4030 c-4 -6 -1 -17 5 -25 10 -12 10 -18 0 -30 -7 -9 -10 -18
-7 -22 13 -13 37 21 37 53 0 34 -21 47 -35 24z"></path>
<path d="M4265 4030 c-4 -6 -1 -17 5 -25 10 -12 10 -18 0 -30 -19 -23 -3 -31
20 -10 13 12 20 29 18 44 -3 27 -31 40 -43 21z"></path>
<path d="M4434 4015 c4 -16 2 -33 -5 -41 -16 -19 -3 -31 19 -18 25 16 23 78
-2 82 -16 3 -18 0 -12 -23z"></path>
<path d="M2760 3980 c0 -6 30 -10 70 -10 40 0 70 4 70 10 0 6 -30 10 -70 10
-40 0 -70 -4 -70 -10z"></path>
<path d="M2920 3980 c0 -6 30 -10 71 -10 44 0 68 4 64 10 -3 6 -35 10 -71 10
-36 0 -64 -4 -64 -10z"></path>
<path d="M3085 3980 c-4 -6 20 -10 65 -10 45 0 69 4 65 10 -3 6 -33 10 -65 10
-32 0 -62 -4 -65 -10z"></path>
<path d="M3250 3980 c0 -6 28 -10 65 -10 37 0 65 4 65 10 0 6 -28 10 -65 10
-37 0 -65 -4 -65 -10z"></path>
<path d="M2323 3843 c-36 -54 -15 -203 28 -203 7 0 8 7 4 18 -30 67 -29 125 1
200 10 23 -16 12 -33 -15z"></path>
<path d="M2457 3864 c-13 -13 5 -23 31 -18 19 4 33 0 42 -11 16 -19 5 -32 -30
-37 -34 -4 -31 -22 6 -28 24 -4 29 -10 29 -35 0 -28 -3 -30 -40 -32 -22 -1
-44 -2 -49 -2 -21 -2 19 -31 44 -31 59 0 103 68 65 100 -14 12 -14 15 1 31 15
17 15 20 0 44 -13 19 -25 25 -55 25 -21 0 -41 -3 -44 -6z"></path>
<path d="M2654 3857 c-2 -7 -3 -64 -2 -127 2 -80 7 -115 16 -118 9 -3 12 27
12 127 0 83 -4 131 -10 131 -6 0 -13 -6 -16 -13z"></path>
<path d="M2770 3863 c0 -19 100 -213 110 -213 5 0 10 5 10 10 0 19 -100 210
-110 210 -6 0 -10 -3 -10 -7z"></path>
<path d="M3786 3774 c-48 -100 -53 -114 -36 -114 8 0 110 189 110 205 0 3 -6
5 -14 5 -7 0 -34 -43 -60 -96z"></path>
<path d="M3950 3740 c0 -80 4 -130 10 -130 6 0 10 50 10 130 0 80 -4 130 -10
130 -6 0 -10 -50 -10 -130z"></path>
<path d="M4106 3767 c-51 -104 -53 -112 -36 -112 7 0 110 196 110 211 0 2 -6
4 -12 4 -7 0 -35 -46 -62 -103z"></path>
<path d="M4270 3835 c0 -24 5 -35 15 -35 10 0 15 11 15 35 0 24 -5 35 -15 35
-10 0 -15 -11 -15 -35z"></path>
<path d="M5080 3745 c0 -77 4 -125 10 -125 6 0 10 48 10 125 0 77 -4 125 -10
125 -6 0 -10 -48 -10 -125z"></path>
<path d="M5402 3746 c4 -166 23 -170 23 -4 0 90 -3 122 -13 126 -10 3 -12 -23
-10 -122z"></path>
<path d="M3570 3650 c0 -6 28 -10 65 -10 37 0 65 4 65 10 0 6 -28 10 -65 10
-37 0 -65 -4 -65 -10z"></path>
<path d="M4860 3650 c0 -6 28 -10 65 -10 37 0 65 4 65 10 0 6 -28 10 -65 10
-37 0 -65 -4 -65 -10z"></path>
<path d="M3950 3415 c0 -83 4 -135 10 -135 6 0 10 52 10 135 0 83 -4 135 -10
135 -6 0 -10 -52 -10 -135z"></path>
<path d="M2495 3529 c-10 -25 -1 -239 10 -242 14 -3 19 233 6 246 -7 7 -12 5
-16 -4z"></path>
<path d="M2656 3533 c-3 -3 -6 -60 -6 -125 0 -98 3 -118 15 -118 12 0 15 20
15 119 0 109 -6 142 -24 124z"></path>
<path d="M2812 3438 c-47 -94 -56 -128 -31 -112 8 4 64 113 107 207 2 4 -3 7
-11 7 -9 0 -35 -42 -65 -102z"></path>
<path d="M3300 3505 c0 -25 4 -35 13 -32 6 2 12 16 12 32 0 16 -6 30 -12 33
-9 2 -13 -8 -13 -33z"></path>
<path d="M3460 3505 c0 -25 4 -35 13 -32 6 2 12 16 12 32 0 16 -6 30 -12 33
-9 2 -13 -8 -13 -33z"></path>
<path d="M4594 3526 c-8 -21 -1 -49 14 -54 8 -2 12 8 12 32 0 36 -16 49 -26
22z"></path>
<path d="M4754 3526 c-8 -21 -1 -49 14 -54 8 -2 12 8 12 32 0 36 -16 49 -26
22z"></path>
<path d="M5350 3536 c0 -7 92 -192 102 -203 6 -7 14 -10 19 -7 12 7 -93 214
-108 214 -7 0 -13 -2 -13 -4z"></path>
<path d="M5512 3533 c40 -89 98 -202 106 -207 26 -16 17 16 -29 109 -27 55
-57 102 -65 103 -9 2 -15 0 -12 -5z"></path>
<path d="M4215 3481 c-5 -9 54 -41 76 -41 4 0 11 -4 14 -10 3 -5 -15 -15 -40
-21 -48 -12 -62 -23 -44 -34 15 -10 129 37 129 53 0 21 -124 70 -135 53z"></path>
<path d="M3100 3420 c0 -5 23 -10 50 -10 28 0 50 5 50 10 0 6 -22 10 -50 10
-27 0 -50 -4 -50 -10z"></path>
<path d="M4395 3420 c-4 -6 15 -10 49 -10 31 0 56 5 56 10 0 6 -22 10 -49 10
-28 0 -53 -4 -56 -10z"></path>
<path d="M2973 3374 c-3 -8 -1 -20 6 -27 8 -8 7 -15 -5 -28 -11 -12 -12 -19
-4 -24 15 -9 37 11 44 41 10 40 -27 74 -41 38z"></path>
<path d="M5233 3374 c-3 -8 -1 -20 6 -27 8 -8 7 -15 -5 -28 -11 -12 -12 -19
-4 -24 15 -9 37 11 44 41 10 40 -27 74 -41 38z"></path>
<path d="M5025 3332 c-13 -14 14 -22 71 -22 45 0 64 4 62 11 -4 11 -123 20
-133 11z"></path>
<path d="M2495 3219 c-10 -25 -1 -239 10 -242 14 -3 19 233 6 246 -7 7 -12 5
-16 -4z"></path>
<path d="M2654 3217 c-2 -7 -3 -64 -2 -127 2 -80 7 -115 16 -118 9 -3 12 27
12 127 0 83 -4 131 -10 131 -6 0 -13 -6 -16 -13z"></path>
<path d="M2814 3216 c-8 -22 -1 -59 14 -64 8 -2 12 8 12 32 0 37 -16 57 -26
32z"></path>
<path d="M4227 3224 c-8 -8 92 -209 103 -209 15 0 13 8 -34 109 -42 90 -57
112 -69 100z"></path>
<path d="M5565 3217 c-9 -22 -2 -62 10 -60 6 1 11 14 13 29 4 32 -14 56 -23
31z"></path>
<path d="M4920 3185 c0 -19 5 -35 10 -35 6 0 10 16 10 35 0 19 -4 35 -10 35
-5 0 -10 -16 -10 -35z"></path>
<path d="M3895 3141 c-3 -5 -2 -11 2 -13 15 -8 123 4 123 13 0 12 -117 12
-125 0z"></path>
<path d="M4055 3140 c-4 -6 20 -10 65 -10 45 0 69 4 65 10 -3 6 -33 10 -65 10
-32 0 -62 -4 -65 -10z"></path>
<path d="M4717 3114 c-14 -15 6 -24 54 -24 36 0 49 4 47 13 -5 13 -89 23 -101
11z"></path>
<path d="M3952 3092 c-36 -2 -60 -7 -57 -12 8 -13 122 -13 130 -1 8 14 -4 16
-73 13z"></path>
<path d="M4112 3092 c-36 -2 -60 -7 -57 -12 8 -13 122 -13 130 -1 8 14 -4 16
-73 13z"></path>
<path d="M4594 3055 c-4 -9 -2 -21 5 -28 8 -8 6 -15 -6 -29 -14 -16 -14 -18
-1 -18 23 0 40 26 36 56 -3 32 -25 43 -34 19z"></path>
<path d="M5395 3060 c-4 -6 -1 -17 5 -25 10 -12 10 -18 0 -30 -7 -9 -10 -18
-7 -21 12 -12 35 5 41 31 10 38 -22 73 -39 45z"></path>
<path d="M2495 2889 c-10 -25 -1 -239 10 -242 14 -3 19 233 6 246 -7 7 -12 5
-16 -4z"></path>
<path d="M2655 2889 c-10 -25 -1 -239 10 -242 14 -3 19 233 6 246 -7 7 -12 5
-16 -4z"></path>
<path d="M3950 2770 c0 -80 4 -130 10 -130 6 0 10 50 10 130 0 80 -4 130 -10
130 -6 0 -10 -50 -10 -130z"></path>
<path d="M4377 2893 c-3 -4 8 -48 23 -98 18 -60 33 -91 44 -93 9 -2 18 2 20
10 2 7 16 49 30 92 14 44 23 83 20 88 -13 21 -29 -3 -43 -66 -9 -37 -20 -68
-26 -69 -5 -1 -16 29 -25 67 -14 63 -30 90 -43 69z"></path>
<path d="M4709 2895 c-6 -5 83 -191 98 -206 28 -28 16 15 -28 109 -45 93 -57
110 -70 97z"></path>
<path d="M5247 2893 c-11 -11 -8 -253 3 -253 6 0 10 50 10 130 0 72 -1 130 -3
130 -2 0 -7 -3 -10 -7z"></path>
<path d="M5075 2730 c-4 -6 -1 -18 6 -26 9 -11 8 -18 -6 -34 -15 -17 -16 -20
-3 -20 23 0 40 26 36 56 -3 29 -22 42 -33 24z"></path>
<path d="M4890 2572 c0 -13 39 -46 46 -39 9 9 -16 47 -31 47 -8 0 -15 -4 -15
-8z"></path>
<path d="M2495 2559 c-10 -25 -1 -239 10 -242 14 -3 19 233 6 246 -7 7 -12 5
-16 -4z"></path>
<path d="M2655 2558 c-3 -8 -4 -66 -3 -129 2 -86 6 -114 16 -114 17 0 20 247
3 253 -6 2 -13 -3 -16 -10z"></path>
<path d="M3950 2440 c0 -80 4 -130 10 -130 6 0 10 50 10 130 0 80 -4 130 -10
130 -6 0 -10 -50 -10 -130z"></path>
<path d="M4759 2567 c-4 -62 1 -248 7 -249 13 -4 17 233 4 246 -5 5 -10 7 -11
3z"></path>
<path d="M5240 2440 c0 -80 4 -130 10 -130 6 0 10 50 10 130 0 80 -4 130 -10
130 -6 0 -10 -50 -10 -130z"></path>
<path d="M3950 2125 c0 -83 4 -135 10 -135 6 0 10 52 10 135 0 83 -4 135 -10
135 -6 0 -10 -52 -10 -135z"></path>
<path d="M2495 2239 c-10 -25 -1 -239 10 -242 14 -3 19 233 6 246 -7 7 -12 5
-16 -4z"></path>
<path d="M2656 2243 c-3 -3 -6 -60 -6 -125 0 -98 3 -118 15 -118 12 0 15 20
15 119 0 109 -6 142 -24 124z"></path>
<path d="M4760 2248 c-5 -48 0 -248 6 -248 5 0 10 56 12 125 2 81 -1 125 -8
125 -5 0 -10 -1 -10 -2z"></path>
<path d="M5350 2246 c0 -7 92 -192 102 -203 6 -7 14 -10 19 -7 12 7 -93 214
-108 214 -7 0 -13 -2 -13 -4z"></path>
<path d="M2654 1917 c-2 -7 -3 -67 -2 -132 2 -84 7 -120 16 -123 9 -3 12 28
12 132 0 87 -4 136 -10 136 -6 0 -13 -6 -16 -13z"></path>
<path d="M3950 1795 c0 -83 4 -135 10 -135 6 0 10 52 10 135 0 83 -4 135 -10
135 -6 0 -10 -52 -10 -135z"></path>
<path d="M4710 1916 c0 -28 101 -219 111 -209 6 6 -10 50 -42 116 -47 99 -69
129 -69 93z"></path>
<path d="M5517 1923 c-5 -8 85 -199 102 -216 5 -5 11 -5 14 0 5 8 -85 199
-102 216 -5 5 -11 5 -14 0z"></path>
<path d="M2495 1909 c-10 -26 -1 -234 10 -232 13 4 19 223 6 236 -7 7 -12 5
-16 -4z"></path>
<path d="M2495 1589 c-10 -25 -1 -239 10 -242 14 -3 19 233 6 246 -7 7 -12 5
-16 -4z"></path>
<path d="M3950 1470 c0 -80 4 -130 10 -130 6 0 10 50 10 130 0 80 -4 130 -10
130 -6 0 -10 -50 -10 -130z"></path>
<path d="M5677 1594 c-13 -13 98 -219 112 -209 10 5 -80 198 -97 209 -5 3 -12
3 -15 0z"></path>
<path d="M2652 1470 c4 -161 22 -163 26 -2 2 105 0 122 -13 122 -13 0 -15 -17
-13 -120z"></path>
<path d="M4920 1465 c0 -77 4 -125 10 -125 6 0 10 48 10 125 0 77 -4 125 -10
125 -6 0 -10 -48 -10 -125z"></path>
<path d="M2495 1269 c-10 -25 -1 -239 10 -242 14 -3 19 233 6 246 -7 7 -12 5
-16 -4z"></path>
<path d="M2655 1268 c-3 -8 -4 -66 -3 -129 2 -86 6 -114 16 -114 17 0 20 247
3 253 -6 2 -13 -3 -16 -10z"></path>
<path d="M3950 1150 c0 -80 4 -130 10 -130 6 0 10 50 10 130 0 80 -4 130 -10
130 -6 0 -10 -50 -10 -130z"></path>
<path d="M5030 1275 c0 -4 23 -55 50 -113 35 -71 54 -102 61 -95 12 12 -78
204 -99 211 -7 2 -12 0 -12 -3z"></path>
<path d="M5725 1267 c-9 -22 -2 -62 10 -60 6 1 11 14 13 29 4 32 -14 56 -23
31z"></path>
<path d="M5525 1160 c-3 -5 0 -13 8 -16 23 -8 92 0 92 11 0 14 -92 19 -100 5z"></path>
<path d="M5395 1110 c-4 -6 -1 -17 5 -25 10 -12 10 -18 0 -30 -7 -9 -10 -19
-6 -23 12 -11 47 39 44 62 -3 23 -32 34 -43 16z"></path>
<path d="M5185 1061 c-9 -15 5 -18 69 -17 37 1 61 6 64 14 5 15 -123 17 -133
3z"></path>
<path d="M2495 939 c-10 -25 -1 -239 10 -242 14 -3 19 233 6 246 -7 7 -12 5
-16 -4z"></path>
<path d="M2655 939 c-10 -25 -1 -239 10 -242 14 -3 19 233 6 246 -7 7 -12 5
-16 -4z"></path>
<path d="M3950 820 c0 -80 4 -130 10 -130 6 0 10 50 10 130 0 80 -4 130 -10
130 -6 0 -10 -50 -10 -130z"></path>
<path d="M5210 915 c0 -24 5 -35 15 -35 10 0 15 11 15 35 0 24 -5 35 -15 35
-10 0 -15 -11 -15 -35z"></path>
<path d="M5266 943 c-13 -13 -6 -63 9 -63 10 0 15 10 15 29 0 30 -12 46 -24
34z"></path>
<path d="M5400 941 c0 -5 7 -25 15 -44 19 -46 19 -94 0 -131 -18 -33 -19 -46
-4 -46 16 0 39 66 39 115 0 49 -23 115 -39 115 -6 0 -11 -4 -11 -9z"></path>
<path d="M5672 943 c2 -4 23 -48 46 -98 47 -98 60 -117 73 -110 12 8 -89 209
-107 213 -9 2 -14 0 -12 -5z"></path>
<path d="M4877 834 c-14 -15 7 -24 54 -24 37 0 49 4 49 15 0 11 -12 15 -48 15
-27 0 -52 -3 -55 -6z"></path>
<path d="M5040 825 c0 -13 10 -15 50 -13 67 4 69 22 3 26 -43 2 -53 0 -53 -13z"></path>
<path d="M4594 765 c4 -15 2 -33 -4 -40 -8 -10 -8 -15 1 -21 17 -10 40 26 37
56 -2 15 -10 26 -22 28 -16 3 -18 0 -12 -23z"></path>
<path d="M4750 776 c0 -8 5 -18 11 -21 7 -5 5 -13 -6 -25 -20 -22 -2 -38 21
-19 21 17 15 73 -8 77 -11 2 -18 -3 -18 -12z"></path>
<path d="M4055 730 c-4 -6 20 -10 64 -10 41 0 71 4 71 10 0 6 -28 10 -64 10
-36 0 -68 -4 -71 -10z"></path>
<path d="M4220 730 c0 -6 28 -10 65 -10 37 0 65 4 65 10 0 6 -28 10 -65 10
-37 0 -65 -4 -65 -10z"></path>
<path d="M4380 730 c0 -6 28 -10 65 -10 37 0 65 4 65 10 0 6 -28 10 -65 10
-37 0 -65 -4 -65 -10z"></path>
<path d="M5510 730 c0 -6 28 -10 65 -10 37 0 65 4 65 10 0 6 -28 10 -65 10
-37 0 -65 -4 -65 -10z"></path>
<path d="M2496 613 c-3 -3 -6 -60 -6 -125 0 -98 3 -118 15 -118 12 0 15 20 15
119 0 109 -6 142 -24 124z"></path>
<path d="M2654 607 c-2 -7 -3 -64 -2 -127 2 -80 7 -115 16 -118 9 -3 12 27 12
127 0 83 -4 131 -10 131 -6 0 -13 -6 -16 -13z"></path>
<path d="M4272 495 c4 -168 22 -170 26 -2 2 110 0 127 -13 127 -13 0 -15 -17
-13 -125z"></path>
<path d="M4594 607 c-2 -7 -3 -64 -2 -125 4 -155 22 -146 26 13 2 83 -1 125
-8 125 -6 0 -13 -6 -16 -13z"></path>
<path d="M5719 519 c-34 -70 -47 -105 -40 -112 7 -7 26 23 61 94 53 110 56
119 40 119 -5 0 -33 -46 -61 -101z"></path>
<path d="M5211 551 c-12 -12 -21 -34 -21 -51 0 -59 78 -104 110 -65 13 16 9
18 -28 15 -32 -2 -52 17 -52 50 0 34 21 53 54 48 14 -2 26 2 28 7 2 6 -14 11
-34 13 -27 2 -43 -3 -57 -17z"></path>
<path d="M5370 548 c-41 -43 -5 -128 55 -128 12 0 28 7 35 15 13 16 9 18 -28
15 -32 -2 -52 17 -52 50 0 34 21 53 54 48 14 -2 26 2 28 7 2 6 -13 11 -34 13
-27 2 -41 -2 -58 -20z"></path>
<path d="M5532 547 c-26 -27 -28 -63 -7 -94 19 -27 70 -39 91 -22 19 16 11 23
-28 23 -39 1 -56 25 -42 63 7 22 16 28 39 29 43 1 47 18 5 22 -27 2 -41 -3
-58 -21z"></path>
<path d="M4380 400 c0 -6 28 -10 64 -10 36 0 68 5 71 10 4 6 -20 10 -64 10
-41 0 -71 -4 -71 -10z"></path>
<path d="M4591 203 c-35 -72 -48 -110 -42 -116 7 -7 27 23 61 94 27 57 50 110
50 117 0 33 -22 3 -69 -95z"></path>
<path d="M2500 276 c0 -9 5 -16 10 -16 6 0 10 4 10 9 0 6 -4 13 -10 16 -5 3
-10 -1 -10 -9z"></path>
<path d="M2657 284 c-3 -3 -3 -12 0 -20 4 -10 -4 -14 -28 -14 l-34 0 25 -19
c21 -16 22 -21 11 -35 -19 -23 -5 -33 17 -13 17 15 19 15 35 0 20 -21 35 -10
16 13 -11 14 -10 18 9 33 13 9 20 20 16 24 -4 4 -13 2 -20 -4 -11 -9 -16 -5
-24 15 -10 27 -13 30 -23 20z"></path>
<path d="M4085 235 c-50 -49 -17 -129 51 -123 19 2 34 8 34 13 -1 6 -10 9 -21
8 -34 -5 -59 15 -59 46 0 34 20 53 52 51 37 -3 41 -1 28 15 -19 22 -58 18 -85
-10z"></path>
<path d="M4245 236 c-31 -31 -32 -65 -4 -100 17 -22 28 -26 55 -24 19 2 34 8
34 13 -1 6 -11 9 -22 7 -43 -5 -76 56 -46 86 7 7 27 12 46 12 43 0 38 24 -6
28 -23 2 -38 -4 -57 -22z"></path>
<path d="M4410 242 c-53 -43 -19 -136 47 -130 18 2 32 8 31 13 -2 6 -12 9 -24
7 -11 -1 -29 7 -39 18 -15 16 -17 26 -9 48 8 22 16 28 47 30 45 4 45 25 0 30
-18 2 -39 -4 -53 -16z"></path>
<path d="M2460 241 c0 -5 7 -12 16 -15 16 -6 16 -8 0 -25 -21 -23 -8 -36 16
-14 17 15 19 15 32 -2 8 -12 15 -14 20 -7 3 6 2 13 -4 17 -15 10 -12 35 5 35
8 0 15 5 15 10 0 13 -17 13 -25 0 -4 -6 -11 -8 -16 -4 -17 10 -59 14 -59 5z"></path>
</g>
</svg>