<?xml version="1.0" standalone="no"?>
<!DOCTYPE svg PUBLIC "-//W3C//DTD SVG 20010904//EN"
 "http://www.w3.org/TR/2001/REC-SVG-20010904/DTD/svg10.dtd">
<svg version="1.0" xmlns="http://www.w3.org/2000/svg"
 width="575.000000pt" height="912.000000pt" viewBox="0 0 575.000000 912.000000"
 preserveAspectRatio="xMidYMid meet">

<g transform="translate(0.000000,912.000000) scale(0.100000,-0.100000)"
fill="#000000" stroke="none">
<path d="M2980 8750 c0 -16 5 -30 10 -30 6 0 10 14 10 30 0 17 -4 30 -10 30
-5 0 -10 -13 -10 -30z"/>
<path d="M1225 8745 c-55 -54 -16 -160 57 -153 17 2 34 9 36 17 3 10 -1 12
-18 8 -33 -9 -69 9 -76 38 -9 35 3 72 25 85 20 10 51 4 51 -11 0 -4 -7 -6 -15
-3 -35 14 -61 -46 -33 -74 7 -7 25 -12 40 -12 27 0 28 1 28 55 0 43 -4 56 -19
65 -30 16 -50 12 -76 -15z m75 -66 c0 -23 -28 -26 -37 -3 -6 16 15 37 29 28 4
-3 8 -14 8 -25z"/>
<path d="M1363 8755 c-49 -34 -34 -147 21 -161 33 -8 58 -2 64 15 3 10 -1 12
-18 8 -47 -12 -86 32 -75 84 7 32 38 51 65 41 11 -4 8 -8 -9 -12 -35 -8 -48
-33 -33 -64 9 -20 19 -26 42 -26 30 0 30 1 30 53 0 29 -5 58 -12 65 -16 16
-49 15 -75 -3z m70 -81 c-6 -16 -29 -19 -38 -4 -4 6 -1 17 5 26 15 18 42 0 33
-22z"/>
<path d="M1498 8760 c-22 -13 -41 -72 -33 -103 10 -38 48 -69 81 -65 15 2 30
9 32 17 3 10 -2 12 -21 7 -31 -7 -63 18 -73 56 -8 34 34 82 63 71 16 -6 15 -8
-7 -13 -21 -5 -25 -12 -25 -45 0 -39 1 -40 38 -43 l37 -3 0 43 c0 72 -41 107
-92 78z m68 -89 c-11 -18 -36 -13 -36 7 0 10 3 22 7 26 10 10 37 -20 29 -33z"/>
<path d="M1622 8747 c-33 -35 -31 -109 4 -136 29 -23 60 -27 84 -11 17 11 17
11 -28 15 -46 4 -62 21 -62 66 0 30 5 42 26 55 24 16 26 16 42 0 16 -16 16
-17 -1 -10 -22 8 -47 -12 -47 -40 0 -30 18 -46 52 -46 27 0 28 2 28 49 0 78
-51 108 -98 58z m76 -66 c-5 -24 -38 -27 -38 -3 0 10 3 21 6 25 11 11 35 -5
32 -22z"/>
<path d="M1755 8745 c-55 -54 -16 -160 57 -153 17 2 34 9 36 17 3 10 -1 12
-18 8 -33 -9 -69 9 -76 38 -9 35 3 72 25 85 20 10 51 4 51 -11 0 -4 -7 -6 -15
-3 -35 14 -61 -46 -33 -74 7 -7 25 -12 40 -12 27 0 28 1 28 55 0 43 -4 56 -19
65 -30 16 -50 12 -76 -15z m75 -66 c0 -23 -28 -26 -37 -3 -6 16 15 37 29 28 4
-3 8 -14 8 -25z"/>
<path d="M1893 8755 c-49 -34 -34 -147 21 -161 33 -8 58 -2 64 15 3 10 -1 12
-18 8 -47 -12 -86 32 -75 84 7 32 38 51 65 41 11 -4 8 -8 -9 -12 -35 -8 -48
-33 -33 -64 9 -20 19 -26 42 -26 30 0 30 1 30 53 0 29 -5 58 -12 65 -16 16
-49 15 -75 -3z m70 -81 c-6 -16 -29 -19 -38 -4 -4 6 -1 17 5 26 15 18 42 0 33
-22z"/>
<path d="M2028 8760 c-22 -13 -41 -72 -33 -103 10 -38 48 -69 81 -65 15 2 30
9 32 17 3 10 -2 12 -21 7 -31 -7 -63 18 -73 56 -8 34 34 82 63 71 16 -6 15 -8
-7 -13 -21 -5 -25 -12 -25 -45 0 -39 1 -40 38 -43 l37 -3 0 43 c0 72 -41 107
-92 78z m68 -89 c-11 -18 -36 -13 -36 7 0 10 3 22 7 26 10 10 37 -20 29 -33z"/>
<path d="M2152 8747 c-33 -35 -31 -109 4 -136 29 -23 60 -27 84 -11 17 11 17
11 -28 15 -46 4 -62 21 -62 66 0 30 5 42 26 55 24 16 26 16 42 0 16 -16 16
-17 -1 -10 -22 8 -47 -12 -47 -40 0 -30 18 -46 52 -46 27 0 28 2 28 49 0 78
-51 108 -98 58z m76 -66 c-5 -24 -38 -27 -38 -3 0 10 3 21 6 25 11 11 35 -5
32 -22z"/>
<path d="M2285 8745 c-55 -54 -16 -160 57 -153 17 2 34 9 36 17 3 10 -1 12
-18 8 -33 -9 -69 9 -76 38 -9 35 3 72 25 85 20 10 51 4 51 -11 0 -4 -7 -6 -15
-3 -35 14 -61 -46 -33 -74 7 -7 25 -12 40 -12 27 0 28 1 28 55 0 43 -4 56 -19
65 -30 16 -50 12 -76 -15z m75 -66 c0 -23 -28 -26 -37 -3 -6 16 15 37 29 28 4
-3 8 -14 8 -25z"/>
<path d="M2423 8755 c-49 -34 -34 -147 21 -161 33 -8 58 -2 64 15 3 10 -1 12
-18 8 -47 -12 -86 32 -75 84 7 32 38 51 65 41 11 -4 8 -8 -9 -12 -35 -8 -48
-33 -33 -64 9 -20 19 -26 42 -26 30 0 30 1 30 53 0 29 -5 58 -12 65 -16 16
-49 15 -75 -3z m70 -81 c-6 -16 -29 -19 -38 -4 -4 6 -1 17 5 26 15 18 42 0 33
-22z"/>
<path d="M2558 8760 c-22 -13 -41 -72 -33 -103 10 -38 48 -69 81 -65 15 2 30
9 32 17 3 10 -2 12 -21 7 -31 -7 -63 18 -73 56 -8 34 34 82 63 71 16 -6 15 -8
-7 -13 -21 -5 -25 -12 -25 -45 0 -39 1 -40 38 -43 l37 -3 0 43 c0 72 -41 107
-92 78z m68 -89 c-11 -18 -36 -13 -36 7 0 10 3 22 7 26 10 10 37 -20 29 -33z"/>
<path d="M2682 8747 c-33 -35 -31 -109 4 -136 29 -23 60 -27 84 -11 17 11 17
11 -28 15 -46 4 -62 21 -62 66 0 30 5 42 26 55 24 16 26 16 42 0 16 -16 16
-17 -1 -10 -22 8 -47 -12 -47 -40 0 -30 18 -46 52 -46 27 0 28 2 28 49 0 78
-51 108 -98 58z m76 -66 c-5 -24 -38 -27 -38 -3 0 10 3 21 6 25 11 11 35 -5
32 -22z"/>
<path d="M2815 8745 c-55 -54 -16 -160 57 -153 17 2 34 9 36 17 3 10 -1 12
-18 8 -33 -9 -69 9 -76 38 -9 35 3 72 25 85 20 10 51 4 51 -11 0 -4 -7 -6 -15
-3 -35 14 -61 -46 -33 -74 7 -7 25 -12 40 -12 27 0 28 1 28 55 0 43 -4 56 -19
65 -30 16 -50 12 -76 -15z m75 -66 c0 -23 -28 -26 -37 -3 -6 16 15 37 29 28 4
-3 8 -14 8 -25z"/>
<path d="M1117 8644 c-4 -4 -2 -13 4 -21 9 -10 8 -17 -1 -28 -7 -8 -8 -15 -2
-15 16 0 34 28 30 46 -3 19 -20 28 -31 18z"/>
<path d="M3500 8230 c0 -11 -7 -20 -15 -20 -17 0 -20 -16 -5 -25 13 -8 1 -35
-16 -35 -8 0 -14 -4 -14 -10 0 -5 5 -10 10 -10 6 0 10 -9 10 -20 0 -11 4 -20
9 -20 5 0 11 9 14 20 3 11 10 20 17 20 7 0 9 -8 5 -20 -5 -14 -2 -20 9 -20 9
0 16 9 16 20 0 11 7 20 15 20 8 0 15 5 15 10 0 6 -4 10 -10 10 -15 0 -12 17 7
36 12 11 14 19 6 21 -6 2 -9 13 -6 23 7 26 -14 26 -22 0 -3 -11 -11 -20 -17
-20 -6 0 -8 9 -5 20 3 13 0 20 -9 20 -8 0 -14 -9 -14 -20z m21 -73 c-8 -8 -11
-7 -11 4 0 20 13 34 18 19 3 -7 -1 -17 -7 -23z"/>
<path d="M692 8217 c-33 -35 -31 -109 4 -136 29 -23 60 -27 84 -11 17 11 17
11 -28 15 -46 4 -62 21 -62 66 0 30 5 42 26 55 24 16 26 16 42 0 16 -16 16
-17 -1 -10 -22 8 -47 -12 -47 -40 0 -30 18 -46 52 -46 27 0 28 2 28 49 0 78
-51 108 -98 58z m76 -66 c-5 -24 -38 -27 -38 -3 0 10 3 21 6 25 11 11 35 -5
32 -22z"/>
<path d="M825 8215 c-55 -54 -16 -160 57 -153 17 2 34 9 36 17 3 10 -1 12 -18
8 -33 -9 -69 9 -76 38 -9 35 3 72 25 85 20 10 51 4 51 -11 0 -4 -7 -6 -15 -3
-35 14 -61 -46 -33 -74 7 -7 25 -12 40 -12 27 0 28 1 28 55 0 43 -4 56 -19 65
-30 16 -50 12 -76 -15z m75 -66 c0 -23 -28 -26 -37 -3 -6 16 15 37 29 28 4 -3
8 -14 8 -25z"/>
<path d="M968 8230 c-22 -13 -41 -72 -33 -103 10 -38 48 -69 81 -65 15 2 30 9
32 17 3 10 -2 12 -21 7 -31 -7 -63 18 -73 56 -8 34 34 82 63 71 16 -6 15 -8
-7 -13 -21 -5 -25 -12 -25 -45 0 -39 1 -40 38 -43 l37 -3 0 43 c0 72 -41 107
-92 78z m68 -89 c-11 -18 -36 -13 -36 7 0 10 3 22 7 26 10 10 37 -20 29 -33z"/>
<path d="M1092 8217 c-33 -35 -31 -109 4 -136 29 -23 60 -27 84 -11 17 11 17
11 -28 15 -46 4 -62 21 -62 66 0 30 5 42 26 55 24 16 26 16 42 0 16 -16 16
-17 -1 -10 -22 8 -47 -12 -47 -40 0 -30 18 -46 52 -46 27 0 28 2 28 49 0 78
-51 108 -98 58z m76 -66 c-5 -24 -38 -27 -38 -3 0 10 3 21 6 25 11 11 35 -5
32 -22z"/>
<path d="M1225 8215 c-55 -54 -16 -160 57 -153 17 2 34 9 36 17 3 10 -1 12
-18 8 -33 -9 -69 9 -76 38 -9 35 3 72 25 85 20 10 51 4 51 -11 0 -4 -7 -6 -15
-3 -35 14 -61 -46 -33 -74 7 -7 25 -12 40 -12 27 0 28 1 28 55 0 43 -4 56 -19
65 -30 16 -50 12 -76 -15z m75 -66 c0 -23 -28 -26 -37 -3 -6 16 15 37 29 28 4
-3 8 -14 8 -25z"/>
<path d="M1363 8225 c-49 -34 -34 -147 21 -161 33 -8 58 -2 64 15 3 10 -1 12
-18 8 -47 -12 -86 32 -75 84 7 32 38 51 65 41 11 -4 8 -8 -9 -12 -35 -8 -48
-33 -33 -64 9 -20 19 -26 42 -26 30 0 30 1 30 53 0 29 -5 58 -12 65 -16 16
-49 15 -75 -3z m70 -81 c-6 -16 -29 -19 -38 -4 -4 6 -1 17 5 26 15 18 42 0 33
-22z"/>
<path d="M1498 8230 c-22 -13 -41 -72 -33 -103 10 -38 48 -69 81 -65 15 2 30
9 32 17 3 10 -2 12 -21 7 -31 -7 -63 18 -73 56 -8 34 34 82 63 71 16 -6 15 -8
-7 -13 -21 -5 -25 -12 -25 -45 0 -39 1 -40 38 -43 l37 -3 0 43 c0 72 -41 107
-92 78z m68 -89 c-11 -18 -36 -13 -36 7 0 10 3 22 7 26 10 10 37 -20 29 -33z"/>
<path d="M2682 8217 c-33 -35 -31 -109 4 -136 29 -23 60 -27 84 -11 17 11 17
11 -28 15 -46 4 -62 21 -62 66 0 30 5 42 26 55 24 16 26 16 42 0 16 -16 16
-17 -1 -10 -22 8 -47 -12 -47 -40 0 -30 18 -46 52 -46 27 0 28 2 28 49 0 78
-51 108 -98 58z m76 -66 c-5 -24 -38 -27 -38 -3 0 10 3 21 6 25 11 11 35 -5
32 -22z"/>
<path d="M2815 8215 c-55 -54 -16 -160 57 -153 17 2 34 9 36 17 3 10 -1 12
-18 8 -33 -9 -69 9 -76 38 -9 35 3 72 25 85 20 10 51 4 51 -11 0 -4 -7 -6 -15
-3 -35 14 -61 -46 -33 -74 7 -7 25 -12 40 -12 27 0 28 1 28 55 0 43 -4 56 -19
65 -30 16 -50 12 -76 -15z m75 -66 c0 -23 -28 -26 -37 -3 -6 16 15 37 29 28 4
-3 8 -14 8 -25z"/>
<path d="M2958 8230 c-22 -13 -41 -72 -33 -103 10 -38 48 -69 81 -65 15 2 30
9 32 17 3 10 -2 12 -21 7 -31 -7 -63 18 -73 56 -8 34 34 82 63 71 16 -6 15 -8
-7 -13 -21 -5 -25 -12 -25 -45 0 -39 1 -40 38 -43 l37 -3 0 43 c0 72 -41 107
-92 78z m68 -89 c-11 -18 -36 -13 -36 7 0 10 3 22 7 26 10 10 37 -20 29 -33z"/>
<path d="M3082 8217 c-33 -35 -31 -109 4 -136 29 -23 60 -27 84 -11 17 11 17
11 -28 15 -46 4 -62 21 -62 66 0 30 5 42 26 55 24 16 26 16 42 0 16 -16 16
-17 -1 -10 -22 8 -47 -12 -47 -40 0 -30 18 -46 52 -46 27 0 28 2 28 49 0 78
-51 108 -98 58z m76 -66 c-5 -24 -38 -27 -38 -3 0 10 3 21 6 25 11 11 35 -5
32 -22z"/>
<path d="M3215 8215 c-55 -54 -16 -160 57 -153 17 2 34 9 36 17 3 10 -1 12
-18 8 -33 -9 -69 9 -76 38 -9 35 3 72 25 85 20 10 51 4 51 -11 0 -4 -7 -6 -15
-3 -35 14 -61 -46 -33 -74 7 -7 25 -12 40 -12 27 0 28 1 28 55 0 43 -4 56 -19
65 -30 16 -50 12 -76 -15z m75 -66 c0 -23 -28 -26 -37 -3 -6 16 15 37 29 28 4
-3 8 -14 8 -25z"/>
<path d="M3353 8225 c-49 -34 -34 -147 21 -161 33 -8 58 -2 64 15 3 10 -1 12
-18 8 -47 -12 -86 32 -75 84 7 32 38 51 65 41 11 -4 8 -8 -9 -12 -35 -8 -48
-33 -33 -64 9 -20 19 -26 42 -26 30 0 30 1 30 53 0 29 -5 58 -12 65 -16 16
-49 15 -75 -3z m70 -81 c-6 -16 -29 -19 -38 -4 -4 6 -1 17 5 26 15 18 42 0 33
-22z"/>
<path d="M2580 8195 c0 -20 -5 -25 -25 -25 -31 0 -33 -17 -2 -22 14 -2 23 -11
25 -25 2 -13 7 -23 12 -23 5 0 10 10 12 23 2 14 11 23 26 25 30 5 28 22 -3 22
-20 0 -25 5 -25 25 0 14 -4 25 -10 25 -5 0 -10 -11 -10 -25z"/>
<path d="M1644 8199 c-10 -17 13 -36 27 -22 12 12 4 33 -11 33 -5 0 -12 -5
-16 -11z"/>
<path d="M1644 8119 c-10 -17 13 -36 27 -22 12 12 4 33 -11 33 -5 0 -12 -5
-16 -11z"/>
<path d="M2440 8110 c0 -11 7 -20 15 -20 8 0 15 9 15 20 0 11 -7 20 -15 20 -8
0 -15 -9 -15 -20z"/>
<path d="M587 8114 c-4 -4 -2 -13 4 -21 9 -10 8 -17 -1 -28 -7 -8 -8 -15 -2
-15 16 0 34 28 30 46 -3 19 -20 28 -31 18z"/>
<path d="M162 7677 c-33 -35 -31 -109 4 -136 29 -23 60 -27 84 -11 17 11 17
11 -28 15 -46 4 -62 21 -62 66 0 30 5 42 26 55 24 16 26 16 42 0 16 -16 16
-17 -1 -10 -22 8 -47 -12 -47 -40 0 -30 18 -46 52 -46 27 0 28 2 28 49 0 78
-51 108 -98 58z m76 -66 c-5 -24 -38 -27 -38 -3 0 10 3 21 6 25 11 11 35 -5
32 -22z"/>
<path d="M295 7675 c-55 -54 -16 -160 57 -153 17 2 34 9 36 17 3 10 -1 12 -18
8 -33 -9 -69 9 -76 38 -9 35 3 72 25 85 20 10 51 4 51 -11 0 -4 -7 -6 -15 -3
-35 14 -61 -46 -33 -74 7 -7 25 -12 40 -12 27 0 28 1 28 55 0 43 -4 56 -19 65
-30 16 -50 12 -76 -15z m75 -66 c0 -23 -28 -26 -37 -3 -6 16 15 37 29 28 4 -3
8 -14 8 -25z"/>
<path d="M433 7685 c-49 -34 -34 -147 21 -161 33 -8 58 -2 64 15 3 10 -1 12
-18 8 -47 -12 -86 32 -75 84 7 32 38 51 65 41 11 -4 8 -8 -9 -12 -35 -8 -48
-33 -33 -64 9 -20 19 -26 42 -26 30 0 30 1 30 53 0 29 -5 58 -12 65 -16 16
-49 15 -75 -3z m70 -81 c-6 -16 -29 -19 -38 -4 -4 6 -1 17 5 26 15 18 42 0 33
-22z"/>
<path d="M568 7690 c-22 -13 -41 -72 -33 -103 10 -38 48 -69 81 -65 15 2 30 9
32 17 3 10 -2 12 -21 7 -31 -7 -63 18 -73 56 -8 34 34 82 63 71 16 -6 15 -8
-7 -13 -21 -5 -25 -12 -25 -45 0 -39 1 -40 38 -43 l37 -3 0 43 c0 72 -41 107
-92 78z m68 -89 c-11 -18 -36 -13 -36 7 0 10 3 22 7 26 10 10 37 -20 29 -33z"/>
<path d="M3353 7685 c-49 -34 -34 -147 21 -161 33 -8 58 -2 64 15 3 10 -1 12
-18 8 -47 -12 -86 32 -75 84 7 32 38 51 65 41 11 -4 8 -8 -9 -12 -35 -8 -48
-33 -33 -64 9 -20 19 -26 42 -26 30 0 30 1 30 53 0 29 -5 58 -12 65 -16 16
-49 15 -75 -3z m70 -81 c-6 -16 -29 -19 -38 -4 -4 6 -1 17 5 26 15 18 42 0 33
-22z"/>
<path d="M3488 7690 c-22 -13 -41 -72 -33 -103 10 -38 48 -69 81 -65 15 2 30
9 32 17 3 10 -2 12 -21 7 -31 -7 -63 18 -73 56 -8 34 34 82 63 71 16 -6 15 -8
-7 -13 -21 -5 -25 -12 -25 -45 0 -39 1 -40 38 -43 l37 -3 0 43 c0 72 -41 107
-92 78z m68 -89 c-11 -18 -36 -13 -36 7 0 10 3 22 7 26 10 10 37 -20 29 -33z"/>
<path d="M3612 7677 c-33 -35 -31 -109 4 -136 29 -23 60 -27 84 -11 17 11 17
11 -28 15 -46 4 -62 21 -62 66 0 30 5 42 26 55 24 16 26 16 42 0 16 -16 16
-17 -1 -10 -22 8 -47 -12 -47 -40 0 -30 18 -46 52 -46 27 0 28 2 28 49 0 78
-51 108 -98 58z m76 -66 c-5 -24 -38 -27 -38 -3 0 10 3 21 6 25 11 11 35 -5
32 -22z"/>
<path d="M3745 7675 c-55 -54 -16 -160 57 -153 17 2 34 9 36 17 3 10 -1 12
-18 8 -33 -9 -69 9 -76 38 -9 35 3 72 25 85 20 10 51 4 51 -11 0 -4 -7 -6 -15
-3 -35 14 -61 -46 -33 -74 7 -7 25 -12 40 -12 27 0 28 1 28 55 0 43 -4 56 -19
65 -30 16 -50 12 -76 -15z m75 -66 c0 -23 -28 -26 -37 -3 -6 16 15 37 29 28 4
-3 8 -14 8 -25z"/>
<path d="M3883 7685 c-49 -34 -34 -147 21 -161 33 -8 58 -2 64 15 3 10 -1 12
-18 8 -47 -12 -86 32 -75 84 7 32 38 51 65 41 11 -4 8 -8 -9 -12 -35 -8 -48
-33 -33 -64 9 -20 19 -26 42 -26 30 0 30 1 30 53 0 29 -5 58 -12 65 -16 16
-49 15 -75 -3z m70 -81 c-6 -16 -29 -19 -38 -4 -4 6 -1 17 5 26 15 18 42 0 33
-22z"/>
<path d="M4034 7579 c-10 -17 13 -36 27 -22 12 12 4 33 -11 33 -5 0 -12 -5
-16 -11z"/>
<path d="M717 7574 c-4 -4 -2 -13 4 -21 9 -10 8 -17 -1 -28 -7 -8 -8 -15 -2
-15 16 0 34 28 30 46 -3 19 -20 28 -31 18z"/>
<path d="M3765 7160 c-3 -11 -13 -20 -21 -20 -8 0 -14 -4 -14 -10 0 -5 5 -10
10 -10 17 0 11 -28 -7 -39 -14 -8 -15 -13 -5 -19 7 -5 10 -16 6 -25 -4 -10 -1
-17 6 -17 6 0 14 9 17 20 3 11 9 20 14 20 5 0 9 -9 9 -20 0 -11 4 -20 9 -20 5
0 13 9 16 20 3 11 13 20 21 20 8 0 14 5 14 10 0 6 -4 10 -10 10 -17 0 -11 28
8 39 13 8 14 13 4 19 -7 5 -10 16 -6 25 4 12 1 17 -10 17 -9 0 -16 -8 -16 -20
0 -11 -6 -20 -14 -20 -9 0 -12 7 -9 20 3 11 1 20 -5 20 -6 0 -14 -9 -17 -20z
m28 -65 c-3 -8 -9 -15 -14 -15 -10 0 -12 24 -3 33 11 11 24 -3 17 -18z"/>
<path d="M1363 7155 c-49 -34 -34 -147 21 -161 33 -8 58 -2 64 15 3 10 -1 12
-18 8 -47 -12 -86 32 -75 84 7 32 38 51 65 41 11 -4 8 -8 -9 -12 -35 -8 -48
-33 -33 -64 9 -20 19 -26 42 -26 30 0 30 1 30 53 0 29 -5 58 -12 65 -16 16
-49 15 -75 -3z m70 -81 c-6 -16 -29 -19 -38 -4 -4 6 -1 17 5 26 15 18 42 0 33
-22z"/>
<path d="M1498 7160 c-22 -13 -41 -72 -33 -103 10 -38 48 -69 81 -65 15 2 30
9 32 17 3 10 -2 12 -21 7 -31 -7 -63 18 -73 56 -8 34 34 82 63 71 16 -6 15 -8
-7 -13 -21 -5 -25 -12 -25 -45 0 -39 1 -40 38 -43 l37 -3 0 43 c0 72 -41 107
-92 78z m68 -89 c-11 -18 -36 -13 -36 7 0 10 3 22 7 26 10 10 37 -20 29 -33z"/>
<path d="M1622 7147 c-33 -35 -31 -109 4 -136 29 -23 60 -27 84 -11 17 11 17
11 -28 15 -46 4 -62 21 -62 66 0 30 5 42 26 55 24 16 26 16 42 0 16 -16 16
-17 -1 -10 -22 8 -47 -12 -47 -40 0 -30 18 -46 52 -46 27 0 28 2 28 49 0 78
-51 108 -98 58z m76 -66 c-5 -24 -38 -27 -38 -3 0 10 3 21 6 25 11 11 35 -5
32 -22z"/>
<path d="M1755 7145 c-55 -54 -16 -160 57 -153 17 2 34 9 36 17 3 10 -1 12
-18 8 -33 -9 -69 9 -76 38 -9 35 3 72 25 85 20 10 51 4 51 -11 0 -4 -7 -6 -15
-3 -35 14 -61 -46 -33 -74 7 -7 25 -12 40 -12 27 0 28 1 28 55 0 43 -4 56 -19
65 -30 16 -50 12 -76 -15z m75 -66 c0 -23 -28 -26 -37 -3 -6 16 15 37 29 28 4
-3 8 -14 8 -25z"/>
<path d="M1893 7155 c-49 -34 -34 -147 21 -161 33 -8 58 -2 64 15 3 10 -1 12
-18 8 -47 -12 -86 32 -75 84 7 32 38 51 65 41 11 -4 8 -8 -9 -12 -35 -8 -48
-33 -33 -64 9 -20 19 -26 42 -26 30 0 30 1 30 53 0 29 -5 58 -12 65 -16 16
-49 15 -75 -3z m70 -81 c-6 -16 -29 -19 -38 -4 -4 6 -1 17 5 26 15 18 42 0 33
-22z"/>
<path d="M2028 7160 c-22 -13 -41 -72 -33 -103 10 -38 48 -69 81 -65 15 2 30
9 32 17 3 10 -2 12 -21 7 -31 -7 -63 18 -73 56 -8 34 34 82 63 71 16 -6 15 -8
-7 -13 -21 -5 -25 -12 -25 -45 0 -39 1 -40 38 -43 l37 -3 0 43 c0 72 -41 107
-92 78z m68 -89 c-11 -18 -36 -13 -36 7 0 10 3 22 7 26 10 10 37 -20 29 -33z"/>
<path d="M2152 7147 c-33 -35 -31 -109 4 -136 29 -23 60 -27 84 -11 17 11 17
11 -28 15 -46 4 -62 21 -62 66 0 30 5 42 26 55 24 16 26 16 42 0 16 -16 16
-17 -1 -10 -22 8 -47 -12 -47 -40 0 -30 18 -46 52 -46 27 0 28 2 28 49 0 78
-51 108 -98 58z m76 -66 c-5 -24 -38 -27 -38 -3 0 10 3 21 6 25 11 11 35 -5
32 -22z"/>
<path d="M2285 7145 c-55 -54 -16 -160 57 -153 17 2 34 9 36 17 3 10 -1 12
-18 8 -33 -9 -69 9 -76 38 -9 35 3 72 25 85 20 10 51 4 51 -11 0 -4 -7 -6 -15
-3 -35 14 -61 -46 -33 -74 7 -7 25 -12 40 -12 27 0 28 1 28 55 0 43 -4 56 -19
65 -30 16 -50 12 -76 -15z m75 -66 c0 -23 -28 -26 -37 -3 -6 16 15 37 29 28 4
-3 8 -14 8 -25z"/>
<path d="M2423 7155 c-49 -34 -34 -147 21 -161 33 -8 58 -2 64 15 3 10 -1 12
-18 8 -47 -12 -86 32 -75 84 7 32 38 51 65 41 11 -4 8 -8 -9 -12 -35 -8 -48
-33 -33 -64 9 -20 19 -26 42 -26 30 0 30 1 30 53 0 29 -5 58 -12 65 -16 16
-49 15 -75 -3z m70 -81 c-6 -16 -29 -19 -38 -4 -4 6 -1 17 5 26 15 18 42 0 33
-22z"/>
<path d="M2558 7160 c-22 -13 -41 -72 -33 -103 10 -38 48 -69 81 -65 15 2 30
9 32 17 3 10 -2 12 -21 7 -31 -7 -63 18 -73 56 -8 34 34 82 63 71 16 -6 15 -8
-7 -13 -21 -5 -25 -12 -25 -45 0 -39 1 -40 38 -43 l37 -3 0 43 c0 72 -41 107
-92 78z m68 -89 c-11 -18 -36 -13 -36 7 0 10 3 22 7 26 10 10 37 -20 29 -33z"/>
<path d="M2682 7147 c-33 -35 -31 -109 4 -136 29 -23 60 -27 84 -11 17 11 17
11 -28 15 -46 4 -62 21 -62 66 0 30 5 42 26 55 24 16 26 16 42 0 16 -16 16
-17 -1 -10 -22 8 -47 -12 -47 -40 0 -30 18 -46 52 -46 27 0 28 2 28 49 0 78
-51 108 -98 58z m76 -66 c-5 -24 -38 -27 -38 -3 0 10 3 21 6 25 11 11 35 -5
32 -22z"/>
<path d="M320 7120 c0 -11 7 -20 15 -20 8 0 15 9 15 20 0 11 -7 20 -15 20 -8
0 -15 -9 -15 -20z"/>
<path d="M320 7040 c0 -11 7 -20 15 -20 8 0 15 9 15 20 0 11 -7 20 -15 20 -8
0 -15 -9 -15 -20z"/>
<path d="M1250 7040 c0 -11 7 -20 15 -20 8 0 15 9 15 20 0 11 -7 20 -15 20 -8
0 -15 -9 -15 -20z"/>
<path d="M845 6630 c-3 -11 -13 -20 -21 -20 -8 0 -14 -4 -14 -10 0 -5 5 -10
10 -10 17 0 11 -28 -7 -39 -14 -8 -15 -13 -5 -19 7 -5 10 -16 6 -25 -4 -10 -1
-17 6 -17 6 0 14 9 17 20 3 11 9 20 14 20 5 0 9 -9 9 -20 0 -11 4 -20 9 -20 5
0 13 9 16 20 3 11 13 20 21 20 8 0 14 5 14 10 0 6 -4 10 -10 10 -17 0 -11 28
8 39 13 8 14 13 4 19 -7 5 -10 16 -6 25 4 12 1 17 -10 17 -9 0 -16 -8 -16 -20
0 -11 -6 -20 -14 -20 -9 0 -12 7 -9 20 3 11 1 20 -5 20 -6 0 -14 -9 -17 -20z
m28 -65 c-3 -8 -9 -15 -14 -15 -10 0 -12 24 -3 33 11 11 24 -3 17 -18z"/>
<path d="M968 6630 c-22 -13 -41 -72 -33 -103 10 -38 48 -69 81 -65 15 2 30 9
32 17 3 10 -2 12 -21 7 -31 -7 -63 18 -73 56 -8 34 34 82 63 71 16 -6 15 -8
-7 -13 -21 -5 -25 -12 -25 -45 0 -39 1 -40 38 -43 l37 -3 0 43 c0 72 -41 107
-92 78z m68 -89 c-11 -18 -36 -13 -36 7 0 10 3 22 7 26 10 10 37 -20 29 -33z"/>
<path d="M1092 6617 c-33 -35 -31 -109 4 -136 29 -23 60 -27 84 -11 17 11 17
11 -28 15 -46 4 -62 21 -62 66 0 30 5 42 26 55 24 16 26 16 42 0 16 -16 16
-17 -1 -10 -22 8 -47 -12 -47 -40 0 -30 18 -46 52 -46 27 0 28 2 28 49 0 78
-51 108 -98 58z m76 -66 c-5 -24 -38 -27 -38 -3 0 10 3 21 6 25 11 11 35 -5
32 -22z"/>
<path d="M1225 6615 c-55 -54 -16 -160 57 -153 17 2 34 9 36 17 3 10 -1 12
-18 8 -33 -9 -69 9 -76 38 -9 35 3 72 25 85 20 10 51 4 51 -11 0 -4 -7 -6 -15
-3 -35 14 -61 -46 -33 -74 7 -7 25 -12 40 -12 27 0 28 1 28 55 0 43 -4 56 -19
65 -30 16 -50 12 -76 -15z m75 -66 c0 -23 -28 -26 -37 -3 -6 16 15 37 29 28 4
-3 8 -14 8 -25z"/>
<path d="M1363 6625 c-49 -34 -34 -147 21 -161 33 -8 58 -2 64 15 3 10 -1 12
-18 8 -47 -12 -86 32 -75 84 7 32 38 51 65 41 11 -4 8 -8 -9 -12 -35 -8 -48
-33 -33 -64 9 -20 19 -26 42 -26 30 0 30 1 30 53 0 29 -5 58 -12 65 -16 16
-49 15 -75 -3z m70 -81 c-6 -16 -29 -19 -38 -4 -4 6 -1 17 5 26 15 18 42 0 33
-22z"/>
<path d="M1498 6630 c-22 -13 -41 -72 -33 -103 10 -38 48 -69 81 -65 15 2 30
9 32 17 3 10 -2 12 -21 7 -31 -7 -63 18 -73 56 -8 34 34 82 63 71 16 -6 15 -8
-7 -13 -21 -5 -25 -12 -25 -45 0 -39 1 -40 38 -43 l37 -3 0 43 c0 72 -41 107
-92 78z m68 -89 c-11 -18 -36 -13 -36 7 0 10 3 22 7 26 10 10 37 -20 29 -33z"/>
<path d="M2558 6630 c-22 -13 -41 -72 -33 -103 10 -38 48 -69 81 -65 15 2 30
9 32 17 3 10 -2 12 -21 7 -31 -7 -63 18 -73 56 -8 34 34 82 63 71 16 -6 15 -8
-7 -13 -21 -5 -25 -12 -25 -45 0 -39 1 -40 38 -43 l37 -3 0 43 c0 72 -41 107
-92 78z m68 -89 c-11 -18 -36 -13 -36 7 0 10 3 22 7 26 10 10 37 -20 29 -33z"/>
<path d="M2682 6617 c-33 -35 -31 -109 4 -136 29 -23 60 -27 84 -11 17 11 17
11 -28 15 -46 4 -62 21 -62 66 0 30 5 42 26 55 24 16 26 16 42 0 16 -16 16
-17 -1 -10 -22 8 -47 -12 -47 -40 0 -30 18 -46 52 -46 27 0 28 2 28 49 0 78
-51 108 -98 58z m76 -66 c-5 -24 -38 -27 -38 -3 0 10 3 21 6 25 11 11 35 -5
32 -22z"/>
<path d="M2815 6615 c-55 -54 -16 -160 57 -153 17 2 34 9 36 17 3 10 -1 12
-18 8 -33 -9 -69 9 -76 38 -9 35 3 72 25 85 20 10 51 4 51 -11 0 -4 -7 -6 -15
-3 -35 14 -61 -46 -33 -74 7 -7 25 -12 40 -12 27 0 28 1 28 55 0 43 -4 56 -19
65 -30 16 -50 12 -76 -15z m75 -66 c0 -23 -28 -26 -37 -3 -6 16 15 37 29 28 4
-3 8 -14 8 -25z"/>
<path d="M2958 6630 c-22 -13 -41 -72 -33 -103 10 -38 48 -69 81 -65 15 2 30
9 32 17 3 10 -2 12 -21 7 -31 -7 -63 18 -73 56 -8 34 34 82 63 71 16 -6 15 -8
-7 -13 -21 -5 -25 -12 -25 -45 0 -39 1 -40 38 -43 l37 -3 0 43 c0 72 -41 107
-92 78z m68 -89 c-11 -18 -36 -13 -36 7 0 10 3 22 7 26 10 10 37 -20 29 -33z"/>
<path d="M3082 6617 c-33 -35 -31 -109 4 -136 29 -23 60 -27 84 -11 17 11 17
11 -28 15 -46 4 -62 21 -62 66 0 30 5 42 26 55 24 16 26 16 42 0 16 -16 16
-17 -1 -10 -22 8 -47 -12 -47 -40 0 -30 18 -46 52 -46 27 0 28 2 28 49 0 78
-51 108 -98 58z m76 -66 c-5 -24 -38 -27 -38 -3 0 10 3 21 6 25 11 11 35 -5
32 -22z"/>
<path d="M3215 6615 c-55 -54 -16 -160 57 -153 17 2 34 9 36 17 3 10 -1 12
-18 8 -33 -9 -69 9 -76 38 -9 35 3 72 25 85 20 10 51 4 51 -11 0 -4 -7 -6 -15
-3 -35 14 -61 -46 -33 -74 7 -7 25 -12 40 -12 27 0 28 1 28 55 0 43 -4 56 -19
65 -30 16 -50 12 -76 -15z m75 -66 c0 -23 -28 -26 -37 -3 -6 16 15 37 29 28 4
-3 8 -14 8 -25z"/>
<path d="M1644 6599 c-10 -17 13 -36 27 -22 12 12 4 33 -11 33 -5 0 -12 -5
-16 -11z"/>
<path d="M1644 6519 c-10 -17 13 -36 27 -22 12 12 4 33 -11 33 -5 0 -12 -5
-16 -11z"/>
<path d="M2440 6510 c0 -11 7 -20 15 -20 8 0 15 9 15 20 0 11 -7 20 -15 20 -8
0 -15 -9 -15 -20z"/>
<path d="M720 6080 c0 -16 5 -30 10 -30 6 0 10 14 10 30 0 17 -4 30 -10 30 -5
0 -10 -13 -10 -30z"/>
<path d="M825 6075 c-55 -54 -16 -160 57 -153 17 2 34 9 36 17 3 10 -1 12 -18
8 -33 -9 -69 9 -76 38 -9 35 3 72 25 85 20 10 51 4 51 -11 0 -4 -7 -6 -15 -3
-35 14 -61 -46 -33 -74 7 -7 25 -12 40 -12 27 0 28 1 28 55 0 43 -4 56 -19 65
-30 16 -50 12 -76 -15z m75 -66 c0 -23 -28 -26 -37 -3 -6 16 15 37 29 28 4 -3
8 -14 8 -25z"/>
<path d="M968 6090 c-22 -13 -41 -72 -33 -103 10 -38 48 -69 81 -65 15 2 30 9
32 17 3 10 -2 12 -21 7 -31 -7 -63 18 -73 56 -8 34 34 82 63 71 16 -6 15 -8
-7 -13 -21 -5 -25 -12 -25 -45 0 -39 1 -40 38 -43 l37 -3 0 43 c0 72 -41 107
-92 78z m68 -89 c-11 -18 -36 -13 -36 7 0 10 3 22 7 26 10 10 37 -20 29 -33z"/>
<path d="M3082 6077 c-33 -35 -31 -109 4 -136 29 -23 60 -27 84 -11 17 11 17
11 -28 15 -46 4 -62 21 -62 66 0 30 5 42 26 55 24 16 26 16 42 0 16 -16 16
-17 -1 -10 -22 8 -47 -12 -47 -40 0 -30 18 -46 52 -46 27 0 28 2 28 49 0 78
-51 108 -98 58z m76 -66 c-5 -24 -38 -27 -38 -3 0 10 3 21 6 25 11 11 35 -5
32 -22z"/>
<path d="M3215 6075 c-55 -54 -16 -160 57 -153 17 2 34 9 36 17 3 10 -1 12
-18 8 -33 -9 -69 9 -76 38 -9 35 3 72 25 85 20 10 51 4 51 -11 0 -4 -7 -6 -15
-3 -35 14 -61 -46 -33 -74 7 -7 25 -12 40 -12 27 0 28 1 28 55 0 43 -4 56 -19
65 -30 16 -50 12 -76 -15z m75 -66 c0 -23 -28 -26 -37 -3 -6 16 15 37 29 28 4
-3 8 -14 8 -25z"/>
<path d="M3353 6085 c-49 -34 -34 -147 21 -161 33 -8 58 -2 64 15 3 10 -1 12
-18 8 -47 -12 -86 32 -75 84 7 32 38 51 65 41 11 -4 8 -8 -9 -12 -35 -8 -48
-33 -33 -64 9 -20 19 -26 42 -26 30 0 30 1 30 53 0 29 -5 58 -12 65 -16 16
-49 15 -75 -3z m70 -81 c-6 -16 -29 -19 -38 -4 -4 6 -1 17 5 26 15 18 42 0 33
-22z"/>
<path d="M1114 6059 c-10 -17 13 -36 27 -22 12 12 4 33 -11 33 -5 0 -12 -5
-16 -11z"/>
<path d="M1114 5979 c-10 -17 13 -36 27 -22 12 12 4 33 -11 33 -5 0 -12 -5
-16 -11z"/>
<path d="M3215 5815 c-55 -54 -16 -160 57 -153 17 2 34 9 36 17 3 10 -1 12
-18 8 -33 -9 -69 9 -76 38 -9 35 3 72 25 85 20 10 51 4 51 -11 0 -4 -7 -6 -15
-3 -35 14 -61 -46 -33 -74 7 -7 25 -12 40 -12 27 0 28 1 28 55 0 43 -4 56 -19
65 -30 16 -50 12 -76 -15z m75 -66 c0 -23 -28 -26 -37 -3 -6 16 15 37 29 28 4
-3 8 -14 8 -25z"/>
<path d="M850 5790 c0 -11 7 -20 15 -20 8 0 15 9 15 20 0 11 -7 20 -15 20 -8
0 -15 -9 -15 -20z"/>
<path d="M850 5710 c0 -11 7 -20 15 -20 8 0 15 9 15 20 0 11 -7 20 -15 20 -8
0 -15 -9 -15 -20z"/>
<path d="M984 5719 c-10 -17 13 -36 27 -22 12 12 4 33 -11 33 -5 0 -12 -5 -16
-11z"/>
<path d="M1375 5570 c10 -11 22 -20 27 -20 4 0 3 9 -4 20 -7 11 -19 20 -27 20
-11 0 -10 -5 4 -20z"/>
<path d="M2710 5550 c0 -16 5 -30 10 -30 6 0 10 14 10 30 0 17 -4 30 -10 30
-5 0 -10 -13 -10 -30z"/>
<path d="M1498 5560 c-22 -13 -41 -72 -33 -103 10 -38 48 -69 81 -65 15 2 30
9 32 17 3 10 -2 12 -21 7 -31 -7 -63 18 -73 56 -8 34 34 82 63 71 16 -6 15 -8
-7 -13 -21 -5 -25 -12 -25 -45 0 -39 1 -40 38 -43 l37 -3 0 43 c0 72 -41 107
-92 78z m68 -89 c-11 -18 -36 -13 -36 7 0 10 3 22 7 26 10 10 37 -20 29 -33z"/>
<path d="M1622 5547 c-33 -35 -31 -109 4 -136 29 -23 60 -27 84 -11 17 11 17
11 -28 15 -46 4 -62 21 -62 66 0 30 5 42 26 55 24 16 26 16 42 0 16 -16 16
-17 -1 -10 -22 8 -47 -12 -47 -40 0 -30 18 -46 52 -46 27 0 28 2 28 49 0 78
-51 108 -98 58z m76 -66 c-5 -24 -38 -27 -38 -3 0 10 3 21 6 25 11 11 35 -5
32 -22z"/>
<path d="M1755 5545 c-55 -54 -16 -160 57 -153 17 2 34 9 36 17 3 10 -1 12
-18 8 -33 -9 -69 9 -76 38 -9 35 3 72 25 85 20 10 51 4 51 -11 0 -4 -7 -6 -15
-3 -35 14 -61 -46 -33 -74 7 -7 25 -12 40 -12 27 0 28 1 28 55 0 43 -4 56 -19
65 -30 16 -50 12 -76 -15z m75 -66 c0 -23 -28 -26 -37 -3 -6 16 15 37 29 28 4
-3 8 -14 8 -25z"/>
<path d="M1893 5555 c-49 -34 -34 -147 21 -161 33 -8 58 -2 64 15 3 10 -1 12
-18 8 -47 -12 -86 32 -75 84 7 32 38 51 65 41 11 -4 8 -8 -9 -12 -35 -8 -48
-33 -33 -64 9 -20 19 -26 42 -26 30 0 30 1 30 53 0 29 -5 58 -12 65 -16 16
-49 15 -75 -3z m70 -81 c-6 -16 -29 -19 -38 -4 -4 6 -1 17 5 26 15 18 42 0 33
-22z"/>
<path d="M2028 5560 c-22 -13 -41 -72 -33 -103 10 -38 48 -69 81 -65 15 2 30
9 32 17 3 10 -2 12 -21 7 -31 -7 -63 18 -73 56 -8 34 34 82 63 71 16 -6 15 -8
-7 -13 -21 -5 -25 -12 -25 -45 0 -39 1 -40 38 -43 l37 -3 0 43 c0 72 -41 107
-92 78z m68 -89 c-11 -18 -36 -13 -36 7 0 10 3 22 7 26 10 10 37 -20 29 -33z"/>
<path d="M2152 5547 c-33 -35 -31 -109 4 -136 29 -23 60 -27 84 -11 17 11 17
11 -28 15 -46 4 -62 21 -62 66 0 30 5 42 26 55 24 16 26 16 42 0 16 -16 16
-17 -1 -10 -22 8 -47 -12 -47 -40 0 -30 18 -46 52 -46 27 0 28 2 28 49 0 78
-51 108 -98 58z m76 -66 c-5 -24 -38 -27 -38 -3 0 10 3 21 6 25 11 11 35 -5
32 -22z"/>
<path d="M2285 5545 c-55 -54 -16 -160 57 -153 17 2 34 9 36 17 3 10 -1 12
-18 8 -33 -9 -69 9 -76 38 -9 35 3 72 25 85 20 10 51 4 51 -11 0 -4 -7 -6 -15
-3 -35 14 -61 -46 -33 -74 7 -7 25 -12 40 -12 27 0 28 1 28 55 0 43 -4 56 -19
65 -30 16 -50 12 -76 -15z m75 -66 c0 -23 -28 -26 -37 -3 -6 16 15 37 29 28 4
-3 8 -14 8 -25z"/>
<path d="M2423 5555 c-49 -34 -34 -147 21 -161 33 -8 58 -2 64 15 3 10 -1 12
-18 8 -47 -12 -86 32 -75 84 7 32 38 51 65 41 11 -4 8 -8 -9 -12 -35 -8 -48
-33 -33 -64 9 -20 19 -26 42 -26 30 0 30 1 30 53 0 29 -5 58 -12 65 -16 16
-49 15 -75 -3z m70 -81 c-6 -16 -29 -19 -38 -4 -4 6 -1 17 5 26 15 18 42 0 33
-22z"/>
<path d="M2558 5560 c-22 -13 -41 -72 -33 -103 10 -38 48 -69 81 -65 15 2 30
9 32 17 3 10 -2 12 -21 7 -31 -7 -63 18 -73 56 -8 34 34 82 63 71 16 -6 15 -8
-7 -13 -21 -5 -25 -12 -25 -45 0 -39 1 -40 38 -43 l37 -3 0 43 c0 72 -41 107
-92 78z m68 -89 c-11 -18 -36 -13 -36 7 0 10 3 22 7 26 10 10 37 -20 29 -33z"/>
<path d="M4037 5444 c-8 -8 1 -24 14 -24 5 0 9 7 9 15 0 15 -12 20 -23 9z"/>
<path d="M4165 5441 c-7 -12 12 -24 25 -16 11 7 4 25 -10 25 -5 0 -11 -4 -15
-9z"/>
<path d="M4300 5435 c0 -8 7 -15 15 -15 8 0 15 7 15 15 0 8 -7 15 -15 15 -8 0
-15 -7 -15 -15z"/>
<path d="M4430 5435 c0 -8 7 -15 15 -15 8 0 15 7 15 15 0 8 -7 15 -15 15 -8 0
-15 -7 -15 -15z"/>
<path d="M3912 5280 c0 -19 2 -27 5 -17 2 9 2 25 0 35 -3 9 -5 1 -5 -18z"/>
<path d="M4040 5280 c0 -16 5 -30 10 -30 6 0 10 14 10 30 0 17 -4 30 -10 30
-5 0 -10 -13 -10 -30z"/>
<path d="M4442 5280 c0 -19 2 -27 5 -17 2 9 2 25 0 35 -3 9 -5 1 -5 -18z"/>
<path d="M4570 5280 c0 -16 5 -30 10 -30 6 0 10 14 10 30 0 17 -4 30 -10 30
-5 0 -10 -13 -10 -30z"/>
<path d="M4700 5280 c0 -16 5 -30 10 -30 6 0 10 14 10 30 0 17 -4 30 -10 30
-5 0 -10 -13 -10 -30z"/>
<path d="M3770 5165 c0 -8 7 -15 15 -15 8 0 15 7 15 15 0 8 -7 15 -15 15 -8 0
-15 -7 -15 -15z"/>
<path d="M4300 5165 c0 -8 7 -15 15 -15 8 0 15 7 15 15 0 8 -7 15 -15 15 -8 0
-15 -7 -15 -15z"/>
<path d="M1510 5030 c0 -11 -7 -20 -15 -20 -17 0 -20 -16 -5 -25 13 -8 1 -35
-16 -35 -8 0 -14 -4 -14 -10 0 -5 5 -10 10 -10 6 0 10 -9 10 -20 0 -11 4 -20
9 -20 5 0 11 9 14 20 3 11 10 20 17 20 7 0 9 -8 5 -20 -5 -14 -2 -20 9 -20 9
0 16 9 16 20 0 11 7 20 15 20 8 0 15 5 15 10 0 6 -4 10 -10 10 -15 0 -12 17 7
36 12 11 14 19 6 21 -6 2 -9 13 -6 23 7 26 -14 26 -22 0 -3 -11 -11 -20 -17
-20 -6 0 -8 9 -5 20 3 13 0 20 -9 20 -8 0 -14 -9 -14 -20z m21 -73 c-8 -8 -11
-7 -11 4 0 20 13 34 18 19 3 -7 -1 -17 -7 -23z"/>
<path d="M3640 5020 c0 -16 5 -30 10 -30 6 0 10 14 10 30 0 17 -4 30 -10 30
-5 0 -10 -13 -10 -30z"/>
<path d="M4174 4973 c-20 -42 -38 -81 -41 -86 -3 -5 0 -8 6 -6 16 6 93 169 80
169 -6 0 -26 -35 -45 -77z"/>
<path d="M2682 5017 c-33 -35 -31 -109 4 -136 29 -23 60 -27 84 -11 17 11 17
11 -28 15 -46 4 -62 21 -62 66 0 30 5 42 26 55 24 16 26 16 42 0 16 -16 16
-17 -1 -10 -22 8 -47 -12 -47 -40 0 -30 18 -46 52 -46 27 0 28 2 28 49 0 78
-51 108 -98 58z m76 -66 c-5 -24 -38 -27 -38 -3 0 10 3 21 6 25 11 11 35 -5
32 -22z"/>
<path d="M1380 4990 c0 -11 7 -20 15 -20 8 0 15 9 15 20 0 11 -7 20 -15 20 -8
0 -15 -9 -15 -20z"/>
<path d="M1380 4910 c0 -11 7 -20 15 -20 8 0 15 9 15 20 0 11 -7 20 -15 20 -8
0 -15 -9 -15 -20z"/>
<path d="M2574 4919 c-10 -17 13 -36 27 -22 12 12 4 33 -11 33 -5 0 -12 -5
-16 -11z"/>
<path d="M3504 4919 c-10 -17 13 -36 27 -22 12 12 4 33 -11 33 -5 0 -12 -5
-16 -11z"/>
<path d="M3376 4699 c-20 -45 -34 -84 -31 -87 7 -7 6 -8 48 82 41 86 41 86 28
86 -4 0 -25 -37 -45 -81z"/>
<path d="M4032 4755 c-22 -48 -8 -165 19 -165 4 0 1 21 -7 47 -12 41 -12 54 0
95 15 51 7 65 -12 23z"/>
<path d="M3070 4600 c0 -5 25 -10 55 -10 30 0 55 5 55 10 0 6 -25 10 -55 10
-30 0 -55 -4 -55 -10z"/>
<path d="M3200 4600 c0 -5 25 -10 55 -10 30 0 55 5 55 10 0 6 -25 10 -55 10
-30 0 -55 -4 -55 -10z"/>
<path d="M3460 4600 c0 -5 25 -10 55 -10 30 0 55 5 55 10 0 6 -25 10 -55 10
-30 0 -55 -4 -55 -10z"/>
<path d="M3600 4600 c0 -5 25 -10 55 -10 30 0 55 5 55 10 0 6 -25 10 -55 10
-30 0 -55 -4 -55 -10z"/>
<path d="M3730 4600 c0 -5 25 -10 55 -10 30 0 55 5 55 10 0 6 -25 10 -55 10
-30 0 -55 -4 -55 -10z"/>
<path d="M3860 4600 c0 -5 25 -10 55 -10 30 0 55 5 55 10 0 6 -25 10 -55 10
-30 0 -55 -4 -55 -10z"/>
<path d="M4130 4600 c0 -5 25 -10 55 -10 30 0 55 5 55 10 0 6 -25 10 -55 10
-30 0 -55 -4 -55 -10z"/>
<path d="M3235 4500 c10 -11 23 -20 28 -20 6 0 2 9 -8 20 -10 11 -23 20 -28
20 -6 0 -2 -9 8 -20z"/>
<path d="M1781 4428 c46 -93 47 -94 55 -86 8 8 -74 168 -86 168 -6 0 8 -37 31
-82z"/>
<path d="M2446 4429 c-20 -45 -34 -84 -31 -87 7 -7 6 -8 48 82 41 86 41 86 28
86 -4 0 -25 -37 -45 -81z"/>
<path d="M3384 4405 c0 -60 1 -84 3 -52 2 32 2 81 0 110 -2 29 -3 3 -3 -58z"/>
<path d="M3510 4480 c0 -16 5 -30 10 -30 6 0 10 14 10 30 0 17 -4 30 -10 30
-5 0 -10 -13 -10 -30z"/>
<path d="M3610 4430 l0 -80 50 0 c38 0 50 4 50 15 0 10 -11 15 -35 15 l-35 0
0 65 c0 51 -3 65 -15 65 -12 0 -15 -16 -15 -80z"/>
<path d="M3770 4480 c0 -20 5 -30 15 -30 10 0 15 10 15 30 0 20 -5 30 -15 30
-10 0 -15 -10 -15 -30z"/>
<path d="M3914 4405 c0 -60 1 -84 3 -52 2 32 2 81 0 110 -2 29 -3 3 -3 -58z"/>
<path d="M4170 4405 c0 -63 4 -105 10 -105 6 0 10 42 10 105 0 63 -4 105 -10
105 -6 0 -10 -42 -10 -105z"/>
<path d="M1910 4365 c0 -8 7 -15 15 -15 8 0 15 7 15 15 0 8 -7 15 -15 15 -8 0
-15 -7 -15 -15z"/>
<path d="M2310 4366 c0 -8 5 -16 11 -18 8 -3 6 -10 -5 -21 -10 -9 -14 -17 -9
-17 16 0 33 24 33 47 0 14 -6 23 -15 23 -8 0 -15 -6 -15 -14z"/>
<path d="M3384 4145 c0 -60 1 -84 3 -52 2 32 2 81 0 110 -2 29 -3 3 -3 -58z"/>
<path d="M3914 4145 c0 -60 1 -84 3 -52 2 32 2 81 0 110 -2 29 -3 3 -3 -58z"/>
<path d="M4140 4170 l0 -80 50 0 c28 0 50 5 50 10 0 6 -18 10 -40 10 l-40 0 0
70 c0 40 -4 70 -10 70 -6 0 -10 -33 -10 -80z"/>
<path d="M1740 4180 c0 -5 25 -10 55 -10 30 0 55 5 55 10 0 6 -25 10 -55 10
-30 0 -55 -4 -55 -10z"/>
<path d="M2400 4180 c0 -5 25 -10 55 -10 30 0 55 5 55 10 0 6 -25 10 -55 10
-30 0 -55 -4 -55 -10z"/>
<path d="M3610 4150 c0 -5 18 -10 40 -10 22 0 40 5 40 10 0 6 -18 10 -40 10
-22 0 -40 -4 -40 -10z"/>
<path d="M1740 4140 c0 -5 25 -10 55 -10 30 0 55 5 55 10 0 6 -25 10 -55 10
-30 0 -55 -4 -55 -10z"/>
<path d="M2400 4140 c0 -5 25 -10 55 -10 30 0 55 5 55 10 0 6 -25 10 -55 10
-30 0 -55 -4 -55 -10z"/>
<path d="M3770 4106 c0 -8 5 -16 11 -18 8 -3 6 -10 -5 -21 -10 -9 -14 -17 -9
-17 16 0 33 24 33 47 0 14 -6 23 -15 23 -8 0 -15 -6 -15 -14z"/>
<path d="M4165 3970 c10 -11 20 -20 22 -20 2 0 -1 9 -7 20 -6 11 -16 20 -22
20 -6 0 -3 -9 7 -20z"/>
<path d="M1782 3895 c-23 -47 -37 -85 -32 -85 8 0 90 150 90 165 0 3 -3 5 -8
5 -4 0 -27 -38 -50 -85z"/>
<path d="M2050 3875 c0 -63 4 -105 10 -105 6 0 10 42 10 105 0 63 -4 105 -10
105 -6 0 -10 -42 -10 -105z"/>
<path d="M2412 3972 c32 -80 74 -162 81 -162 10 0 11 -2 -34 98 -17 39 -36 72
-41 72 -5 0 -8 -4 -6 -8z"/>
<path d="M3382 3950 c0 -19 2 -27 5 -17 2 9 2 25 0 35 -3 9 -5 1 -5 -18z"/>
<path d="M3470 3975 c0 -15 82 -165 90 -165 5 0 -9 38 -32 85 -23 47 -46 85
-50 85 -5 0 -8 -2 -8 -5z"/>
<path d="M3620 3950 c0 -16 5 -30 10 -30 6 0 10 14 10 30 0 17 -4 30 -10 30
-5 0 -10 -13 -10 -30z"/>
<path d="M3660 3950 c0 -16 5 -30 10 -30 6 0 10 14 10 30 0 17 -4 30 -10 30
-5 0 -10 -13 -10 -30z"/>
<path d="M3772 3895 c-23 -47 -37 -85 -32 -85 8 0 90 150 90 165 0 3 -3 5 -8
5 -4 0 -27 -38 -50 -85z"/>
<path d="M4040 3950 c0 -16 5 -30 10 -30 6 0 10 14 10 30 0 17 -4 30 -10 30
-5 0 -10 -13 -10 -30z"/>
<path d="M3210 3880 c0 -5 20 -10 45 -10 25 0 45 5 45 10 0 6 -20 10 -45 10
-25 0 -45 -4 -45 -10z"/>
<path d="M3113 3829 c3 -12 1 -29 -5 -36 -6 -8 -7 -13 0 -13 30 0 42 58 13 68
-10 3 -12 -1 -8 -19z"/>
<path d="M3900 3836 c0 -8 6 -16 13 -19 9 -3 8 -8 -3 -22 -13 -16 -13 -18 0
-13 21 7 26 68 6 68 -9 0 -16 -6 -16 -14z"/>
<path d="M4300 3835 c0 -8 7 -15 15 -15 8 0 15 7 15 15 0 8 -7 15 -15 15 -8 0
-15 -7 -15 -15z"/>
<path d="M3635 3700 c10 -11 20 -20 22 -20 2 0 -1 9 -7 20 -6 11 -16 20 -22
20 -6 0 -3 -9 7 -20z"/>
<path d="M4295 3700 c10 -11 23 -20 28 -20 6 0 2 9 -8 20 -10 11 -23 20 -28
20 -6 0 -2 -9 8 -20z"/>
<path d="M2180 3605 c0 -63 4 -105 10 -105 6 0 10 42 10 105 0 63 -4 105 -10
105 -6 0 -10 -42 -10 -105z"/>
<path d="M3110 3680 c0 -16 5 -30 10 -30 6 0 10 14 10 30 0 17 -4 30 -10 30
-5 0 -10 -13 -10 -30z"/>
<path d="M2977 3573 c-4 -3 -2 -12 4 -20 9 -10 8 -17 -1 -28 -8 -10 -9 -15 -2
-15 16 0 35 39 28 56 -6 15 -18 18 -29 7z"/>
<path d="M3770 3566 c0 -8 5 -16 11 -18 8 -3 6 -10 -5 -21 -10 -9 -14 -17 -9
-17 16 0 33 24 33 47 0 14 -6 23 -15 23 -8 0 -15 -6 -15 -14z"/>
<path d="M3900 3566 c0 -8 6 -16 13 -19 9 -3 8 -8 -3 -22 -13 -16 -13 -18 0
-13 21 7 26 68 6 68 -9 0 -16 -6 -16 -14z"/>
<path d="M4037 3574 c-8 -8 1 -24 14 -24 5 0 9 7 9 15 0 15 -12 20 -23 9z"/>
<path d="M4430 3565 c0 -8 7 -15 15 -15 8 0 15 7 15 15 0 8 -7 15 -15 15 -8 0
-15 -7 -15 -15z"/>
<path d="M2980 3420 c0 -16 5 -30 10 -30 6 0 10 14 10 30 0 17 -4 30 -10 30
-5 0 -10 -13 -10 -30z"/>
<path d="M3782 3420 c0 -19 2 -27 5 -17 2 9 2 25 0 35 -3 9 -5 1 -5 -18z"/>
<path d="M4000 3445 c0 -15 82 -165 90 -165 5 0 -9 38 -32 85 -23 47 -46 85
-50 85 -5 0 -8 -2 -8 -5z"/>
<path d="M4170 3345 c0 -63 4 -105 10 -105 6 0 10 42 10 105 0 63 -4 105 -10
105 -6 0 -10 -42 -10 -105z"/>
<path d="M4444 3345 c0 -60 1 -84 3 -52 2 32 2 81 0 110 -2 29 -3 3 -3 -58z"/>
<path d="M3634 3389 c-10 -17 13 -36 27 -22 12 12 4 33 -11 33 -5 0 -12 -5
-16 -11z"/>
<path d="M2047 3313 c-4 -3 -2 -12 4 -20 9 -10 8 -17 -1 -28 -8 -10 -9 -15 -2
-15 16 0 35 39 28 56 -6 15 -18 18 -29 7z"/>
<path d="M2840 3306 c0 -8 5 -16 11 -18 8 -3 6 -10 -5 -21 -10 -9 -14 -17 -9
-17 16 0 33 24 33 47 0 14 -6 23 -15 23 -8 0 -15 -6 -15 -14z"/>
<path d="M3240 3306 c0 -8 5 -16 11 -18 8 -3 6 -10 -5 -21 -10 -9 -14 -17 -9
-17 16 0 33 24 33 47 0 14 -6 23 -15 23 -8 0 -15 -6 -15 -14z"/>
<path d="M3507 3313 c-4 -3 -2 -12 4 -20 9 -10 8 -17 -1 -28 -8 -10 -9 -15 -2
-15 16 0 35 39 28 56 -6 15 -18 18 -29 7z"/>
<path d="M3640 3306 c0 -9 5 -16 12 -16 6 0 3 -9 -7 -20 -22 -25 -14 -37 9
-14 10 9 16 26 14 37 -4 24 -28 36 -28 13z"/>
<path d="M2270 3270 c0 -5 25 -10 55 -10 30 0 55 5 55 10 0 6 -25 10 -55 10
-30 0 -55 -4 -55 -10z"/>
<path d="M2400 3270 c0 -5 25 -10 55 -10 30 0 55 5 55 10 0 6 -25 10 -55 10
-30 0 -55 -4 -55 -10z"/>
<path d="M2530 3270 c0 -5 25 -10 55 -10 30 0 55 5 55 10 0 6 -25 10 -55 10
-30 0 -55 -4 -55 -10z"/>
<path d="M2670 3270 c0 -5 25 -10 55 -10 30 0 55 5 55 10 0 6 -25 10 -55 10
-30 0 -55 -4 -55 -10z"/>
<path d="M1906 3140 c-9 -22 -16 -47 -16 -55 0 -21 31 -95 40 -95 4 0 2 17 -6
38 -7 20 -13 46 -13 57 0 11 6 37 13 58 18 50 2 48 -18 -3z"/>
<path d="M2015 3170 c-4 -6 8 -10 29 -10 29 0 36 -4 36 -20 0 -13 -7 -20 -20
-20 -27 0 -25 -13 3 -25 12 -6 22 -19 22 -30 0 -16 -8 -21 -38 -23 -20 -2 -35
-7 -32 -13 10 -15 62 -10 79 7 18 17 21 50 6 59 -5 3 -7 20 -3 36 4 21 1 34
-8 40 -19 12 -66 11 -74 -1z"/>
<path d="M2180 3075 c0 -63 4 -105 10 -105 6 0 10 42 10 105 0 63 -4 105 -10
105 -6 0 -10 -42 -10 -105z"/>
<path d="M2311 3098 c46 -93 47 -94 55 -86 8 8 -74 168 -86 168 -6 0 8 -37 31
-82z"/>
<path d="M3114 3103 c-20 -42 -38 -81 -41 -86 -3 -5 0 -8 6 -6 16 6 93 169 80
169 -6 0 -26 -35 -45 -77z"/>
<path d="M3254 3075 c0 -60 1 -84 3 -52 2 32 2 81 0 110 -2 29 -3 3 -3 -58z"/>
<path d="M3376 3099 c-20 -45 -34 -84 -31 -87 7 -7 6 -8 48 82 41 86 41 86 28
86 -4 0 -25 -37 -45 -81z"/>
<path d="M3510 3150 c0 -16 5 -30 10 -30 6 0 10 14 10 30 0 17 -4 30 -10 30
-5 0 -10 -13 -10 -30z"/>
<path d="M4170 3075 c0 -63 4 -105 10 -105 6 0 10 42 10 105 0 63 -4 105 -10
105 -6 0 -10 -42 -10 -105z"/>
<path d="M4444 3075 c0 -60 1 -84 3 -52 2 32 2 81 0 110 -2 29 -3 3 -3 -58z"/>
<path d="M2930 3000 c0 -5 25 -10 55 -10 30 0 55 5 55 10 0 6 -25 10 -55 10
-30 0 -55 -4 -55 -10z"/>
<path d="M3990 3000 c0 -5 25 -10 55 -10 30 0 55 5 55 10 0 6 -25 10 -55 10
-30 0 -55 -4 -55 -10z"/>
<path d="M2050 2805 c0 -63 4 -105 10 -105 6 0 10 42 10 105 0 63 -4 105 -10
105 -6 0 -10 -42 -10 -105z"/>
<path d="M2312 2825 c-23 -47 -37 -85 -32 -85 8 0 90 150 90 165 0 3 -3 5 -8
5 -4 0 -27 -38 -50 -85z"/>
<path d="M2710 2880 c0 -16 5 -30 10 -30 6 0 10 14 10 30 0 17 -4 30 -10 30
-5 0 -10 -13 -10 -30z"/>
<path d="M2852 2880 c0 -19 2 -27 5 -17 2 9 2 25 0 35 -3 9 -5 1 -5 -18z"/>
<path d="M3254 2805 c0 -60 1 -84 3 -52 2 32 2 81 0 110 -2 29 -3 3 -3 -58z"/>
<path d="M3782 2880 c0 -19 2 -27 5 -17 2 9 2 25 0 35 -3 9 -5 1 -5 -18z"/>
<path d="M3912 2880 c0 -19 2 -27 5 -17 2 9 2 25 0 35 -3 9 -5 1 -5 -18z"/>
<path d="M4402 2902 c32 -80 74 -162 81 -162 10 0 11 -2 -34 98 -17 39 -36 72
-41 72 -5 0 -8 -4 -6 -8z"/>
<path d="M4530 2905 c0 -15 82 -165 90 -165 5 0 -9 38 -32 85 -23 47 -46 85
-50 85 -5 0 -8 -2 -8 -5z"/>
<path d="M3460 2861 c0 -4 21 -16 47 -26 28 -11 41 -20 33 -23 -41 -13 -82
-33 -77 -38 9 -9 107 30 107 43 0 7 -1 13 -2 13 -2 0 -27 9 -55 20 -29 11 -53
16 -53 11z"/>
<path d="M2550 2810 c0 -5 18 -10 40 -10 22 0 40 5 40 10 0 6 -18 10 -40 10
-22 0 -40 -4 -40 -10z"/>
<path d="M3610 2810 c0 -5 18 -10 40 -10 22 0 40 5 40 10 0 6 -18 10 -40 10
-22 0 -40 -4 -40 -10z"/>
<path d="M2440 2766 c0 -8 6 -16 13 -19 9 -3 8 -8 -3 -22 -13 -16 -13 -18 0
-13 21 7 26 68 6 68 -9 0 -16 -6 -16 -14z"/>
<path d="M4300 2766 c0 -8 5 -16 11 -18 8 -3 6 -10 -5 -21 -10 -9 -14 -17 -9
-17 16 0 33 24 33 47 0 14 -6 23 -15 23 -8 0 -15 -6 -15 -14z"/>
<path d="M4130 2730 c0 -5 25 -10 55 -10 30 0 55 5 55 10 0 6 -25 10 -55 10
-30 0 -55 -4 -55 -10z"/>
<path d="M2180 2545 c0 -63 4 -105 10 -105 6 0 10 42 10 105 0 63 -4 105 -10
105 -6 0 -10 -42 -10 -105z"/>
<path d="M2322 2620 c0 -19 2 -27 5 -17 2 9 2 25 0 35 -3 9 -5 1 -5 -18z"/>
<path d="M3470 2645 c0 -15 82 -165 90 -165 5 0 -9 38 -32 85 -23 47 -46 85
-50 85 -5 0 -8 -2 -8 -5z"/>
<path d="M4040 2620 c0 -16 5 -30 10 -30 6 0 10 14 10 30 0 17 -4 30 -10 30
-5 0 -10 -13 -10 -30z"/>
<path d="M4570 2620 c0 -16 5 -30 10 -30 6 0 10 14 10 30 0 17 -4 30 -10 30
-5 0 -10 -13 -10 -30z"/>
<path d="M3870 2550 c0 -5 20 -10 45 -10 25 0 45 5 45 10 0 6 -20 10 -45 10
-25 0 -45 -4 -45 -10z"/>
<path d="M3770 2506 c0 -8 5 -16 11 -18 8 -3 6 -10 -5 -21 -10 -9 -14 -17 -9
-17 16 0 33 24 33 47 0 14 -6 23 -15 23 -8 0 -15 -6 -15 -14z"/>
<path d="M4430 2506 c0 -8 6 -16 13 -19 9 -3 8 -8 -3 -22 -13 -16 -13 -18 0
-13 21 7 26 68 6 68 -9 0 -16 -6 -16 -14z"/>
<path d="M2050 2275 c0 -63 4 -105 10 -105 6 0 10 42 10 105 0 63 -4 105 -10
105 -6 0 -10 -42 -10 -105z"/>
<path d="M3254 2275 c0 -60 1 -84 3 -52 2 32 2 81 0 110 -2 29 -3 3 -3 -58z"/>
<path d="M3607 2328 c8 -29 19 -64 23 -78 13 -50 34 -34 57 47 13 42 20 79 17
82 -9 9 -23 -21 -35 -77 -7 -28 -15 -49 -18 -46 -3 3 -13 31 -21 62 -8 30 -20
57 -27 59 -9 3 -8 -10 4 -49z"/>
<path d="M3872 2372 c32 -80 74 -162 81 -162 10 0 11 -2 -34 98 -17 39 -36 72
-41 72 -5 0 -8 -4 -6 -8z"/>
<path d="M4314 2275 c0 -60 1 -84 3 -52 2 32 2 81 0 110 -2 29 -3 3 -3 -58z"/>
<path d="M4173 2229 c3 -12 1 -29 -5 -36 -6 -8 -7 -13 0 -13 30 0 42 58 13 68
-10 3 -12 -1 -8 -19z"/>
<path d="M4030 2100 c6 -11 15 -20 20 -20 6 0 5 9 -2 20 -7 11 -16 20 -21 20
-4 0 -3 -9 3 -20z"/>
<path d="M2180 2005 c0 -63 4 -105 10 -105 6 0 10 42 10 105 0 63 -4 105 -10
105 -6 0 -10 -42 -10 -105z"/>
<path d="M3254 2005 c0 -60 1 -84 3 -52 2 32 2 81 0 110 -2 29 -3 3 -3 -58z"/>
<path d="M3914 2005 c0 -60 1 -84 3 -52 2 32 2 81 0 110 -2 29 -3 3 -3 -58z"/>
<path d="M4314 2005 c0 -60 1 -84 3 -52 2 32 2 81 0 110 -2 29 -3 3 -3 -58z"/>
<path d="M2050 1745 c0 -63 4 -105 10 -105 6 0 10 42 10 105 0 63 -4 105 -10
105 -6 0 -10 -42 -10 -105z"/>
<path d="M3254 1745 c0 -60 1 -84 3 -52 2 32 2 81 0 110 -2 29 -3 3 -3 -58z"/>
<path d="M3914 1745 c0 -60 1 -84 3 -52 2 32 2 81 0 110 -2 29 -3 3 -3 -58z"/>
<path d="M4402 1842 c32 -80 74 -162 81 -162 10 0 11 -2 -34 98 -17 39 -36 72
-41 72 -5 0 -8 -4 -6 -8z"/>
<path d="M2180 1475 c0 -63 4 -105 10 -105 6 0 10 42 10 105 0 63 -4 105 -10
105 -6 0 -10 -42 -10 -105z"/>
<path d="M3254 1475 c0 -60 1 -84 3 -52 2 32 2 81 0 110 -2 29 -3 3 -3 -58z"/>
<path d="M3872 1572 c32 -80 74 -162 81 -162 10 0 11 -2 -34 98 -17 39 -36 72
-41 72 -5 0 -8 -4 -6 -8z"/>
<path d="M4530 1575 c0 -15 82 -165 90 -165 5 0 -9 38 -32 85 -23 47 -46 85
-50 85 -5 0 -8 -2 -8 -5z"/>
<path d="M2050 1205 c0 -63 4 -105 10 -105 6 0 10 42 10 105 0 63 -4 105 -10
105 -6 0 -10 -42 -10 -105z"/>
<path d="M3254 1205 c0 -60 1 -84 3 -52 2 32 2 81 0 110 -2 29 -3 3 -3 -58z"/>
<path d="M4040 1205 c0 -63 4 -105 10 -105 6 0 10 42 10 105 0 63 -4 105 -10
105 -6 0 -10 -42 -10 -105z"/>
<path d="M4699 1229 c21 -46 43 -85 49 -87 6 -2 -6 34 -27 79 -21 46 -43 85
-49 87 -6 2 6 -34 27 -79z"/>
<path d="M2180 945 c0 -63 4 -105 10 -105 6 0 10 42 10 105 0 63 -4 105 -10
105 -6 0 -10 -42 -10 -105z"/>
<path d="M3254 945 c0 -60 1 -84 3 -52 2 32 2 81 0 110 -2 29 -3 3 -3 -58z"/>
<path d="M4169 969 c21 -46 43 -85 49 -87 6 -2 -6 34 -27 79 -21 46 -43 85
-49 87 -6 2 6 -34 27 -79z"/>
<path d="M4700 1020 c0 -16 5 -30 10 -30 6 0 10 14 10 30 0 17 -4 30 -10 30
-5 0 -10 -13 -10 -30z"/>
<path d="M4540 950 c0 -5 18 -10 40 -10 22 0 40 5 40 10 0 6 -18 10 -40 10
-22 0 -40 -4 -40 -10z"/>
<path d="M4430 906 c0 -8 6 -16 13 -19 9 -3 8 -8 -3 -22 -13 -16 -13 -18 0
-13 21 7 26 68 6 68 -9 0 -16 -6 -16 -14z"/>
<path d="M4260 870 c0 -5 25 -10 55 -10 30 0 55 5 55 10 0 6 -25 10 -55 10
-30 0 -55 -4 -55 -10z"/>
<path d="M2050 675 c0 -63 4 -105 10 -105 6 0 10 42 10 105 0 63 -4 105 -10
105 -6 0 -10 -42 -10 -105z"/>
<path d="M3254 675 c0 -60 1 -84 3 -52 2 32 2 81 0 110 -2 29 -3 3 -3 -58z"/>
<path d="M4280 750 c0 -16 5 -30 10 -30 6 0 10 14 10 30 0 17 -4 30 -10 30 -5
0 -10 -13 -10 -30z"/>
<path d="M4332 750 c0 -19 2 -27 5 -17 2 9 2 25 0 35 -3 9 -5 1 -5 -18z"/>
<path d="M4446 745 c7 -19 14 -46 14 -60 0 -14 -7 -41 -14 -60 -9 -20 -11 -35
-5 -35 13 0 39 63 39 95 0 32 -26 95 -39 95 -6 0 -4 -15 5 -35z"/>
<path d="M4699 699 c21 -46 43 -85 49 -87 6 -2 -6 34 -27 79 -21 46 -43 85
-49 87 -6 2 6 -34 27 -79z"/>
<path d="M4010 680 c0 -5 18 -10 40 -10 22 0 40 5 40 10 0 6 -18 10 -40 10
-22 0 -40 -4 -40 -10z"/>
<path d="M4140 680 c0 -5 18 -10 40 -10 22 0 40 5 40 10 0 6 -18 10 -40 10
-22 0 -40 -4 -40 -10z"/>
<path d="M3770 636 c0 -8 5 -16 11 -18 8 -3 6 -10 -5 -21 -10 -9 -14 -17 -9
-17 16 0 33 24 33 47 0 14 -6 23 -15 23 -8 0 -15 -6 -15 -14z"/>
<path d="M3900 636 c0 -8 6 -16 13 -19 9 -3 8 -8 -3 -22 -13 -16 -13 -18 0
-13 21 7 26 68 6 68 -9 0 -16 -6 -16 -14z"/>
<path d="M3330 600 c0 -5 25 -10 55 -10 30 0 55 5 55 10 0 6 -25 10 -55 10
-30 0 -55 -4 -55 -10z"/>
<path d="M3460 600 c0 -5 25 -10 55 -10 30 0 55 5 55 10 0 6 -25 10 -55 10
-30 0 -55 -4 -55 -10z"/>
<path d="M3600 600 c0 -5 25 -10 55 -10 30 0 55 5 55 10 0 6 -25 10 -55 10
-30 0 -55 -4 -55 -10z"/>
<path d="M4520 600 c0 -5 25 -10 55 -10 30 0 55 5 55 10 0 6 -25 10 -55 10
-30 0 -55 -4 -55 -10z"/>
<path d="M2180 405 c0 -63 4 -105 10 -105 6 0 10 42 10 105 0 63 -4 105 -10
105 -6 0 -10 -42 -10 -105z"/>
<path d="M3510 405 c0 -63 4 -105 10 -105 6 0 10 42 10 105 0 63 -4 105 -10
105 -6 0 -10 -42 -10 -105z"/>
<path d="M3784 405 c0 -60 1 -84 3 -52 2 32 2 81 0 110 -2 29 -3 3 -3 -58z"/>
<path d="M4704 433 c-20 -42 -38 -81 -41 -86 -3 -5 0 -8 6 -6 16 6 93 169 80
169 -6 0 -26 -35 -45 -77z"/>
<path d="M4286 457 c-13 -9 -17 -23 -14 -52 2 -32 8 -41 29 -49 15 -5 35 -5
45 -1 16 7 13 9 -16 14 -32 6 -35 9 -35 41 0 32 3 35 33 38 18 2 30 8 27 13
-9 13 -48 11 -69 -4z"/>
<path d="M4416 455 c-36 -36 -10 -105 39 -105 37 0 39 18 3 22 -30 3 -33 6
-33 38 0 33 2 35 33 35 17 0 31 4 29 10 -6 17 -54 17 -71 0z"/>
<path d="M4547 452 c-22 -24 -21 -65 1 -85 21 -19 57 -22 67 -7 4 6 -6 10 -24
10 -33 0 -47 24 -36 60 4 14 15 20 36 20 18 0 28 4 24 10 -10 16 -51 11 -68
-8z"/>
<path d="M3600 330 c0 -5 25 -10 55 -10 30 0 55 5 55 10 0 6 -25 10 -55 10
-30 0 -55 -4 -55 -10z"/>
<path d="M3772 165 c-23 -47 -37 -85 -32 -85 8 0 90 150 90 165 0 3 -3 5 -8 5
-4 0 -27 -38 -50 -85z"/>
<path d="M2186 222 c-6 -18 -13 -22 -29 -18 -22 5 -22 5 -2 -10 16 -12 18 -18
7 -34 -7 -11 -8 -20 -3 -20 6 0 15 8 21 18 10 16 10 16 20 0 6 -10 16 -18 22
-18 9 0 9 3 0 12 -17 17 -15 38 3 38 8 0 15 4 15 9 0 5 -9 7 -19 4 -14 -4 -20
1 -23 19 l-4 23 -8 -23z"/>
<path d="M3356 195 c-36 -36 -10 -105 39 -105 37 0 39 18 3 22 -30 3 -33 6
-33 38 0 33 2 35 33 35 17 0 31 4 29 10 -6 17 -54 17 -71 0z"/>
<path d="M3487 192 c-22 -24 -21 -65 1 -85 21 -19 57 -22 67 -7 4 6 -6 10 -24
10 -33 0 -47 24 -36 60 4 14 15 20 36 20 18 0 28 4 24 10 -10 16 -51 11 -68
-8z"/>
<path d="M3620 190 c-38 -38 -13 -100 41 -100 36 0 39 18 3 22 -15 2 -32 11
-38 21 -15 24 3 51 38 55 14 2 26 8 26 13 0 17 -50 9 -70 -11z"/>
</g>
</svg>
